<?xml version="1.0" standalone="no"?>
<!DOCTYPE svg PUBLIC "-//W3C//DTD SVG 1.1//EN" "http://www.w3.org/Graphics/SVG/1.1/DTD/svg11.dtd" >
<svg xmlns="http://www.w3.org/2000/svg" xmlns:xlink="http://www.w3.org/1999/xlink" version="1.1">
<metadata>
Created by FontForge 20170924 at Sat Nov 16 08:36:21 2019
 By www-data
Copyright (c) 2019 by Hendra Pratama. All rights reserved.
</metadata>
<defs>
<font id="Billgates" horiz-adv-x="906" >
  <font-face 
    font-family="Billgates"
    font-weight="400"
    font-stretch="normal"
    units-per-em="1000"
    panose-1="2 0 5 5 0 0 0 2 0 3"
    ascent="750"
    descent="-250"
    x-height="423.5"
    cap-height="750"
    bbox="-716.514 -530 3437.67 992"
    underline-thickness="50"
    underline-position="-100"
    unicode-range="U+000D-F6C0"
  />
<missing-glyph horiz-adv-x="500" 
 />
    <glyph glyph-name="l_l" unicode="ll" horiz-adv-x="394" 
d="M296 34q1 -3 6 -4t10.5 -1t10.5 -0.5t5 -3.5q1 -6 -4 -14.5t-12 -16t-14.5 -13.5t-13.5 -7q-11 -2 -22.5 4.5t-21.5 20t-15.5 34.5t-4.5 48q2 47 20.5 108t47 127t63.5 133.5t69.5 126.5t65.5 105.5t51 71.5q13 6 30 -1t30 -19.5t18.5 -27t-2.5 -22.5q-6 -6 -24 -36
t-43 -75.5t-55 -101.5t-59.5 -114t-56.5 -114t-46.5 -100.5t-28.5 -73.5t-4 -34zM91 34q1 -3 6 -4t10.5 -1t10.5 -0.5t5 -3.5q1 -6 -4 -14.5t-12 -16t-14.5 -13.5t-13.5 -7q-11 -2 -22 6t-20 23t-14.5 37t-4.5 49q1 42 17.5 98.5t42.5 118t58 124.5t64 119t61.5 100.5
t49.5 69.5q13 6 30 -1t30 -19.5t18.5 -27t-2.5 -22.5q-6 -6 -23 -34.5t-40.5 -71.5t-51.5 -96t-55.5 -108t-53 -108t-43 -95t-26 -69.5t-3.5 -32.5z" />
    <glyph glyph-name="o_o" unicode="oo" horiz-adv-x="748" 
d="M741 313q4 -30 -0.5 -66t-17.5 -72t-33.5 -69.5t-47 -59t-59.5 -40.5t-70 -14q-14 0 -35 11.5t-41 29.5t-35 41t-16 47q-2 37 3.5 67t15 54.5t22.5 43.5t25 34q-44 -12 -87 -15q3 -30 -2.5 -67t-18.5 -74t-33.5 -71.5t-46.5 -61t-58 -42t-69 -14.5q-14 0 -34 7.5
t-39.5 23t-34.5 39.5t-19 59q-4 37 2.5 73.5t20.5 68.5t34.5 58.5t44.5 43.5q11 8 35.5 14.5t53.5 1.5v1l-8 10l7 12q1 5 5 15q5 14 13 23t30 7q18 -2 42 -16.5t43 -35.5q24 -3 49.5 -3t49.5 1.5t44.5 4t34.5 4.5q20 21 50 34.5t64 10.5q16 -2 35.5 -12.5t37.5 -27t30 -37
t13 -42.5zM610 180q17 33 27.5 63t13.5 54.5t-1 41t-16 21.5q-14 8 -32 -1t-31 -29q-9 -13 -12.5 -23t-11.5 -16q-13 -10 -31 -39t-31 -62.5t-15.5 -64t15.5 -44.5q22 -13 56 10.5t69 88.5zM234 163q20 38 30.5 76.5t11.5 67.5q-34 6 -55 25q-29 -24 -58 -62.5t-48 -79
t-23.5 -76.5t15.5 -54q22 -13 57 12.5t70 90.5z" />
    <glyph glyph-name=".notdef" horiz-adv-x="500" 
 />
    <glyph glyph-name="A" unicode="A" 
d="M924 317q-4 -10 -11.5 -22.5t-19 -25t-28 -23.5t-37.5 -17q-17 -49 -30.5 -94t-22.5 -82.5t-11.5 -66t2.5 -43.5q1 -13 3.5 -18t5.5 -6t6 -0.5t5 -1.5q4 -4 1.5 -15.5t-21.5 -14.5q-8 0 -20 6t-24 18.5t-22 31t-16 42.5q-5 2 -5 5q-9 16 -26.5 40.5t-41.5 53.5t-53 60.5
t-61 62.5q-57 -53 -113.5 -100t-109 -83t-99.5 -58t-84 -25q-21 -2 -42.5 4t-39 17.5t-28.5 28.5t-11 37q0 23 7.5 26t13.5 -3q0 -5 2.5 -10t19.5 -12q37 -1 84 19.5t99.5 54.5t107.5 77.5t108 89.5q-83 24 -143 50t-80 38h-1q-8 5 -9 20t8 32q13 28 36 34.5t62 0.5
q31 -7 71 -32.5t84 -62.5q13 -3 26 -5.5t27 -4.5l27 25q61 54 112 105.5t98.5 101.5t94.5 100.5t100 103.5q4 3 15.5 1.5t22.5 -6.5t18 -13t3 -19q0 -1 -1 -1q15 -6 27.5 -19.5t8.5 -21.5q-14 -28 -32 -68.5t-39 -89.5t-43 -104t-43 -110q22 3 40 9q7 4 13.5 7.5t10 3
t3.5 -6.5t-5 -21zM751 318q35 89 76.5 173t75.5 147q-52 -63 -126 -145.5t-159 -168.5q66 -6 133 -6zM684 94q5 29 12.5 60.5t18.5 64.5q-38 1 -77 5t-77 11q37 -38 68.5 -75t54.5 -66z" />
    <glyph glyph-name="AE" unicode="&#xc6;" horiz-adv-x="1230" 
d="M680 14q-5 50 11 117t42.5 140.5t61 148t67 138t59 111.5t39.5 69q8 5 19 1.5t21 -11t16 -16.5t3 -15q-19 -39 -47.5 -103.5t-59 -140.5t-60.5 -156t-51.5 -151t-32 -125t-2.5 -78q1 -13 3.5 -18t5.5 -6t6 -0.5t5 -1.5q4 -4 1.5 -15.5t-21.5 -14.5q-9 0 -23 8t-27 24.5
t-23.5 40t-12.5 54.5zM91 -59q-21 -2 -42.5 4t-39 17.5t-28.5 28.5t-11 37q0 23 7.5 26t13.5 -3q0 -5 2.5 -10t19.5 -12q47 -1 109.5 31.5t131 82t137.5 109t129 113.5q61 54 112 105.5t98.5 101.5t94.5 100.5t100 103.5q4 3 15.5 1.5t22.5 -6.5t18 -13t3 -19
q-16 -22 -52.5 -66.5t-88 -104t-114.5 -127.5t-131.5 -137t-139 -132.5t-137 -114t-125.5 -81.5t-105 -35zM285 445q33 -7 76.5 -35.5t90.5 -69.5t93 -88t84 -91t64 -78.5t32 -50.5q0 -25 -7 -36t-15.5 -13.5t-15.5 1t-8 6.5q-12 24 -43 64.5t-73 85.5t-90.5 90t-96 78.5
t-90 51t-71.5 7.5q-12 -10 -20 -9.5t-12 7.5t-3.5 19t7.5 26q13 28 36 34.5t62 0.5zM924 317q-4 -12 -13.5 -27t-25 -29t-38 -24.5t-52.5 -13.5q-63 -7 -128.5 -1.5t-128.5 17.5t-120.5 29t-103.5 34.5t-79 32.5t-46 23q-7 15 -0.5 27t17.5 20.5t20.5 13t8.5 5.5
q17 -20 89 -44.5t197 -43.5q46 -7 100 -11.5t106 -5.5t98 2.5t77 12.5q7 4 13.5 7.5t10 3t3.5 -6.5t-5 -21zM1069 365l-28 -29q-63 13 -93.5 50t-37 82t6.5 91t38 78q36 45 82 70.5t94 36t93 10t77 -6.5q29 -6 51.5 -20.5t36 -35.5t16 -48t-9.5 -59q-4 -9 -15.5 -13.5
t-25 -5t-25.5 3.5t-18 12q3 10 11 15.5t14.5 10t8.5 8.5t-7 10q-26 17 -66.5 18t-85 -9.5t-87 -30t-71.5 -45t-39.5 -54t8.5 -56.5q7 -11 21.5 -18.5t30.5 -12t32 -7.5t27 -4zM669 144q2 48 25 88.5t59 72.5t81.5 56t93.5 39t95 22t86 5q26 -1 47.5 -11.5t36 -25t19.5 -31
t-1 -29.5q-54 2 -113.5 -8.5t-115 -30.5t-103 -48t-79 -59.5t-42 -65t8.5 -64.5q17 -22 47.5 -29.5t69 -4.5t81.5 15t84.5 29.5t77 38t60.5 40.5q22 17 29 17t5 -9t-9.5 -22t-12.5 -22q-23 -35 -63 -76t-90.5 -72.5t-107 -45t-113.5 7.5q-21 8 -49 29t-52.5 50.5t-41 66
t-13.5 77.5z" />
    <glyph glyph-name="Aacute" unicode="&#xc1;" 
d="M924 317q-4 -10 -11.5 -22.5t-19 -25t-28 -23.5t-37.5 -17q-17 -49 -30.5 -94t-22.5 -82.5t-11.5 -66t2.5 -43.5q1 -13 3.5 -18t5.5 -6t6 -0.5t5 -1.5q4 -4 1.5 -15.5t-21.5 -14.5q-8 0 -20 6t-24 18.5t-22 31t-16 42.5q-5 2 -5 5q-9 16 -26.5 40.5t-41.5 53.5t-53 60.5
t-61 62.5q-57 -53 -113.5 -100t-109 -83t-99.5 -58t-84 -25q-21 -2 -42.5 4t-39 17.5t-28.5 28.5t-11 37q0 23 7.5 26t13.5 -3q0 -5 2.5 -10t19.5 -12q37 -1 84 19.5t99.5 54.5t107.5 77.5t108 89.5q-83 24 -143 50t-80 38h-1q-8 5 -9 20t8 32q13 28 36 34.5t62 0.5
q31 -7 71 -32.5t84 -62.5q13 -3 26 -5.5t27 -4.5l27 25q61 54 112 105.5t98.5 101.5t94.5 100.5t100 103.5q4 3 15.5 1.5t22.5 -6.5t18 -13t3 -19q0 -1 -1 -1q15 -6 27.5 -19.5t8.5 -21.5q-14 -28 -32 -68.5t-39 -89.5t-43 -104t-43 -110q22 3 40 9q7 4 13.5 7.5t10 3
t3.5 -6.5t-5 -21zM751 318q35 89 76.5 173t75.5 147q-52 -63 -126 -145.5t-159 -168.5q66 -6 133 -6zM1112 914q4 13 16 15t25 -3t23 -16.5t10 -25.5q0 -16 -18.5 -34.5t-43 -34.5t-47.5 -27.5t-32 -14.5q-14 -3 -22.5 0.5t-12.5 9.5t-4.5 12t2.5 8q16 14 33 30t32 31.5
t25.5 28.5t13.5 21zM684 94q5 29 12.5 60.5t18.5 64.5q-38 1 -77 5t-77 11q37 -38 68.5 -75t54.5 -66z" />
    <glyph glyph-name="Abreve" unicode="&#x102;" 
d="M924 317q-4 -10 -11.5 -22.5t-19 -25t-28 -23.5t-37.5 -17q-17 -49 -30.5 -94t-22.5 -82.5t-11.5 -66t2.5 -43.5q1 -13 3.5 -18t5.5 -6t6 -0.5t5 -1.5q4 -4 1.5 -15.5t-21.5 -14.5q-8 0 -20 6t-24 18.5t-22 31t-16 42.5q-5 2 -5 5q-9 16 -26.5 40.5t-41.5 53.5t-53 60.5
t-61 62.5q-57 -53 -113.5 -100t-109 -83t-99.5 -58t-84 -25q-21 -2 -42.5 4t-39 17.5t-28.5 28.5t-11 37q0 23 7.5 26t13.5 -3q0 -5 2.5 -10t19.5 -12q37 -1 84 19.5t99.5 54.5t107.5 77.5t108 89.5q-83 24 -143 50t-80 38h-1q-8 5 -9 20t8 32q13 28 36 34.5t62 0.5
q31 -7 71 -32.5t84 -62.5q13 -3 26 -5.5t27 -4.5l27 25q61 54 112 105.5t98.5 101.5t94.5 100.5t100 103.5q4 3 15.5 1.5t22.5 -6.5t18 -13t3 -19q0 -1 -1 -1q15 -6 27.5 -19.5t8.5 -21.5q-14 -28 -32 -68.5t-39 -89.5t-43 -104t-43 -110q22 3 40 9q7 4 13.5 7.5t10 3
t3.5 -6.5t-5 -21zM751 318q35 89 76.5 173t75.5 147q-52 -63 -126 -145.5t-159 -168.5q66 -6 133 -6zM1001 905q-5 -8 -11.5 -8t-6.5 -6q1 -17 14.5 -26.5t34.5 -14.5q9 -2 21.5 -3t25 2t22.5 11.5t13 26.5q1 9 4 11.5t6 0.5t5.5 -6.5t2.5 -8.5q2 -9 1.5 -23.5t-6.5 -30
t-17.5 -29t-32.5 -19.5q-8 -3 -26 -2.5t-38.5 6.5t-39 19.5t-26.5 37.5q-8 21 0.5 39t17.5 29q4 6 12 9t15 2.5t10.5 -4.5t-1.5 -13zM684 94q5 29 12.5 60.5t18.5 64.5q-38 1 -77 5t-77 11q37 -38 68.5 -75t54.5 -66z" />
    <glyph glyph-name="Acircumflex" unicode="&#xc2;" 
d="M924 317q-4 -10 -11.5 -22.5t-19 -25t-28 -23.5t-37.5 -17q-17 -49 -30.5 -94t-22.5 -82.5t-11.5 -66t2.5 -43.5q1 -13 3.5 -18t5.5 -6t6 -0.5t5 -1.5q4 -4 1.5 -15.5t-21.5 -14.5q-8 0 -20 6t-24 18.5t-22 31t-16 42.5q-5 2 -5 5q-9 16 -26.5 40.5t-41.5 53.5t-53 60.5
t-61 62.5q-57 -53 -113.5 -100t-109 -83t-99.5 -58t-84 -25q-21 -2 -42.5 4t-39 17.5t-28.5 28.5t-11 37q0 23 7.5 26t13.5 -3q0 -5 2.5 -10t19.5 -12q37 -1 84 19.5t99.5 54.5t107.5 77.5t108 89.5q-83 24 -143 50t-80 38h-1q-8 5 -9 20t8 32q13 28 36 34.5t62 0.5
q31 -7 71 -32.5t84 -62.5q13 -3 26 -5.5t27 -4.5l27 25q61 54 112 105.5t98.5 101.5t94.5 100.5t100 103.5q4 3 15.5 1.5t22.5 -6.5t18 -13t3 -19q0 -1 -1 -1q15 -6 27.5 -19.5t8.5 -21.5q-14 -28 -32 -68.5t-39 -89.5t-43 -104t-43 -110q22 3 40 9q7 4 13.5 7.5t10 3
t3.5 -6.5t-5 -21zM751 318q35 89 76.5 173t75.5 147q-52 -63 -126 -145.5t-159 -168.5q66 -6 133 -6zM892 824q0 1 13 12.5t32.5 25t41.5 24.5t39 12q7 0 21 -12.5t27 -28.5t20.5 -30.5t2.5 -17.5q-1 -2 -7 -3t-14.5 -1t-17 0.5t-14.5 2.5q-2 1 -9.5 6.5t-25.5 30.5
q-15 -12 -25 -18t-16.5 -9t-9.5 -3.5l-3 -0.5q-5 -1 -14.5 -0.5t-18.5 2t-15.5 3.5t-6.5 5zM684 94q5 29 12.5 60.5t18.5 64.5q-38 1 -77 5t-77 11q37 -38 68.5 -75t54.5 -66z" />
    <glyph glyph-name="Adieresis" unicode="&#xc4;" 
d="M924 317q-4 -10 -11.5 -22.5t-19 -25t-28 -23.5t-37.5 -17q-17 -49 -30.5 -94t-22.5 -82.5t-11.5 -66t2.5 -43.5q1 -13 3.5 -18t5.5 -6t6 -0.5t5 -1.5q4 -4 1.5 -15.5t-21.5 -14.5q-8 0 -20 6t-24 18.5t-22 31t-16 42.5q-5 2 -5 5q-9 16 -26.5 40.5t-41.5 53.5t-53 60.5
t-61 62.5q-57 -53 -113.5 -100t-109 -83t-99.5 -58t-84 -25q-21 -2 -42.5 4t-39 17.5t-28.5 28.5t-11 37q0 23 7.5 26t13.5 -3q0 -5 2.5 -10t19.5 -12q37 -1 84 19.5t99.5 54.5t107.5 77.5t108 89.5q-83 24 -143 50t-80 38h-1q-8 5 -9 20t8 32q13 28 36 34.5t62 0.5
q31 -7 71 -32.5t84 -62.5q13 -3 26 -5.5t27 -4.5l27 25q61 54 112 105.5t98.5 101.5t94.5 100.5t100 103.5q4 3 15.5 1.5t22.5 -6.5t18 -13t3 -19q0 -1 -1 -1q15 -6 27.5 -19.5t8.5 -21.5q-14 -28 -32 -68.5t-39 -89.5t-43 -104t-43 -110q22 3 40 9q7 4 13.5 7.5t10 3
t3.5 -6.5t-5 -21zM751 318q35 89 76.5 173t75.5 147q-52 -63 -126 -145.5t-159 -168.5q66 -6 133 -6zM684 94q5 29 12.5 60.5t18.5 64.5q-38 1 -77 5t-77 11q37 -38 68.5 -75t54.5 -66zM942 900q30 5 48 -6.5t20 -20.5q2 -11 -7 -29.5t-35 -31.5q-16 -5 -25 -4
q-10 1 -19 6.5t-12 22.5q-5 22 5.5 40.5t24.5 22.5zM1102 880q30 5 48 -6.5t20 -20.5q2 -11 -7 -29.5t-35 -31.5q-16 -5 -25 -4q-10 1 -19 6.5t-12 22.5q-5 22 5.5 40.5t24.5 22.5z" />
    <glyph glyph-name="Agrave" unicode="&#xc0;" 
d="M680 14q-5 50 11 117t42.5 140.5t61 148t67 138t59 111.5t39.5 69q8 5 19 1.5t21 -11t16 -16.5t3 -15q-19 -39 -47.5 -103.5t-59 -140.5t-60.5 -156t-51.5 -151t-32 -125t-2.5 -78q1 -13 3.5 -18t5.5 -6t6 -0.5t5 -1.5q4 -4 1.5 -15.5t-21.5 -14.5q-9 0 -23 8t-27 24.5
t-23.5 40t-12.5 54.5zM91 -59q-21 -2 -42.5 4t-39 17.5t-28.5 28.5t-11 37q0 23 7.5 26t13.5 -3q0 -5 2.5 -10t19.5 -12q31 -1 71 15t85 43.5t93 63t96 74.5t94 78.5t87 74.5q60 51 108 99.5t92 97.5t88.5 98.5t97.5 102.5q4 3 15.5 1.5t22.5 -6.5t18 -13t3 -19
q-16 -22 -52.5 -66.5t-88 -104t-114.5 -127.5t-131.5 -137t-139 -132.5t-137 -114t-125.5 -81.5t-105 -35zM285 445q33 -7 76.5 -35.5t90.5 -69.5t93 -88t84 -91t64 -78.5t32 -50.5q0 -25 -7 -36t-15.5 -13.5t-15.5 1t-8 6.5q-12 24 -43 64.5t-73 85.5t-90.5 90t-96 78.5
t-90 51t-71.5 7.5q-12 -10 -20 -9.5t-12 7.5t-3.5 19t7.5 26q13 28 36 34.5t62 0.5zM924 317q-4 -12 -13.5 -27t-25 -29t-38 -24.5t-52.5 -13.5q-63 -7 -128.5 -1.5t-128.5 17.5t-120.5 29t-103.5 34.5t-79 32.5t-46 23q-7 15 -0.5 27t17.5 20.5t20.5 13t8.5 5.5
q17 -20 89 -44.5t197 -43.5q46 -7 100 -11.5t106 -5.5t98 2.5t77 12.5q7 4 13.5 7.5t10 3t3.5 -6.5t-5 -21zM982 972q13 0 15.5 -5t-2.5 -10q-4 -4 -2 -18t7.5 -32t14 -35.5t18.5 -27.5q-2 -10 -6 -14q-4 -5 -12.5 -8.5t-23.5 -1.5q-9 1 -23 13t-26.5 28.5t-22 35t-9.5 33.5
q0 6 6 13t16 13.5t23 11t27 4.5z" />
    <glyph glyph-name="Aogonek" unicode="&#x104;" 
d="M924 317q-4 -10 -11.5 -22.5t-19 -25t-28 -23.5t-37.5 -17q-17 -49 -30.5 -94t-22.5 -82.5t-11.5 -66t2.5 -43.5q1 -13 3.5 -18t5.5 -6t6 -0.5t5 -1.5q4 -4 1.5 -15.5t-21.5 -14.5q-11 0 -28 11t-31 34q-19 -12 -36.5 -26.5t-28.5 -29.5t-13 -29.5t10 -26.5
q3 -5 17 -10.5t33.5 -7.5t42 1.5t42.5 17.5q16 11 22.5 12.5t7 -3t-2.5 -12.5t-7 -14q-9 -16 -22 -31.5t-29.5 -26t-38.5 -13.5t-49 7q-12 3 -29.5 23t-29.5 47.5t-13 59t19 56.5q18 20 41 32t44 15l-3 12q-5 2 -5 5q-9 16 -26.5 40.5t-41.5 53.5t-53 60.5t-61 62.5
q-57 -53 -113.5 -100t-109 -83t-99.5 -58t-84 -25q-21 -2 -42.5 4t-39 17.5t-28.5 28.5t-11 37q0 23 7.5 26t13.5 -3q0 -5 2.5 -10t19.5 -12q37 -1 84 19.5t99.5 54.5t107.5 77.5t108 89.5q-83 24 -143 50t-80 38h-1q-8 5 -9 20t8 32q13 28 36 34.5t62 0.5q31 -7 71 -32.5
t84 -62.5q13 -3 26 -5.5t27 -4.5l27 25q61 54 112 105.5t98.5 101.5t94.5 100.5t100 103.5q4 3 15.5 1.5t22.5 -6.5t18 -13t3 -19q0 -1 -1 -1q15 -6 27.5 -19.5t8.5 -21.5q-14 -28 -32 -68.5t-39 -89.5t-43 -104t-43 -110q22 3 40 9q7 4 13.5 7.5t10 3t3.5 -6.5t-5 -21z
M751 318q35 89 76.5 173t75.5 147q-52 -63 -126 -145.5t-159 -168.5q66 -6 133 -6zM684 94q5 29 12.5 60.5t18.5 64.5q-38 1 -77 5t-77 11q37 -38 68.5 -75t54.5 -66z" />
    <glyph glyph-name="Aring" unicode="&#xc5;" 
d="M680 14q-5 50 11 117t42.5 140.5t61 148t67 138t59 111.5t39.5 69q8 5 19 1.5t21 -11t16 -16.5t3 -15q-19 -39 -47.5 -103.5t-59 -140.5t-60.5 -156t-51.5 -151t-32 -125t-2.5 -78q1 -13 3.5 -18t5.5 -6t6 -0.5t5 -1.5q4 -4 1.5 -15.5t-21.5 -14.5q-9 0 -23 8t-27 24.5
t-23.5 40t-12.5 54.5zM91 -59q-21 -2 -42.5 4t-39 17.5t-28.5 28.5t-11 37q0 23 7.5 26t13.5 -3q0 -5 2.5 -10t19.5 -12q47 -1 109.5 31.5t131 82t137.5 109t129 113.5q61 54 112 105.5t98.5 101.5t94.5 100.5t100 103.5q4 3 15.5 1.5t22.5 -6.5t18 -13t3 -19
q-16 -22 -52.5 -66.5t-88 -104t-114.5 -127.5t-131.5 -137t-139 -132.5t-137 -114t-125.5 -81.5t-105 -35zM285 445q33 -7 76.5 -35.5t90.5 -69.5t93 -88t84 -91t64 -78.5t32 -50.5q0 -25 -7 -36t-15.5 -13.5t-15.5 1t-8 6.5q-12 24 -43 64.5t-73 85.5t-90.5 90t-96 78.5
t-90 51t-71.5 7.5q-12 -10 -20 -9.5t-12 7.5t-3.5 19t7.5 26q13 28 36 34.5t62 0.5zM924 317q-4 -12 -13.5 -27t-25 -29t-38 -24.5t-52.5 -13.5q-63 -7 -128.5 -1.5t-128.5 17.5t-120.5 29t-103.5 34.5t-79 32.5t-46 23q-7 15 -0.5 27t17.5 20.5t20.5 13t8.5 5.5
q17 -20 89 -44.5t197 -43.5q46 -7 100 -11.5t106 -5.5t98 2.5t77 12.5q7 4 13.5 7.5t10 3t3.5 -6.5t-5 -21zM1088 775q2 -6 1 -15.5t-5 -18.5t-11 -16.5t-17 -10.5q-19 -6 -43.5 -3.5t-47 11t-39.5 22t-22 30.5q-3 9 -1 20t7 21.5t12.5 18t16.5 9.5q18 5 41.5 2t45.5 -12
t39.5 -24t22.5 -34zM940 791q3 -10 20 -18t36.5 -12t35.5 -3.5t17 7.5q1 8 -8 17t-23 15.5t-31 9t-32 -1.5q-20 -5 -15 -14z" />
    <glyph glyph-name="Atilde" unicode="&#xc3;" 
d="M974 881q15 -2 34.5 -7.5t52.5 -15.5q29 -5 42.5 0.5t24.5 5.5q6 0 3 -12t-13 -25.5t-26 -25t-35 -10.5q-18 1 -33 4.5t-28 8t-23.5 8.5t-20.5 6q-21 3 -31 -2t-17 -5q-11 0 -8 12.5t14.5 26.5t29 24.5t34.5 6.5zM924 317q-4 -10 -11.5 -22.5t-19 -25t-28 -23.5
t-37.5 -17q-17 -49 -30.5 -94t-22.5 -82.5t-11.5 -66t2.5 -43.5q1 -13 3.5 -18t5.5 -6t6 -0.5t5 -1.5q4 -4 1.5 -15.5t-21.5 -14.5q-8 0 -20 6t-24 18.5t-22 31t-16 42.5q-5 2 -5 5q-9 16 -26.5 40.5t-41.5 53.5t-53 60.5t-61 62.5q-57 -53 -113.5 -100t-109 -83t-99.5 -58
t-84 -25q-21 -2 -42.5 4t-39 17.5t-28.5 28.5t-11 37q0 23 7.5 26t13.5 -3q0 -5 2.5 -10t19.5 -12q37 -1 84 19.5t99.5 54.5t107.5 77.5t108 89.5q-83 24 -143 50t-80 38h-1q-8 5 -9 20t8 32q13 28 36 34.5t62 0.5q31 -7 71 -32.5t84 -62.5q13 -3 26 -5.5t27 -4.5l27 25
q61 54 112 105.5t98.5 101.5t94.5 100.5t100 103.5q4 3 15.5 1.5t22.5 -6.5t18 -13t3 -19q0 -1 -1 -1q15 -6 27.5 -19.5t8.5 -21.5q-14 -28 -32 -68.5t-39 -89.5t-43 -104t-43 -110q22 3 40 9q7 4 13.5 7.5t10 3t3.5 -6.5t-5 -21zM751 318q35 89 76.5 173t75.5 147
q-52 -63 -126 -145.5t-159 -168.5q66 -6 133 -6zM684 94q5 29 12.5 60.5t18.5 64.5q-38 1 -77 5t-77 11q37 -38 68.5 -75t54.5 -66z" />
    <glyph glyph-name="B" unicode="B" horiz-adv-x="671" 
d="M509 542q-6 -6 -18 -20t-28 -34.5t-35 -46.5t-39 -56q14 -1 28 -2.5t28 -4.5q37 12 74.5 32t68 45t51.5 52.5t27 53.5q7 33 -16 56t-65.5 35.5t-99.5 14t-118 -7.5t-120.5 -28.5t-107.5 -50.5q-21 -13 -39.5 -31.5t-28 -36.5t-5.5 -31.5t29 -17.5q13 -2 33 2t39.5 10.5
t36 15t24.5 16.5q7 8 11.5 0t-3.5 -29q-6 -16 -17 -33.5t-26.5 -32t-35.5 -24t-45 -9.5q-32 1 -55 15t-36.5 35.5t-18 49t0.5 54.5q10 46 42.5 84t80.5 66t106.5 46t120 24.5t121.5 1t110 -23.5q39 -14 66.5 -38.5t45.5 -53t27 -56t10 -46.5q1 -24 -9.5 -54t-31.5 -59.5
t-52.5 -56t-74.5 -42.5q26 -19 45 -41.5t25 -47.5q10 -55 -12.5 -105t-68 -93t-108.5 -78t-133.5 -58.5t-144 -34.5t-138.5 -7q-24 1 -53 7t-54 16.5t-41.5 26t-13.5 35.5q4 19 12.5 22t10.5 -2v-4.5t1.5 -5t6.5 -5.5t16 -4q53 -9 120 -2t138 27q-8 2 -17.5 7t-17.5 14
t-12 25t-5.5 35t0 39t6.5 38q15 58 47.5 124.5t74.5 131t89 122t92 98.5q18 7 34.5 -0.5t28 -20t16.5 -25.5t0 -17zM489 302q-74 -17 -167 -17q-28 -44 -54 -88t-45 -83t-29.5 -69.5t-8.5 -47.5q12 -12 10 -20q70 21 135.5 52.5t114 70t75 81.5t18.5 87q-5 12 -18 20.5
t-31 13.5z" />
    <glyph glyph-name="B.01" unicode="&#xe000;" horiz-adv-x="652" 
d="M301 315q-14 -24 -34 -62t-38 -77.5t-31 -74.5t-13 -51q3 -14 -3 -19.5t-16 -5.5t-21.5 4t-18.5 9q-20 15 -26 33.5t-5 41.5q1 32 20 77.5t49.5 95.5t69 101.5t78 96.5t77.5 79t68 50q20 -2 30.5 -14.5t15 -27t4 -26.5t-2.5 -12q-15 -11 -31 -23.5t-33 -30t-37.5 -40.5
t-44.5 -53q34 6 79.5 20.5t88.5 37.5t77.5 54.5t46.5 70.5q10 31 -8 52.5t-54 34t-85 16.5t-102.5 0t-106.5 -15.5t-96 -30.5t-72 -44.5t-34 -56.5q15 -21 39.5 -27t50.5 -2t50 14.5t38 23.5q8 7 13.5 2.5t3 -18.5t-14.5 -35t-39 -45q-42 -29 -75 -36.5t-58 0.5t-41.5 28
t-25.5 45t-11 51.5t4 47.5q10 41 43 75t80 59.5t103.5 40.5t115 19.5t114.5 -3t101 -27.5q37 -17 61.5 -42.5t39 -53t20.5 -54t5 -45.5q-2 -39 -26 -81t-73.5 -75.5t-126 -54t-182.5 -17.5zM456 346q32 -14 57 -30t42.5 -35.5t28.5 -44.5t15 -56q4 -35 -12 -70.5t-46.5 -68
t-72 -60.5t-87.5 -49.5t-94 -34t-91 -14t-78.5 9.5t-56.5 38q-23 29 -17.5 60t29.5 49q13 9 24.5 8.5t3.5 -13.5q-5 -8 -9 -13.5t-5.5 -10t1 -8t12.5 -6.5q44 -14 92 -9.5t94.5 22t89 44.5t74.5 57t51.5 60.5t20.5 55.5q-1 18 -12.5 34.5t-32.5 30t-51.5 21t-69.5 7.5z" />
    <glyph glyph-name="C" unicode="C" horiz-adv-x="610" 
d="M543 432q-9 -5 -27.5 -9t-36 -3t-27 8t0.5 24q16 -1 32 13t29.5 35.5t24 46.5t17 46.5t8 36.5t-3.5 16q-29 3 -77 -14.5t-102 -57t-106.5 -101.5t-91.5 -147q-26 -57 -40 -106t-15 -87.5t11.5 -65.5t40.5 -39q32 -13 81 1t102.5 43.5t105.5 68t90 74.5q21 18 28.5 18.5
t7 -9t-7.5 -26.5t-16.5 -34.5t-18 -33t-12.5 -22.5q-23 -37 -62.5 -77.5t-87.5 -69.5t-101.5 -39t-105.5 13q-26 12 -51.5 32t-48 48.5t-39 67t-24.5 87.5q-7 68 13.5 137t58.5 133.5t90 120.5t109.5 97t115.5 64t109 21q32 -2 58 -14.5t44.5 -31t28.5 -39.5t11 -40
q0 -29 -10 -57.5t-26.5 -54t-37 -45t-41.5 -29.5z" />
    <glyph glyph-name="nonmarkingreturn" unicode="&#xd;" horiz-adv-x="500" 
 />
    <glyph glyph-name="Cacute" unicode="&#x106;" horiz-adv-x="610" 
d="M543 432q-9 -5 -27.5 -9t-36 -3t-27 8t0.5 24q16 -1 32 13t29.5 35.5t24 46.5t17 46.5t8 36.5t-3.5 16q-29 3 -77 -14.5t-102 -57t-106.5 -101.5t-91.5 -147q-26 -57 -40 -106t-15 -87.5t11.5 -65.5t40.5 -39q32 -13 81 1t102.5 43.5t105.5 68t90 74.5q21 18 28.5 18.5
t7 -9t-7.5 -26.5t-16.5 -34.5t-18 -33t-12.5 -22.5q-23 -37 -62.5 -77.5t-87.5 -69.5t-101.5 -39t-105.5 13q-26 12 -51.5 32t-48 48.5t-39 67t-24.5 87.5q-7 68 13.5 137t58.5 133.5t90 120.5t109.5 97t115.5 64t109 21q32 -2 58 -14.5t44.5 -31t28.5 -39.5t11 -40
q0 -29 -10 -57.5t-26.5 -54t-37 -45t-41.5 -29.5zM684 910q4 13 16 15t25 -3t23 -16.5t10 -25.5q0 -16 -18.5 -34.5t-43 -34.5t-47.5 -27.5t-32 -14.5q-14 -3 -22.5 0.5t-12.5 9.5t-4.5 12t2.5 8q16 14 33 30t32 31.5t25.5 28.5t13.5 21z" />
    <glyph glyph-name="Ccaron" unicode="&#x10c;" horiz-adv-x="610" 
d="M543 432q-9 -5 -27.5 -9t-36 -3t-27 8t0.5 24q16 -1 32 13t29.5 35.5t24 46.5t17 46.5t8 36.5t-3.5 16q-29 3 -77 -14.5t-102 -57t-106.5 -101.5t-91.5 -147q-26 -57 -40 -106t-15 -87.5t11.5 -65.5t40.5 -39q32 -13 81 1t102.5 43.5t105.5 68t90 74.5q21 18 28.5 18.5
t7 -9t-7.5 -26.5t-16.5 -34.5t-18 -33t-12.5 -22.5q-23 -37 -62.5 -77.5t-87.5 -69.5t-101.5 -39t-105.5 13q-26 12 -51.5 32t-48 48.5t-39 67t-24.5 87.5q-7 68 13.5 137t58.5 133.5t90 120.5t109.5 97t115.5 64t109 21q32 -2 58 -14.5t44.5 -31t28.5 -39.5t11 -40
q0 -29 -10 -57.5t-26.5 -54t-37 -45t-41.5 -29.5zM671 868q0 -3 -13 -16.5t-32 -28t-40.5 -25.5t-38.5 -8q-10 -2 -22.5 9t-24 26.5t-19 30.5t-7.5 21q0 2 6 3.5t14.5 2t17.5 0t14 -2.5l37 -32q14 12 24 17.5t16 7.5t9 2.5t4 0.5q5 1 14.5 1t18.5 -1.5t15.5 -3.5t6.5 -4z
" />
    <glyph glyph-name="Ccedilla" unicode="&#xc7;" horiz-adv-x="610" 
d="M218 -61l-19 -29q17 1 33.5 -3.5t27.5 -11.5q14 -9 21 -21t10 -24t2 -23t-2 -19q-3 -12 -14 -22.5t-27.5 -17.5t-36 -10.5t-38.5 -2.5q-24 1 -42.5 14.5t-24.5 35.5q-2 8 -1.5 18t4.5 15q5 9 5.5 4t0.5 -10q0 -11 8.5 -16.5t20 -8t23.5 -2.5t20 1q7 1 19.5 3.5t23.5 7
t19.5 9.5t8.5 11q0 12 -13 15.5t-29 3t-31 -2.5t-19 -1q-7 4 -17 14.5t-6 23.5q1 5 6 14t12.5 19t16.5 20t19 18zM543 432q-9 -5 -27.5 -9t-36 -3t-27 8t0.5 24q16 -1 32 13t29.5 35.5t24 46.5t17 46.5t8 36.5t-3.5 16q-29 3 -77 -14.5t-102 -57t-106.5 -101.5t-91.5 -147
q-26 -57 -40 -106t-15 -87.5t11.5 -65.5t40.5 -39q32 -13 81 1t102.5 43.5t105.5 68t90 74.5q21 18 28.5 18.5t7 -9t-7.5 -26.5t-16.5 -34.5t-18 -33t-12.5 -22.5q-23 -37 -62.5 -77.5t-87.5 -69.5t-101.5 -39t-105.5 13q-26 12 -51.5 32t-48 48.5t-39 67t-24.5 87.5
q-7 68 13.5 137t58.5 133.5t90 120.5t109.5 97t115.5 64t109 21q32 -2 58 -14.5t44.5 -31t28.5 -39.5t11 -40q0 -29 -10 -57.5t-26.5 -54t-37 -45t-41.5 -29.5z" />
    <glyph glyph-name="D" unicode="D" horiz-adv-x="778" 
d="M819 361q-15 -62 -52 -119.5t-89 -107.5t-114.5 -92t-128.5 -73t-133 -49.5t-126 -21.5q-24 -2 -53.5 1.5t-55.5 11.5t-43 22.5t-16 35.5q1 18 9 22.5t11 -1.5q1 -2 1 -4.5t1.5 -5t6 -4.5t15.5 -3q39 -2 89 7t105 28q-17 0 -32 12q-19 14 -25 36.5t-8 48.5
q-2 34 10.5 77.5t35 92t52.5 100t63.5 101.5t68 96t66.5 83q-44 1 -89.5 -2t-88.5 -10t-81 -18t-66 -26q-20 -11 -42 -27.5t-33 -34t-5 -33t42 -22.5q17 -3 36.5 -1t38.5 7.5t35 13.5t26 17q8 7 13.5 2.5t3 -18.5t-14.5 -35t-39 -45q-42 -29 -75 -36t-57 1.5t-40 29t-24 46
t-9.5 52.5t4.5 48q9 44 41 79.5t78 62t103.5 43t116.5 23t117 2.5t106 -18l12 7q19 4 31.5 -0.5t20.5 -12.5t11 -16t2 -12q57 -34 94 -79.5t56.5 -94.5t23.5 -98t-6 -89zM259 42q4 -12 3 -19t-5 -11q65 24 132.5 61t128 83.5t109.5 101.5t78 115q17 36 24.5 73t2 70.5
t-26 62.5t-59.5 50q-25 9 -55 15q-30 -42 -67.5 -99.5t-76 -119.5t-74.5 -124.5t-62.5 -115t-41.5 -91t-10 -52.5z" />
    <glyph glyph-name="Dcaron" unicode="&#x10e;" horiz-adv-x="778" 
d="M819 361q-15 -62 -52 -119.5t-89 -107.5t-114.5 -92t-128.5 -73t-133 -49.5t-126 -21.5q-24 -2 -53.5 1.5t-55.5 11.5t-43 22.5t-16 35.5q1 18 9 22.5t11 -1.5q1 -2 1 -4.5t1.5 -5t6 -4.5t15.5 -3q39 -2 89 7t105 28q-17 0 -32 12q-19 14 -25 36.5t-8 48.5
q-2 34 10.5 77.5t35 92t52.5 100t63.5 101.5t68 96t66.5 83q-44 1 -89.5 -2t-88.5 -10t-81 -18t-66 -26q-20 -11 -42 -27.5t-33 -34t-5 -33t42 -22.5q17 -3 36.5 -1t38.5 7.5t35 13.5t26 17q8 7 13.5 2.5t3 -18.5t-14.5 -35t-39 -45q-42 -29 -75 -36t-57 1.5t-40 29t-24 46
t-9.5 52.5t4.5 48q9 44 41 79.5t78 62t103.5 43t116.5 23t117 2.5t106 -18l12 7q19 4 31.5 -0.5t20.5 -12.5t11 -16t2 -12q57 -34 94 -79.5t56.5 -94.5t23.5 -98t-6 -89zM259 42q4 -12 3 -19t-5 -11q65 24 132.5 61t128 83.5t109.5 101.5t78 115q17 36 24.5 73t2 70.5
t-26 62.5t-59.5 50q-25 9 -55 15q-30 -42 -67.5 -99.5t-76 -119.5t-74.5 -124.5t-62.5 -115t-41.5 -91t-10 -52.5zM780 878q0 -3 -13 -16.5t-32 -28t-40.5 -25.5t-38.5 -8q-10 -2 -22.5 9t-24 26.5t-19 30.5t-7.5 21q0 2 6 3.5t14.5 2t17.5 0t14 -2.5l37 -32q14 12 24 17.5
t16 7.5t9 2.5t4 0.5q5 1 14.5 1t18.5 -1.5t15.5 -3.5t6.5 -4z" />
    <glyph glyph-name="Dcroat" unicode="&#x110;" horiz-adv-x="778" 
d="M819 361q-15 -62 -52 -119.5t-89 -107.5t-114.5 -92t-128.5 -73t-133 -49.5t-126 -21.5q-24 -2 -53.5 1.5t-55.5 11.5t-43 22.5t-16 35.5q1 18 9 22.5t11 -1.5q1 -2 1 -4.5t1.5 -5t6 -4.5t15.5 -3q39 -2 89 7t105 28q-17 0 -32 12q-19 14 -25 36.5t-8 48.5q-2 16 1 34.5
t8 38.5q-31 -7 -56 -8.5t-41 5.5q-10 4 -14 18.5t-5 30t1 27t5 10.5q5 -3 20 0.5t37 11t49.5 17.5t56.5 20q23 45 52 92t59.5 92t62 86t60.5 75q-44 1 -89.5 -2t-88.5 -10t-81 -18t-66 -26q-20 -11 -42 -27.5t-33 -34t-5 -33t42 -22.5q17 -3 36.5 -1t38.5 7.5t35 13.5t26 17
q8 7 13.5 2.5t3 -18.5t-14.5 -35t-39 -45q-42 -29 -75 -36t-57 1.5t-40 29t-24 46t-9.5 52.5t4.5 48q9 44 41 79.5t78 62t103.5 43t116.5 23t117 2.5t106 -18l12 7q19 4 31.5 -0.5t20.5 -12.5t11 -16t2 -12q57 -34 94 -79.5t56.5 -94.5t23.5 -98t-6 -89zM259 42q4 -12 3 -19
t-5 -11q65 24 132.5 61t128 83.5t109.5 101.5t78 115q17 36 24.5 73t2 70.5t-26 62.5t-59.5 50q-25 9 -55 15q-20 -29 -44 -64t-49 -74.5t-51 -81t-51 -83.5q11 -1 21.5 -2.5t18.5 -5.5q36 -17 54 -48.5t14 -67.5q-1 -7 -3.5 -13.5t-5 -10.5t-5.5 -5.5t-4 2.5q-1 2 -0.5 10
t-0.5 19q-20 18 -64 12.5t-97 -19.5q-32 -62 -51 -108t-14 -62z" />
    <glyph glyph-name="E" unicode="E" horiz-adv-x="605" 
d="M13 144q3 49 26.5 90t60 73t83.5 56t96 39q-18 27 -23.5 58.5t-1.5 63.5t16 61.5t29 51.5q36 45 82 70.5t94 36t93 10t77 -6.5q29 -6 51.5 -20.5t36 -35.5t16 -48t-9.5 -59q-4 -9 -15.5 -13.5t-25 -5t-25.5 3.5t-18 12q3 10 11 15.5t14.5 10t8.5 8.5t-7 10
q-26 17 -66.5 18t-85 -9.5t-87 -30t-71.5 -45t-39.5 -54t8.5 -56.5q5 -8 14.5 -14t20.5 -11q20 3 39.5 4t37.5 0q26 -1 47.5 -11.5t36 -25t19.5 -31t-1 -29.5q-54 2 -113.5 -8.5t-115 -30.5t-103 -48t-79 -59.5t-42 -65t8.5 -64.5q17 -22 47.5 -29.5t69 -4.5t81.5 15
t84.5 29.5t77 38t60.5 40.5q22 17 29 17t5 -9t-9.5 -22t-12.5 -22q-23 -35 -63 -76t-90.5 -72.5t-107 -45t-113.5 7.5q-21 8 -49 29t-52.5 50.5t-41 66t-13.5 77.5z" />
    <glyph glyph-name="Eacute" unicode="&#xc9;" horiz-adv-x="605" 
d="M413 365l-28 -29q-63 13 -93.5 50t-37 82t6.5 91t38 78q36 45 82 70.5t94 36t93 10t77 -6.5q29 -6 51.5 -20.5t36 -35.5t16 -48t-9.5 -59q-4 -9 -15.5 -13.5t-25 -5t-25.5 3.5t-18 12q3 10 11 15.5t14.5 10t8.5 8.5t-7 10q-26 17 -66.5 18t-85 -9.5t-87 -30t-71.5 -45
t-39.5 -54t8.5 -56.5q7 -11 21.5 -18.5t30.5 -12t32 -7.5t27 -4zM13 144q2 48 25 88.5t59 72.5t81.5 56t93.5 39t95 22t86 5q26 -1 47.5 -11.5t36 -25t19.5 -31t-1 -29.5q-54 2 -113.5 -8.5t-115 -30.5t-103 -48t-79 -59.5t-42 -65t8.5 -64.5q17 -22 47.5 -29.5t69 -4.5
t81.5 15t84.5 29.5t77 38t60.5 40.5q22 17 29 17t5 -9t-9.5 -22t-12.5 -22q-23 -35 -63 -76t-90.5 -72.5t-107 -45t-113.5 7.5q-21 8 -49 29t-52.5 50.5t-41 66t-13.5 77.5zM697 926q4 13 16 15t25 -3t23 -16.5t10 -25.5q0 -16 -18.5 -34.5t-43 -34.5t-47.5 -27.5t-32 -14.5
q-14 -3 -22.5 0.5t-12.5 9.5t-4.5 12t2.5 8q16 14 33 30t32 31.5t25.5 28.5t13.5 21z" />
    <glyph glyph-name="Ecaron" unicode="&#x11a;" horiz-adv-x="605" 
d="M413 365l-28 -29q-63 13 -93.5 50t-37 82t6.5 91t38 78q36 45 82 70.5t94 36t93 10t77 -6.5q29 -6 51.5 -20.5t36 -35.5t16 -48t-9.5 -59q-4 -9 -15.5 -13.5t-25 -5t-25.5 3.5t-18 12q3 10 11 15.5t14.5 10t8.5 8.5t-7 10q-26 17 -66.5 18t-85 -9.5t-87 -30t-71.5 -45
t-39.5 -54t8.5 -56.5q7 -11 21.5 -18.5t30.5 -12t32 -7.5t27 -4zM13 144q2 48 25 88.5t59 72.5t81.5 56t93.5 39t95 22t86 5q26 -1 47.5 -11.5t36 -25t19.5 -31t-1 -29.5q-54 2 -113.5 -8.5t-115 -30.5t-103 -48t-79 -59.5t-42 -65t8.5 -64.5q17 -22 47.5 -29.5t69 -4.5
t81.5 15t84.5 29.5t77 38t60.5 40.5q22 17 29 17t5 -9t-9.5 -22t-12.5 -22q-23 -35 -63 -76t-90.5 -72.5t-107 -45t-113.5 7.5q-21 8 -49 29t-52.5 50.5t-41 66t-13.5 77.5zM743 873q0 -3 -13 -16.5t-32 -28t-40.5 -25.5t-38.5 -8q-10 -2 -22.5 9t-24 26.5t-19 30.5t-7.5 21
q0 2 6 3.5t14.5 2t17.5 0t14 -2.5l37 -32q14 12 24 17.5t16 7.5t9 2.5t4 0.5q5 1 14.5 1t18.5 -1.5t15.5 -3.5t6.5 -4z" />
    <glyph glyph-name="Ecircumflex" unicode="&#xca;" horiz-adv-x="605" 
d="M13 144q3 49 26.5 90t60 73t83.5 56t96 39q-18 27 -23.5 58.5t-1.5 63.5t16 61.5t29 51.5q36 45 82 70.5t94 36t93 10t77 -6.5q29 -6 51.5 -20.5t36 -35.5t16 -48t-9.5 -59q-4 -9 -15.5 -13.5t-25 -5t-25.5 3.5t-18 12q3 10 11 15.5t14.5 10t8.5 8.5t-7 10
q-26 17 -66.5 18t-85 -9.5t-87 -30t-71.5 -45t-39.5 -54t8.5 -56.5q5 -8 14.5 -14t20.5 -11q20 3 39.5 4t37.5 0q26 -1 47.5 -11.5t36 -25t19.5 -31t-1 -29.5q-54 2 -113.5 -8.5t-115 -30.5t-103 -48t-79 -59.5t-42 -65t8.5 -64.5q17 -22 47.5 -29.5t69 -4.5t81.5 15
t84.5 29.5t77 38t60.5 40.5q22 17 29 17t5 -9t-9.5 -22t-12.5 -22q-23 -35 -63 -76t-90.5 -72.5t-107 -45t-113.5 7.5q-21 8 -49 29t-52.5 50.5t-41 66t-13.5 77.5zM530 830q0 1 13 12.5t32.5 25t41.5 24.5t39 12q7 0 21 -12.5t27 -28.5t20.5 -30.5t2.5 -17.5q-1 -2 -7 -3
t-14.5 -1t-17 0.5t-14.5 2.5q-2 1 -9.5 6.5t-25.5 30.5q-15 -12 -25 -18t-16.5 -9t-9.5 -3.5l-3 -0.5q-5 -1 -14.5 -0.5t-18.5 2t-15.5 3.5t-6.5 5z" />
    <glyph glyph-name="Edieresis" unicode="&#xcb;" horiz-adv-x="605" 
d="M413 365l-28 -29q-63 13 -93.5 50t-37 82t6.5 91t38 78q36 45 82 70.5t94 36t93 10t77 -6.5q29 -6 51.5 -20.5t36 -35.5t16 -48t-9.5 -59q-4 -9 -15.5 -13.5t-25 -5t-25.5 3.5t-18 12q3 10 11 15.5t14.5 10t8.5 8.5t-7 10q-26 17 -66.5 18t-85 -9.5t-87 -30t-71.5 -45
t-39.5 -54t8.5 -56.5q7 -11 21.5 -18.5t30.5 -12t32 -7.5t27 -4zM13 144q2 48 25 88.5t59 72.5t81.5 56t93.5 39t95 22t86 5q26 -1 47.5 -11.5t36 -25t19.5 -31t-1 -29.5q-54 2 -113.5 -8.5t-115 -30.5t-103 -48t-79 -59.5t-42 -65t8.5 -64.5q17 -22 47.5 -29.5t69 -4.5
t81.5 15t84.5 29.5t77 38t60.5 40.5q22 17 29 17t5 -9t-9.5 -22t-12.5 -22q-23 -35 -63 -76t-90.5 -72.5t-107 -45t-113.5 7.5q-21 8 -49 29t-52.5 50.5t-41 66t-13.5 77.5zM578 914q30 5 48 -6.5t20 -20.5q2 -11 -7 -29.5t-35 -31.5q-16 -5 -25 -4q-10 1 -19 6.5t-12 22.5
q-5 22 5.5 40.5t24.5 22.5zM738 894q30 5 48 -6.5t20 -20.5q2 -11 -7 -29.5t-35 -31.5q-16 -5 -25 -4q-10 1 -19 6.5t-12 22.5q-5 22 5.5 40.5t24.5 22.5z" />
    <glyph glyph-name="Egrave" unicode="&#xc8;" horiz-adv-x="605" 
d="M13 144q3 49 26.5 90t60 73t83.5 56t96 39q-18 27 -23.5 58.5t-1.5 63.5t16 61.5t29 51.5q36 45 82 70.5t94 36t93 10t77 -6.5q29 -6 51.5 -20.5t36 -35.5t16 -48t-9.5 -59q-4 -9 -15.5 -13.5t-25 -5t-25.5 3.5t-18 12q3 10 11 15.5t14.5 10t8.5 8.5t-7 10
q-26 17 -66.5 18t-85 -9.5t-87 -30t-71.5 -45t-39.5 -54t8.5 -56.5q5 -8 14.5 -14t20.5 -11q20 3 39.5 4t37.5 0q26 -1 47.5 -11.5t36 -25t19.5 -31t-1 -29.5q-54 2 -113.5 -8.5t-115 -30.5t-103 -48t-79 -59.5t-42 -65t8.5 -64.5q17 -22 47.5 -29.5t69 -4.5t81.5 15
t84.5 29.5t77 38t60.5 40.5q22 17 29 17t5 -9t-9.5 -22t-12.5 -22q-23 -35 -63 -76t-90.5 -72.5t-107 -45t-113.5 7.5q-21 8 -49 29t-52.5 50.5t-41 66t-13.5 77.5zM578 947q13 0 15.5 -5t-2.5 -10q-4 -4 -2 -18t7.5 -32t14 -35.5t18.5 -27.5q-2 -10 -6 -14
q-4 -5 -12.5 -8.5t-23.5 -1.5q-9 1 -23 13t-26.5 28.5t-22 35t-9.5 33.5q0 6 6 13t16 13.5t23 11t27 4.5z" />
    <glyph glyph-name="Eogonek" unicode="&#x118;" horiz-adv-x="605" 
d="M205 -59q-21 -10 -45.5 -26t-41.5 -34.5t-23.5 -36.5t8.5 -33q3 -5 17 -10.5t33.5 -7.5t42 1.5t42.5 17.5q16 11 22.5 12.5t7 -3t-2.5 -12.5t-7 -14q-9 -16 -22 -31.5t-29.5 -26t-38.5 -13.5t-49 7q-12 3 -29.5 23t-29.5 47.5t-13 59t19 56.5q17 18 38.5 30t42 15.5
t36.5 -1.5t22 -20zM13 144q3 49 26.5 90t60 73t83.5 56t96 39q-18 27 -23.5 58.5t-1.5 63.5t16 61.5t29 51.5q36 45 82 70.5t94 36t93 10t77 -6.5q29 -6 51.5 -20.5t36 -35.5t16 -48t-9.5 -59q-4 -9 -15.5 -13.5t-25 -5t-25.5 3.5t-18 12q3 10 11 15.5t14.5 10t8.5 8.5
t-7 10q-26 17 -66.5 18t-85 -9.5t-87 -30t-71.5 -45t-39.5 -54t8.5 -56.5q5 -8 14.5 -14t20.5 -11q20 3 39.5 4t37.5 0q26 -1 47.5 -11.5t36 -25t19.5 -31t-1 -29.5q-54 2 -113.5 -8.5t-115 -30.5t-103 -48t-79 -59.5t-42 -65t8.5 -64.5q17 -22 47.5 -29.5t69 -4.5t81.5 15
t84.5 29.5t77 38t60.5 40.5q22 17 29 17t5 -9t-9.5 -22t-12.5 -22q-23 -35 -63 -76t-90.5 -72.5t-107 -45t-113.5 7.5q-21 8 -49 29t-52.5 50.5t-41 66t-13.5 77.5z" />
    <glyph glyph-name="Eth" unicode="&#xd0;" horiz-adv-x="778" 
d="M192 320q8 1 24 2.5t36 3.5q23 44 51 88.5t57.5 87t59.5 81.5t57 72q-44 1 -89.5 -2t-88.5 -10t-81 -18t-66 -26q-20 -11 -42 -27.5t-33 -34t-5 -33t42 -22.5q17 -3 36.5 -1t38.5 7.5t35 13.5t26 17q8 7 13.5 2.5t3 -18.5t-14.5 -35t-39 -45q-42 -29 -75 -36t-57 1.5
t-40 29t-24 46t-9.5 52.5t4.5 48q9 44 41 79.5t78 62t103.5 43t116.5 23t117 2.5t106 -18l12 7q19 4 31.5 -0.5t20.5 -12.5t11 -16t2 -12q57 -34 94 -79.5t56.5 -94.5t23.5 -98t-6 -89q-15 -62 -52 -119.5t-89 -107.5t-114.5 -92t-128.5 -73t-133 -49.5t-126 -21.5
q-24 -2 -53.5 1.5t-55.5 11.5t-43 22.5t-16 35.5q1 18 9 22.5t11 -1.5q1 -2 1 -4.5t1.5 -5t6 -4.5t15.5 -3q39 -2 89 7t105 28q-17 0 -32 12q-19 14 -25 36.5t-8 48.5q-2 27 6 59.5t22 70.5l-112 1q-22 0 -22 13q0 9 13.5 20.5t32.5 22t38.5 18.5t32.5 10zM259 42
q4 -12 3 -19t-5 -11q65 24 132.5 61t128 83.5t109.5 101.5t78 115q17 36 24.5 73t2 70.5t-26 62.5t-59.5 50q-25 9 -55 15q-20 -29 -44 -65t-50 -76t-52.5 -83t-51.5 -85q40 2 54 -2t15.5 -20t-4.5 -34t-17 -32t-22 -14l-83 1q-19 -35 -34.5 -66t-26 -56t-15 -43t-1.5 -27z
" />
    <glyph glyph-name="Euro" unicode="&#x20ac;" horiz-adv-x="487" 
d="M173 417q24 50 56 96.5t69.5 83.5t80 61.5t87.5 32.5q34 6 64 -4.5t53 -30t39 -43t23 -44.5q7 -24 -0.5 -45.5t-23 -39.5t-35.5 -31t-38 -20q-18 -5 -29 -1.5t-2 15.5q10 14 24 36.5t23.5 46t10 44.5t-14.5 31q-23 13 -51.5 6.5t-60.5 -31.5t-65.5 -66.5t-64.5 -97.5
q31 0 60 -0.5t51.5 -0.5h36.5h16q8 0 11.5 -5.5t3.5 -13.5q0 -11 -8 -22.5t-19.5 -21.5t-24.5 -16t-22 -6h-13.5t-33 -0.5t-46.5 -1t-54 -0.5q-4 -10 -8 -20.5t-8 -21.5q32 0 62 -0.5t54 -0.5h39h17q8 0 11.5 -5.5t3.5 -13.5q0 -11 -8 -22.5t-19.5 -21.5t-24.5 -16t-22 -6
h-12.5t-30 -0.5t-42.5 -1t-51 -0.5q-5 -27 -7.5 -54t0 -51t10 -43t21.5 -31q16 -14 38 -9.5t43 20.5t37.5 40t21.5 49q5 23 18.5 18t21.5 -24q10 -33 2.5 -65.5t-29 -56t-56 -34.5t-76.5 -2q-31 6 -58 22t-47.5 36.5t-33 41.5t-15.5 36q-8 23 -11 50t-1 56q-36 -1 -60.5 -1
h-26.5q-18 0 -18 12q0 10 6.5 23.5t16.5 26t22 21t23 8.5h50q2 10 4.5 19.5t5.5 19.5h-60q-18 0 -18 12q0 10 6.5 23.5t16.5 26t22 21t23 8.5h44z" />
    <glyph glyph-name="F" unicode="F" horiz-adv-x="530" 
d="M75 202q-20 8 -31 22t-16.5 28.5t-6.5 27.5t0 20q5 14 18.5 19t15.5 0q2 -4 0 -13t3 -16q14 -9 45.5 -10t72.5 4q49 84 107 164.5t115 143.5q-48 -8 -93.5 -15.5t-85 -12t-71 -5.5t-52.5 4q-33 7 -46.5 26.5t-15.5 38t5.5 30t16.5 3.5q10 -4 34 -2.5t57 7t72.5 13.5
t80.5 17t80 17.5t71 14.5q54 11 111.5 18.5t111 8t100 -7.5t78.5 -28q20 -12 32.5 -34.5t18.5 -45.5t6.5 -42.5t-3.5 -26.5q-14 -24 -30.5 -29.5t-23.5 2.5q-5 7 -2.5 13t7 11t7 11t-2.5 13q-12 22 -45 31.5t-79.5 10t-103.5 -6t-118 -15.5q15 -15 8 -31
q-48 -47 -100.5 -120t-101.5 -155q45 8 81 13t54 3q29 -3 47 -15.5t26.5 -26.5t9 -26.5t-4.5 -15.5q-13 -6 -41.5 -14t-66.5 -15.5t-82.5 -13.5t-89.5 -9q-47 -88 -77.5 -161.5t-35.5 -111.5q0 -11 1.5 -15.5t4 -6t4.5 -1t3 -0.5q3 -2 2.5 -7t-3.5 -10t-9 -8.5t-15 -2.5
t-21 12t-22.5 29t-17.5 42t-5 51q3 41 20 90.5t43 103.5q-31 5 -51 13z" />
    <glyph glyph-name="G" unicode="G" horiz-adv-x="711" 
d="M375 -122q-8 61 17 152q-34 -38 -70 -63t-72 -29q-30 -3 -70 12t-76.5 43t-62.5 65t-28 79q-4 58 13.5 123.5t51.5 130.5t82.5 125.5t106.5 110t124 84t135 47.5q27 1 56 -9t53.5 -29.5t41 -46t18.5 -56.5q-8 -61 -53 -97t-104 -44q-20 -3 -23 2.5t6 18.5q19 27 34 55.5
t24.5 52.5t11.5 40t-5 17q-29 3 -84.5 -21.5t-118 -75t-122.5 -127t-98 -176.5q-27 -71 -28.5 -121t13 -79.5t41 -40.5t56.5 -4q24 5 50.5 23t54 43.5t55 57t53.5 64.5q16 32 33 59q-20 1 -39 4t-38 11q-20 8 -32.5 22.5t-19.5 29.5t-9.5 28.5t-1.5 20.5q2 7 9 11.5t14 6
t13 1t7 -2.5q2 -4 0 -13t3 -16q14 -9 37 -9t51 4.5t59 12t60 14t54 11t42 3.5q7 -3 16 -17.5t15 -31t8 -31t-3 -17.5q-14 0 -40 -7.5t-60 -16.5q7 -23 -2 -36q-42 -64 -76.5 -122.5t-59.5 -110t-39.5 -96.5t-15.5 -82q5 -4 11.5 -4.5t12 0.5t10 2t5.5 0q2 -2 -1.5 -9
t-10 -14t-15.5 -12.5t-18 -5.5q-17 0 -36.5 19.5t-25.5 66.5z" />
    <glyph glyph-name="H" unicode="H" horiz-adv-x="682" 
d="M698 295q-8 -25 -35 -36.5t-58 -16.5q-21 -52 -38.5 -100.5t-29.5 -89.5t-17 -72t0 -47q0 -13 2.5 -18t5.5 -6.5t5.5 -1t4.5 -1.5q4 -4 1 -15.5t-22 -13.5q-9 0 -21.5 9.5t-24 26.5t-20.5 40.5t-12 51.5q-8 27 -22.5 59.5t-34.5 66t-44 67t-51 63.5q-27 -55 -56.5 -105
t-62.5 -91t-68.5 -72t-73.5 -48q-20 -9 -42.5 -10.5t-42.5 3.5t-36 17t-22 32q-8 22 -2.5 27.5t13.5 1.5q3 -6 6.5 -10t22.5 -4q29 5 61 31t65 67.5t67 96t67 117.5q-48 15 -82.5 29.5t-48.5 26.5l-1 1q-8 5 -8 19.5t10 31.5q14 27 37 32.5t62 -2.5q36 -11 78 -46
q24 49 46.5 99t44.5 100q-26 -19 -59 -36t-67 -17q-41 2 -53.5 16.5t-1.5 24.5q13 -6 34 1.5t45.5 23t50 36.5t48.5 41t40 36.5t25 23.5q1 6 5 13q3 3 14.5 5.5t23.5 1.5t21 -6t9 -17q-9 -38 -21.5 -86t-29 -101t-37 -110t-44.5 -113q48 -9 97 -15.5t95 -9.5q28 67 61 132
t63.5 120.5t55.5 96.5t38 60q8 5 21.5 -0.5t26 -15t20.5 -20t5 -15.5q-15 -27 -35 -66.5t-42.5 -86.5t-46.5 -99.5t-47 -106.5q23 1 43 6q4 4 8.5 6.5t7.5 0t4.5 -10t-1.5 -23.5zM447 112q7 31 17 64.5t23 68.5q-32 4 -67.5 10.5t-71.5 14.5q30 -42 55 -83t44 -75z" />
    <glyph glyph-name="H.salt" unicode="&#xe487;" horiz-adv-x="820" 
d="M290 452q27 -8 55.5 -30.5t57.5 -55.5l20 41q11 25 25 60t24 72t14 71t-4 56.5t-31.5 29.5t-67.5 -10q-66 -27 -116.5 -77.5t-86.5 -107.5t-57 -111.5t-28 -90.5q1 -5 4.5 -6.5t7 -2t6 -1t2.5 -2.5q0 -4 -7 -12t-17.5 -11.5t-22 0.5t-21.5 25q-14 30 -12.5 72.5t16 90.5
t41 97t63 91t81.5 74.5t96 46.5q46 13 84 7.5t67 -21.5t47.5 -38.5t25.5 -41.5q13 -31 14.5 -69t-6 -80.5t-23.5 -89t-38 -93.5q38 -6 75.5 -11t73.5 -7q32 66 68.5 130t69.5 118t59.5 94.5t38.5 58.5q8 5 19 1t20.5 -12t15 -17.5t2.5 -14.5q-15 -27 -35 -66.5t-42.5 -86.5
t-46.5 -99.5t-47 -106.5q23 1 43 6q4 4 8.5 6.5t7.5 0t4.5 -10t-1.5 -23.5q-8 -26 -18 -38t-32 -20q-10 -2 -21.5 -2h-24.5q-21 -51 -38 -98.5t-28 -87.5t-16 -70t0 -46q0 -13 2.5 -18t5.5 -6.5t5.5 -1t4.5 -1.5q4 -4 1 -15.5t-22 -13.5q-9 0 -23.5 7.5t-29.5 22.5t-27.5 36
t-16.5 48q-12 48 -43.5 110t-73.5 120q-36 -59 -78.5 -113.5t-87 -98t-89 -73.5t-84.5 -42q-29 -7 -60.5 -2.5t-45.5 29.5q-2 3 -2.5 6.5t1 6.5t7.5 4t18 -2q16 -4 41 10t55 40t63 62.5t66 78.5t64.5 87t57.5 88q-65 18 -113 36t-64 32l-1 1q-8 5 -8 19.5t10 31.5
q14 27 37 32.5t62 -2.5zM568 102q8 34 21 70.5t30 74.5q-70 10 -146 29q-1 -1 -1 -3q29 -45 53.5 -89t42.5 -82z" />
    <glyph glyph-name="I" unicode="I" horiz-adv-x="491" 
d="M539 586q-11 -10 -37 -45.5t-60.5 -87t-73 -112.5t-73 -121.5t-61 -114.5t-37.5 -91q62 11 117.5 14.5t92.5 -6.5q53 -16 79 -45t21 -63q-3 -13 -12.5 -23t-14.5 -2q-1 2 -0.5 9.5t-0.5 17.5q-22 13 -65 12.5t-97 -7.5t-114.5 -18t-117 -19.5t-104 -12.5t-75.5 4
q-14 4 -20.5 17.5t-7.5 28t2 25t7 9.5q7 -3 30 1t55.5 11t73 16t84.5 18q-5 23 -4 51.5t7 51.5q13 50 41 114t65.5 130.5t80 129.5t84.5 112q-47 -4 -90.5 -4.5t-80.5 4t-66 15.5t-48 30q-5 6 -9 15t-5 17.5t0.5 13.5t7.5 4q35 -8 68 -10t73 3q41 4 102 15.5t127 24.5
t129 22.5t110 9.5q29 -1 55.5 -15t44.5 -31t25.5 -31.5t-0.5 -15.5q-60 -8 -141 -23t-169 -28q7 -15 2 -20z" />
    <glyph glyph-name="Iacute" unicode="&#xcd;" horiz-adv-x="491" 
d="M479 -84q-22 13 -65 12.5t-97 -7.5t-114.5 -18t-117 -19.5t-104 -12.5t-75.5 4q-14 4 -20.5 17.5t-7.5 28t2 25t7 9.5q9 -3 42.5 3t80 16.5t102 23t110.5 21t103.5 10.5t81.5 -7q53 -16 79 -45t21 -63q-3 -13 -12.5 -23t-14.5 -2q-1 2 -0.5 9.5t-0.5 17.5zM539 586
q-12 -11 -43 -53.5t-70.5 -103t-82.5 -130.5t-77.5 -134.5t-56 -116.5t-18.5 -75q12 -12 10.5 -19t-10.5 -8t-22.5 4t-23.5 17q-8 9 -12.5 25t-6 35t0 39.5t6.5 37.5q15 59 51 136t82.5 154t97 145t95.5 109q18 7 35 -0.5t28.5 -20t16.5 -25t0 -16.5zM119 635q-5 6 -9 15
t-5 17.5t0.5 13.5t7.5 4q35 -8 68 -10t73 3q41 4 102 15.5t127 24.5t129 22.5t110 9.5q29 -1 55.5 -15t44.5 -31t25.5 -31.5t-0.5 -15.5q-49 -6 -114 -18t-136.5 -23.5t-144.5 -20.5t-137.5 -9.5t-116 10.5t-79.5 39zM597 926q4 13 16 15t25 -3t23 -16.5t10 -25.5
q0 -16 -18.5 -34.5t-43 -34.5t-47.5 -27.5t-32 -14.5q-14 -3 -22.5 0.5t-12.5 9.5t-4.5 12t2.5 8q16 14 33 30t32 31.5t25.5 28.5t13.5 21z" />
    <glyph glyph-name="Icircumflex" unicode="&#xce;" horiz-adv-x="491" 
d="M479 -84q-22 13 -65 12.5t-97 -7.5t-114.5 -18t-117 -19.5t-104 -12.5t-75.5 4q-14 4 -20.5 17.5t-7.5 28t2 25t7 9.5q9 -3 42.5 3t80 16.5t102 23t110.5 21t103.5 10.5t81.5 -7q53 -16 79 -45t21 -63q-3 -13 -12.5 -23t-14.5 -2q-1 2 -0.5 9.5t-0.5 17.5zM539 586
q-12 -11 -43 -53.5t-70.5 -103t-82.5 -130.5t-77.5 -134.5t-56 -116.5t-18.5 -75q12 -12 10.5 -19t-10.5 -8t-22.5 4t-23.5 17q-8 9 -12.5 25t-6 35t0 39.5t6.5 37.5q15 59 51 136t82.5 154t97 145t95.5 109q18 7 35 -0.5t28.5 -20t16.5 -25t0 -16.5zM119 635q-5 6 -9 15
t-5 17.5t0.5 13.5t7.5 4q35 -8 68 -10t73 3q41 4 102 15.5t127 24.5t129 22.5t110 9.5q29 -1 55.5 -15t44.5 -31t25.5 -31.5t-0.5 -15.5q-49 -6 -114 -18t-136.5 -23.5t-144.5 -20.5t-137.5 -9.5t-116 10.5t-79.5 39zM442 814q0 1 13 12.5t32.5 25t41.5 24.5t39 12
q7 0 21 -12.5t27 -28.5t20.5 -30.5t2.5 -17.5q-1 -2 -7 -3t-14.5 -1t-17 0.5t-14.5 2.5q-2 1 -9.5 6.5t-25.5 30.5q-15 -12 -25 -18t-16.5 -9t-9.5 -3.5l-3 -0.5q-5 -1 -14.5 -0.5t-18.5 2t-15.5 3.5t-6.5 5z" />
    <glyph glyph-name="Idieresis" unicode="&#xcf;" horiz-adv-x="491" 
d="M539 586q-11 -10 -37 -45.5t-60.5 -87t-73 -112.5t-73 -121.5t-61 -114.5t-37.5 -91q62 11 117.5 14.5t92.5 -6.5q53 -16 79 -45t21 -63q-3 -13 -12.5 -23t-14.5 -2q-1 2 -0.5 9.5t-0.5 17.5q-22 13 -65 12.5t-97 -7.5t-114.5 -18t-117 -19.5t-104 -12.5t-75.5 4
q-14 4 -20.5 17.5t-7.5 28t2 25t7 9.5q7 -3 30 1t55.5 11t73 16t84.5 18q-5 23 -4 51.5t7 51.5q13 50 41 114t65.5 130.5t80 129.5t84.5 112q-47 -4 -90.5 -4.5t-80.5 4t-66 15.5t-48 30q-5 6 -9 15t-5 17.5t0.5 13.5t7.5 4q35 -8 68 -10t73 3q41 4 102 15.5t127 24.5
t129 22.5t110 9.5q29 -1 55.5 -15t44.5 -31t25.5 -31.5t-0.5 -15.5q-60 -8 -141 -23t-169 -28q7 -15 2 -20zM583 888q30 5 48 -6.5t20 -20.5q2 -11 -7 -29.5t-35 -31.5q-16 -5 -25 -4q-10 1 -19 6.5t-12 22.5q-5 22 5.5 40.5t24.5 22.5zM423 885q30 5 48 -6.5t20 -20.5
q2 -11 -7 -29.5t-35 -31.5q-16 -5 -25 -4q-10 1 -19 6.5t-12 22.5q-5 22 5.5 40.5t24.5 22.5z" />
    <glyph glyph-name="Igrave" unicode="&#xcc;" horiz-adv-x="491" 
d="M539 586q-11 -10 -37 -45.5t-60.5 -87t-73 -112.5t-73 -121.5t-61 -114.5t-37.5 -91q62 11 117.5 14.5t92.5 -6.5q53 -16 79 -45t21 -63q-3 -13 -12.5 -23t-14.5 -2q-1 2 -0.5 9.5t-0.5 17.5q-22 13 -65 12.5t-97 -7.5t-114.5 -18t-117 -19.5t-104 -12.5t-75.5 4
q-14 4 -20.5 17.5t-7.5 28t2 25t7 9.5q7 -3 30 1t55.5 11t73 16t84.5 18q-5 23 -4 51.5t7 51.5q13 50 41 114t65.5 130.5t80 129.5t84.5 112q-47 -4 -90.5 -4.5t-80.5 4t-66 15.5t-48 30q-5 6 -9 15t-5 17.5t0.5 13.5t7.5 4q35 -8 68 -10t73 3q41 4 102 15.5t127 24.5
t129 22.5t110 9.5q29 -1 55.5 -15t44.5 -31t25.5 -31.5t-0.5 -15.5q-60 -8 -141 -23t-169 -28q7 -15 2 -20zM443 922q13 0 15.5 -5t-2.5 -10q-4 -4 -2 -18t7.5 -32t14 -35.5t18.5 -27.5q-2 -10 -6 -14q-4 -5 -12.5 -8.5t-23.5 -1.5q-9 1 -23 13t-26.5 28.5t-22 35t-9.5 33.5
q0 6 6 13t16 13.5t23 11t27 4.5z" />
    <glyph glyph-name="J" unicode="J" horiz-adv-x="626" 
d="M-1 -97q8 38 48 73.5t97 65.5t124 52.5t128 35.5q43 70 75 134.5t46 108.5q10 25 22 62t20.5 75.5t10.5 74t-7 59.5t-32.5 30.5t-66.5 -12.5q-65 -30 -113.5 -82.5t-81.5 -110t-51.5 -113t-23.5 -91.5l2 -16q6 -17 1 -23.5t-15 -3t-23 16.5t-23 34q-14 30 -14 72t12.5 88
t36.5 93.5t57.5 89t76.5 74t94 49.5q46 15 87.5 8.5t74.5 -25t55.5 -42.5t30.5 -43q24 -42 23.5 -102t-20 -130t-54 -145.5t-79.5 -148.5t-96.5 -139t-104.5 -117t-104.5 -82.5t-95.5 -35.5q-39 -3 -64 13t-38.5 41t-16.5 55t2 57zM75 -197q25 -6 58.5 15t72 59t78.5 90
t77 108q-48 -21 -93 -47t-82 -53t-65.5 -54t-44 -50.5t-17 -41t15.5 -26.5z" />
    <glyph glyph-name="K" unicode="K" horiz-adv-x="563" 
d="M704 682q17 1 36.5 -2.5t36 -12t28 -22.5t12.5 -33q3 -22 -3.5 -25t-13.5 2q0 5 -3 9.5t-21 8.5q-18 -1 -46.5 -12.5t-64 -33t-77 -50.5t-85 -63.5t-88.5 -73.5t-88 -80q13 -45 34 -92t46.5 -91t53.5 -83t55.5 -68t51.5 -46t41 -17q5 0 6.5 3.5t2 8t0.5 9t2 6.5t7.5 0.5
t11.5 -6t10.5 -11.5t4.5 -16q0 -26 -24 -42.5t-69 -11.5q-21 2 -50.5 18.5t-62 42t-66 59.5t-63.5 72.5t-54.5 79.5t-38.5 81q-53 -58 -92 -112.5t-58 -99.5h-1q2 -7 11 -7t10 -5q2 -12 -9 -24t-22 -14t-22 6.5t-19.5 24t-13.5 38.5t-3 50q3 51 19.5 109t42 118t57 119
t64.5 112q-13 -5 -25.5 -7.5t-25.5 -1.5q-41 4 -52 19t0 24q16 -8 44 3t59.5 32t62.5 46t54 44q10 11 19.5 20.5t18.5 17.5q13 6 30.5 -1.5t30.5 -20t18.5 -27t-3.5 -21.5q-9 -6 -30.5 -37.5t-50.5 -78t-62.5 -104.5t-66.5 -117q47 61 106.5 126.5t124 121.5t132 94.5
t130.5 44.5z" />
    <glyph glyph-name="K.salt" unicode="&#xe48a;" horiz-adv-x="769" 
d="M402 405q10 25 21.5 60t19.5 70t9.5 67t-8 52.5t-33.5 25t-67 -14.5q-43 -20 -79 -50.5t-65 -67t-51 -76.5t-37.5 -77.5t-25 -71t-12.5 -57.5q1 -2 6 -2t10 -0.5t10 -1.5t7 -4q13 -20 6 -30t-22.5 -10t-34 10t-28.5 30q-16 29 -16.5 71.5t11.5 90t35.5 96.5t57.5 92
t77 76.5t94 50.5q46 15 84.5 12t68.5 -17.5t49.5 -35t27.5 -39.5q15 -32 17.5 -72.5t-5 -86.5t-23.5 -96t-37 -99q29 36 63 76.5t69 81.5t71 81t70 75q86 87 138.5 90t81.5 -61q-36 -24 -88 -71t-112 -105.5t-123 -122t-122 -119.5q8 -20 24 -50.5t35.5 -64.5t42.5 -68
t46 -61.5t45 -45t40 -17.5q11 0 16.5 3.5t8.5 8t3.5 9t2.5 6.5q5 4 10.5 0.5t5.5 -19.5q0 -13 -9.5 -25.5t-23 -22t-29.5 -15.5t-29 -6q-33 0 -75 29t-84 74.5t-80.5 100.5t-64.5 106q-29 -51 -61.5 -92.5t-63 -72t-57 -49t-44.5 -21.5q-14 -4 -32 -5.5t-35.5 1t-32 9.5
t-21.5 19q-2 3 -3 6.5t0.5 6t7.5 4t18 -0.5q20 -3 48 18.5t59 58t63.5 84.5t61.5 97t53 95t39 80z" />
    <glyph glyph-name="L" unicode="L" horiz-adv-x="768" 
d="M535 574q-42 -49 -83 -116.5t-75.5 -144.5t-61 -158.5t-41.5 -157.5q51 14 104 27.5t102.5 23t92.5 13.5t73 -1t54.5 -17t41.5 -28t25.5 -35t7.5 -37q-1 -7 -4.5 -14t-7.5 -11.5t-8.5 -6t-7.5 3.5q-1 1 -1.5 9t-2.5 19q-25 11 -75.5 8.5t-113.5 -12.5t-133.5 -24
t-136 -25.5t-121 -18t-87.5 -1.5q-16 2 -26 12.5t-15.5 22.5t-5.5 21.5t4 9.5q12 -2 55 9.5t103 28.5q-7 25 -8.5 53.5t0.5 52.5q5 58 23 129t48.5 144t72.5 143t93.5 127.5t113 96.5t130.5 50q40 6 84.5 -8.5t77 -45t45 -74.5t-12.5 -96q-32 -67 -73 -109t-82.5 -64
t-78.5 -28t-60 -2.5t-27.5 14.5t18.5 22q34 16 65.5 43t59 58.5t49 65t34.5 62t16 49.5t-6 29q-14 11 -38 11.5t-55.5 -12t-68.5 -39.5t-76 -72z" />
    <glyph glyph-name="L.salt" unicode="&#xe48b;" horiz-adv-x="720" 
d="M670 -49q-25 11 -70.5 8.5t-102 -12.5t-118.5 -23.5t-121 -25t-109.5 -18t-82.5 -1.5q-16 2 -24 15.5t-10.5 28.5t-1 27t6.5 11q11 -2 49 7t92 23q-18 22 -26.5 54.5t-3.5 63.5q2 12 5 26t8 29q-56 11 -105 34q-34 16 -56 38.5t-34 45t-15.5 42.5t-0.5 31q5 19 9 25
t7 3.5t6 -9.5l6 -14q10 -18 34.5 -31.5t53.5 -22.5t59 -14.5t50 -7.5l34 -3q36 75 89 157.5t118 152.5t138.5 119t151.5 58q40 4 73 -8.5t53 -37.5t26 -60t-7 -75q-26 -80 -81.5 -153.5t-130.5 -131.5t-164 -96t-180 -47q-11 -32 -20.5 -67t-18.5 -73q-2 -5 4 -7
q42 10 86.5 20t86.5 17t79.5 9t66.5 -3q61 -11 93 -39t29 -65q-2 -14 -11.5 -25t-15.5 -3q-1 2 -1.5 10t-2.5 18zM555 588q-63 -61 -114.5 -130.5t-93.5 -164.5q74 15 140 46.5t120.5 70.5t96 82.5t65.5 82t29.5 68.5t-11.5 43q-14 10 -36 11.5t-51.5 -9t-66 -35
t-78.5 -65.5z" />
    <glyph glyph-name="Lacute" unicode="&#x139;" horiz-adv-x="768" 
d="M535 574q-42 -49 -83 -116.5t-75.5 -144.5t-61 -158.5t-41.5 -157.5q51 14 104 27.5t102.5 23t92.5 13.5t73 -1t54.5 -17t41.5 -28t25.5 -35t7.5 -37q-1 -7 -4.5 -14t-7.5 -11.5t-8.5 -6t-7.5 3.5q-1 1 -1.5 9t-2.5 19q-25 11 -75.5 8.5t-113.5 -12.5t-133.5 -24
t-136 -25.5t-121 -18t-87.5 -1.5q-16 2 -26 12.5t-15.5 22.5t-5.5 21.5t4 9.5q12 -2 55 9.5t103 28.5q-7 25 -8.5 53.5t0.5 52.5q5 58 23 129t48.5 144t72.5 143t93.5 127.5t113 96.5t130.5 50q40 6 84.5 -8.5t77 -45t45 -74.5t-12.5 -96q-32 -67 -73 -109t-82.5 -64
t-78.5 -28t-60 -2.5t-27.5 14.5t18.5 22q34 16 65.5 43t59 58.5t49 65t34.5 62t16 49.5t-6 29q-14 11 -38 11.5t-55.5 -12t-68.5 -39.5t-76 -72zM908 950q4 13 16 15t25 -3t23 -16.5t10 -25.5q0 -16 -18.5 -34.5t-43 -34.5t-47.5 -27.5t-32 -14.5q-14 -3 -22.5 0.5
t-12.5 9.5t-4.5 12t2.5 8q16 14 33 30t32 31.5t25.5 28.5t13.5 21z" />
    <glyph glyph-name="Lcaron" unicode="&#x13d;" horiz-adv-x="768" 
d="M535 574q-42 -49 -83 -116.5t-75.5 -144.5t-61 -158.5t-41.5 -157.5q51 14 104 27.5t102.5 23t92.5 13.5t73 -1t54.5 -17t41.5 -28t25.5 -35t7.5 -37q-1 -7 -4.5 -14t-7.5 -11.5t-8.5 -6t-7.5 3.5q-1 1 -1.5 9t-2.5 19q-25 11 -75.5 8.5t-113.5 -12.5t-133.5 -24
t-136 -25.5t-121 -18t-87.5 -1.5q-16 2 -26 12.5t-15.5 22.5t-5.5 21.5t4 9.5q12 -2 55 9.5t103 28.5q-7 25 -8.5 53.5t0.5 52.5q5 58 23 129t48.5 144t72.5 143t93.5 127.5t113 96.5t130.5 50q40 6 84.5 -8.5t77 -45t45 -74.5t-12.5 -96q-32 -67 -73 -109t-82.5 -64
t-78.5 -28t-60 -2.5t-27.5 14.5t18.5 22q34 16 65.5 43t59 58.5t49 65t34.5 62t16 49.5t-6 29q-14 11 -38 11.5t-55.5 -12t-68.5 -39.5t-76 -72zM735 977q13 0 25 -4.5t20.5 -11t13.5 -14t5 -12.5q0 -15 -13 -33t-29.5 -34.5t-32.5 -28t-22 -13.5q-11 -3 -17.5 0t-9.5 8
t-3 11t1 8q24 40 31.5 71.5t9.5 40.5q2 5 5.5 8.5t15.5 3.5z" />
    <glyph glyph-name="Lslash" unicode="&#x141;" horiz-adv-x="768" 
d="M535 574q-38 -45 -74.5 -103t-68.5 -126q38 17 66 28.5t31 12.5q8 4 14 -2t9 -14q3 -13 0 -30.5t-10 -34t-17 -29.5t-20 -16l-129 -46q-41 -110 -62 -217q51 14 104 27.5t102.5 23t92.5 13.5t73 -1t54.5 -17t41.5 -28t25.5 -35t7.5 -37q-1 -7 -4.5 -14t-7.5 -11.5
t-8.5 -6t-7.5 3.5q-1 1 -1.5 9t-2.5 19q-25 11 -75.5 8.5t-113.5 -12.5t-133.5 -24t-136 -25.5t-121 -18t-87.5 -1.5q-16 2 -26 12.5t-15.5 22.5t-5.5 21.5t4 9.5q12 -2 55 9.5t103 28.5q-7 25 -8.5 53.5t0.5 52.5q3 38 12 83l-103 -38q-21 -6 -25 8q-3 12 12 32t37.5 40.5
t46 37t36.5 20.5q1 0 8 3t18 8q27 82 69.5 165t98.5 152t124 117.5t147 61.5q40 6 84.5 -8.5t77 -45t45 -74.5t-12.5 -96q-32 -67 -73 -109t-82.5 -64t-78.5 -28t-60 -2.5t-27.5 14.5t18.5 22q34 16 65.5 43t59 58.5t49 65t34.5 62t16 49.5t-6 29q-14 11 -38 11.5t-55.5 -12
t-68.5 -39.5t-76 -72z" />
    <glyph glyph-name="M" unicode="M" horiz-adv-x="877" 
d="M394 732q2 5 8 5q7 5 12 0q0 -1 1 -1q10 -3 22 -11.5t21.5 -20t14.5 -26.5t2 -31q-3 -23 -16 -64.5t-30.5 -86.5t-35.5 -85.5t-32 -61.5q22 25 54.5 65.5t68 85t69.5 87.5t60 74q5 6 24 1.5t38 -16.5t31 -30t3 -39q-15 -34 -39.5 -81.5t-50.5 -97t-48.5 -95.5t-32.5 -78
q38 47 81 96.5t86 98.5t84.5 94.5t77.5 84.5t63.5 68.5t43.5 46.5q8 9 27 4.5t36 -17t24.5 -31.5t-7.5 -39q-32 -44 -68.5 -102.5t-72.5 -123t-70 -130.5t-60 -124.5t-42.5 -105.5t-18.5 -74q11 -5 23.5 -4t13.5 -5q1 -3 -3 -10t-10.5 -13.5t-15 -11.5t-17.5 -4q-8 0 -20 5
t-23.5 16t-19.5 28.5t-8 43.5q0 37 17.5 95.5t46 125.5t63.5 136t70 127q-66 -75 -123 -147.5t-102.5 -134.5t-77.5 -108.5t-48 -70.5q-11 -11 -27.5 -4.5t-32 20.5t-26.5 32.5t-11 31.5q2 30 18.5 74.5t42 98t56.5 113.5t63 121q-23 -26 -62 -77.5t-87 -114t-101 -129
t-104.5 -122t-98.5 -93.5t-81 -43q-15 -3 -32 -1.5t-32.5 7t-28 15t-18.5 23.5q-1 3 -1.5 7.5t1.5 7.5t8 3.5t18 -3.5q26 -9 59 14t68.5 67t72 104.5t71 127t65 133.5t54.5 126q-25 -17 -56.5 -31.5t-61.5 -11.5q-35 4 -46 19t0 23q11 -7 29.5 -0.5t40 21t44.5 34.5t43 39.5
t35.5 35.5t22.5 23z" />
    <glyph glyph-name="M.salt" unicode="&#xe48c;" horiz-adv-x="1017" 
d="M452 418q10 25 22 60t20.5 70t11.5 67t-6 52.5t-32.5 25t-66.5 -14.5q-43 -20 -79.5 -50.5t-66.5 -67t-52.5 -76.5t-39 -77.5t-26.5 -71t-13 -57.5q9 -5 17 -5t14 1.5t10.5 3t6.5 -1.5q7 -11 1 -23t-20 -19.5t-34 -8.5t-40 10q-12 6 -18.5 11t-10.5 9.5t-6.5 9t-5.5 11.5
q-14 30 -9 72t24.5 89t52 95t73.5 90t88.5 74.5t98.5 49.5q46 15 80 12t58.5 -17t39.5 -34.5t23 -39.5q20 -78 6.5 -157t-54.5 -173q26 30 60 72t67.5 84.5t64 80t50.5 58.5q15 16 33 9.5t33 -23t23 -36.5t4 -31q-13 -33 -30.5 -70t-35 -74.5t-33.5 -73t-27 -63.5
q54 66 109.5 137t104.5 135t88 114t61 74q13 14 34.5 5.5t39 -28.5t25 -45.5t-6.5 -44.5q-30 -41 -63 -97t-65.5 -118.5t-62 -126.5t-52 -120.5t-36 -102t-14.5 -69.5q12 -4 24.5 -3t14.5 -4q1 -3 -2.5 -9t-10 -12t-15 -10.5t-17.5 -4.5t-21 4t-24 14t-21 25.5t-11 39.5
q-2 22 6.5 60t23.5 85.5t36.5 100.5t46 105.5t50.5 100.5t52 85q-64 -76 -122 -155t-104 -148t-77 -122.5t-41 -77.5q-11 -11 -28 -6t-32.5 18t-27.5 29t-12 28q2 55 34.5 148t91.5 206q-20 -23 -50 -64t-66 -90.5t-76 -103.5t-80 -103t-78.5 -88t-70.5 -60q-14 -4 -31.5 -3
t-34.5 6.5t-31 15t-21 21.5q-2 3 -3 6.5t0.5 6t7.5 4t18 -0.5q20 -3 43.5 15t48 50.5t49 74.5t47 86.5t42 87.5t34.5 77z" />
    <glyph glyph-name="N" unicode="N" horiz-adv-x="716" 
d="M489 693q14 9 18 2q10 0 22.5 -4.5t23 -11.5t17.5 -16t6 -19l-4 -11h5q-26 -44 -47.5 -96.5t-39.5 -108.5t-31.5 -112t-23.5 -106.5t-17 -93.5t-10 -72q-4 -32 4.5 -31t22 19t28.5 44t25 44q69 117 122 223t107 194q15 23 36 58.5t46 69.5t52 58t53 24q19 0 32 -7t19 -15
q6 -7 7.5 -16.5t0 -18.5t-5 -15.5t-6.5 -6.5q-7 -1 -11 7t-15 16q-17 -16 -47 -70.5t-68.5 -130.5t-82 -162.5t-87 -165.5t-84 -141t-72.5 -88q-16 -13 -37 -17t-40.5 -1.5t-35.5 11t-22 20.5q-12 24 -14.5 62.5t2 86.5t15.5 103.5t26 112.5q-54 -75 -110.5 -143
t-105.5 -118q-20 -21 -48 -45t-59 -47t-63 -41t-60.5 -27t-52 -5.5t-36.5 24.5q-2 11 2 23.5t15 17.5q5 1 9 -8t10 -8q5 -4 29.5 14t58.5 49t72 70t71 78q42 50 84.5 105.5t81.5 110.5t74 106.5t62 93.5q-14 -11 -31 -23t-36 -22t-38 -15.5t-37 -3.5q-20 3 -32.5 8.5
t-18.5 12.5t-5.5 13.5t6.5 11.5q13 -8 36 -1t50 21.5t56 34.5t54.5 39t44 34t25.5 20h1z" />
    <glyph glyph-name="N.salt" unicode="&#xe48d;" horiz-adv-x="811" 
d="M505 320q-37 -81 -81 -147.5t-86 -116.5t-77.5 -82t-55.5 -43q-24 -13 -49 -18.5t-47 -4t-38.5 9t-22.5 19.5q-2 3 -2.5 6.5t1.5 6t7.5 3.5t17.5 -2q20 -5 50 18t65 63t72 91t71 103t61.5 100t44.5 81q11 25 25.5 58.5t25.5 68t15.5 66.5t-3 52.5t-30.5 26.5t-67 -10
q-67 -26 -119.5 -75.5t-91 -106t-61.5 -110.5t-30 -90q9 -6 17 -6t14 1.5t10.5 2t6.5 -2.5q12 -21 1 -31.5t-31 -10t-42 12t-32 34.5q-12 31 -8 73t21.5 88.5t47 93t68.5 87t85 71t98 43.5q46 13 82.5 7t62.5 -22t42.5 -38.5t23.5 -41.5q11 -41 17 -99.5t10.5 -120
t7.5 -118.5t7 -96t10.5 -51.5t17.5 14.5q45 112 90 201t86.5 153.5t76 105.5t57.5 58q19 15 36.5 21t32.5 6.5t26.5 -4t17.5 -10.5q6 -7 8.5 -17.5t1.5 -20t-3.5 -16.5t-5.5 -7q-2 0 -4 4t-5.5 9t-8 9.5t-11.5 5.5q-17 -17 -48 -63t-68 -109t-76.5 -137t-74 -148t-60.5 -142
t-36 -118q-5 -23 -23.5 -26t-39.5 6t-38.5 27t-18.5 38q-3 27 -5.5 68.5t-5.5 91.5t-5.5 105t-4.5 109q-5 -14 -11 -28t-12 -29z" />
    <glyph glyph-name="NULL" horiz-adv-x="0" 
 />
    <glyph glyph-name="NULL" horiz-adv-x="0" 
 />
    <glyph glyph-name="Nacute" unicode="&#x143;" horiz-adv-x="716" 
d="M491 694q14 11 18 3q10 0 22.5 -4.5t23 -11t17 -15.5t5.5 -19l-4 -10h5q-26 -43 -47.5 -94t-39 -105t-31 -108.5t-23.5 -103.5t-17 -90.5t-10 -69.5q-4 -31 4.5 -30t22 18.5t28.5 42.5t25 42q68 112 121 215.5t107 188.5q15 22 36 57t45.5 68t51.5 56t53 23q19 0 32 -6.5
t19 -14.5q6 -7 7.5 -16.5t0 -18t-5 -15t-6.5 -6.5q-7 -1 -11 7t-15 15q-13 -11 -33 -44.5t-46 -81t-56 -106t-62 -119.5t-65 -121.5t-64.5 -112t-60 -90.5t-52.5 -58q-16 -13 -37 -17t-40.5 -1.5t-35.5 11t-22 20.5q-12 22 -14.5 59.5t2 84t15.5 100t26 109.5
q-54 -73 -110 -139t-105 -114q-20 -20 -48 -43.5t-59 -45.5t-62.5 -40t-60.5 -26.5t-52 -5t-36 23.5q-2 11 2 23t15 17q5 1 9 -7.5t10 -7.5q5 -4 29 13.5t58 47.5t72 67.5t71 75.5q42 49 84 102.5t81.5 106.5t74 102.5t61.5 90.5q-14 -11 -31 -22.5t-36 -20.5t-38 -14.5
t-37 -3.5q-40 5 -50 20.5t1 24.5q13 -7 35.5 -1t50 20t56 33t54 37.5t44 33t25.5 19.5h1zM759 882q4 13 16 15t25 -3t23 -16.5t10 -25.5q0 -16 -18.5 -34.5t-43 -34.5t-47.5 -27.5t-32 -14.5q-14 -3 -22.5 0.5t-12.5 9.5t-4.5 12t2.5 8q16 14 33 30t32 31.5t25.5 28.5
t13.5 21z" />
    <glyph glyph-name="Ncaron" unicode="&#x147;" horiz-adv-x="716" 
d="M491 694q14 11 18 3q10 0 22.5 -4.5t23 -11t17 -15.5t5.5 -19l-4 -10h5q-26 -43 -47.5 -94t-39 -105t-31 -108.5t-23.5 -103.5t-17 -90.5t-10 -69.5q-4 -31 4.5 -30t22 18.5t28.5 42.5t25 42q68 112 121 215.5t107 188.5q15 22 36 57t45.5 68t51.5 56t53 23q19 0 32 -6.5
t19 -14.5q6 -7 7.5 -16.5t0 -18t-5 -15t-6.5 -6.5q-7 -1 -11 7t-15 15q-13 -11 -33 -44.5t-46 -81t-56 -106t-62 -119.5t-65 -121.5t-64.5 -112t-60 -90.5t-52.5 -58q-16 -13 -37 -17t-40.5 -1.5t-35.5 11t-22 20.5q-12 22 -14.5 59.5t2 84t15.5 100t26 109.5
q-54 -73 -110 -139t-105 -114q-20 -20 -48 -43.5t-59 -45.5t-62.5 -40t-60.5 -26.5t-52 -5t-36 23.5q-2 11 2 23t15 17q5 1 9 -7.5t10 -7.5q5 -4 29 13.5t58 47.5t72 67.5t71 75.5q42 49 84 102.5t81.5 106.5t74 102.5t61.5 90.5q-14 -11 -31 -22.5t-36 -20.5t-38 -14.5
t-37 -3.5q-40 5 -50 20.5t1 24.5q13 -7 35.5 -1t50 20t56 33t54 37.5t44 33t25.5 19.5h1zM808 824q0 -3 -13 -16.5t-32 -28t-40.5 -25.5t-38.5 -8q-10 -2 -22.5 9t-24 26.5t-19 30.5t-7.5 21q0 2 6 3.5t14.5 2t17.5 0t14 -2.5l37 -32q14 12 24 17.5t16 7.5t9 2.5t4 0.5
q5 1 14.5 1t18.5 -1.5t15.5 -3.5t6.5 -4z" />
    <glyph glyph-name="Ntilde" unicode="&#xd1;" horiz-adv-x="716" 
d="M491 694q14 11 18 3q10 0 22.5 -4.5t23 -11t17 -15.5t5.5 -19l-4 -10h5q-26 -43 -47.5 -94t-39 -105t-31 -108.5t-23.5 -103.5t-17 -90.5t-10 -69.5q-4 -31 4.5 -30t22 18.5t28.5 42.5t25 42q68 112 121 215.5t107 188.5q15 22 36 57t45.5 68t51.5 56t53 23q19 0 32 -6.5
t19 -14.5q6 -7 7.5 -16.5t0 -18t-5 -15t-6.5 -6.5q-7 -1 -11 7t-15 15q-13 -11 -33 -44.5t-46 -81t-56 -106t-62 -119.5t-65 -121.5t-64.5 -112t-60 -90.5t-52.5 -58q-16 -13 -37 -17t-40.5 -1.5t-35.5 11t-22 20.5q-12 22 -14.5 59.5t2 84t15.5 100t26 109.5
q-54 -73 -110 -139t-105 -114q-20 -20 -48 -43.5t-59 -45.5t-62.5 -40t-60.5 -26.5t-52 -5t-36 23.5q-2 11 2 23t15 17q5 1 9 -7.5t10 -7.5q5 -4 29 13.5t58 47.5t72 67.5t71 75.5q42 49 84 102.5t81.5 106.5t74 102.5t61.5 90.5q-14 -11 -31 -22.5t-36 -20.5t-38 -14.5
t-37 -3.5q-40 5 -50 20.5t1 24.5q13 -7 35.5 -1t50 20t56 33t54 37.5t44 33t25.5 19.5h1zM664 889q15 -2 34.5 -7.5t52.5 -15.5q29 -5 42.5 0.5t24.5 5.5q6 0 3 -12t-13 -25.5t-26 -25t-35 -10.5q-18 1 -33 4.5t-28 8t-23.5 8.5t-20.5 6q-21 3 -31 -2t-17 -5q-11 0 -8 12.5
t14.5 26.5t29 24.5t34.5 6.5z" />
    <glyph glyph-name="O" unicode="O" horiz-adv-x="591" 
d="M628 545q4 -66 -12.5 -138.5t-46.5 -143t-71 -134t-86.5 -112.5t-92 -78t-88.5 -30q-45 -3 -87 14t-73 50.5t-47.5 81t-10.5 105.5q9 46 24 92t34.5 87.5t42.5 77.5t47 63q0 58 18.5 108.5t50.5 87t76 57t95 18.5q35 -2 74.5 -19t72.5 -45t55.5 -64.5t24.5 -77.5zM133 4
q34 -19 74 -4t80 54t78 95t69.5 119.5t54 127.5t31 118.5t0.5 93.5t-37 52q-27 12 -61.5 5t-69 -27t-64 -50.5t-47.5 -66.5q29 -4 51.5 -12t32.5 -22q15 -22 9 -32t-17 -15q-3 18 -17 11.5t-34 -30t-43 -60t-44.5 -78.5t-39 -86t-26 -82.5t-4.5 -68t24 -42.5z" />
    <glyph glyph-name="OE" unicode="&#x152;" horiz-adv-x="844" 
d="M593 525q-2 -29 -9 -62q2 -4 3.5 -7.5t4.5 -7.5q5 -8 14.5 -14t20.5 -11q20 3 39.5 4t37.5 0q26 -1 47.5 -11.5t36 -25t19.5 -31t-1 -29.5q-54 2 -113.5 -8.5t-115 -30.5t-103 -48t-79 -59.5t-42 -65t8.5 -64.5q17 -22 47.5 -29.5t69 -4.5t81.5 15t84.5 29.5t77 38
t60.5 40.5q22 17 29 17t5 -9t-9.5 -22t-12.5 -22q-23 -35 -63 -76t-90.5 -72.5t-107 -45t-113.5 7.5q-14 5 -31 16t-35 27q-32 -26 -63 -40t-60 -15q-45 -3 -87 14t-73 50.5t-47.5 81t-10.5 105.5q9 46 24 92t34.5 87.5t42.5 77.5t47 63q0 58 18.5 108.5t50.5 87t76 57
t95 18.5q16 -1 38.5 -5t46 -13.5t45.5 -26.5t38 -44q33 39 77 59.5t89.5 28t88 5.5t72.5 -8q29 -6 51.5 -20.5t36 -35.5t16 -48t-9.5 -59q-4 -9 -15.5 -13.5t-25 -5t-25.5 3.5t-18 12q3 10 11 15.5t14.5 10t8.5 8.5t-7 10q-20 13 -49 16.5t-62.5 -0.5t-68 -15t-65.5 -26
t-56 -34.5t-39 -40.5zM264 144q2 39 17 72.5t39.5 61.5t57 51t69.5 41q32 54 48 103t19.5 88t-5 65t-26.5 34q-27 11 -62 4t-69 -27t-63.5 -50t-47.5 -66q29 -4 51.5 -12t32.5 -22q15 -22 9 -32t-17 -15q-3 18 -17 11.5t-34 -30t-43 -60t-44.5 -78.5t-39 -86t-26 -82.5
t-4.5 -68t24 -42.5q34 -19 73 -5t78 52q-11 21 -16.5 44.5t-3.5 48.5z" />
    <glyph glyph-name="Oacute" unicode="&#xd3;" horiz-adv-x="591" 
d="M628 545q4 -66 -12.5 -138.5t-46.5 -143t-71 -134t-86.5 -112.5t-92 -78t-88.5 -30q-45 -3 -87 14t-73 50.5t-47.5 81t-10.5 105.5q9 46 24 92t34.5 87.5t42.5 77.5t47 63q0 58 18.5 108.5t50.5 87t76 57t95 18.5q35 -2 74.5 -19t72.5 -45t55.5 -64.5t24.5 -77.5zM133 4
q34 -19 74 -4t80 54t78 95t69.5 119.5t54 127.5t31 118.5t0.5 93.5t-37 52q-27 12 -61.5 5t-69 -27t-64 -50.5t-47.5 -66.5q29 -4 51.5 -12t32.5 -22q15 -22 9 -32t-17 -15q-3 18 -17 11.5t-34 -30t-43 -60t-44.5 -78.5t-39 -86t-26 -82.5t-4.5 -68t24 -42.5zM622 913
q7 14 19.5 14t24 -8.5t19 -23.5t4.5 -31q-4 -18 -27 -34.5t-51 -29.5t-53.5 -21.5t-34.5 -9.5q-15 0 -23 5.5t-10.5 13t-1 14t4.5 8.5q19 13 40 27.5t39 28t31.5 26t18.5 21.5z" />
    <glyph glyph-name="Ocircumflex" unicode="&#xd4;" horiz-adv-x="591" 
d="M628 545q4 -66 -12.5 -138.5t-46.5 -143t-71 -134t-86.5 -112.5t-92 -78t-88.5 -30q-45 -3 -87 14t-73 50.5t-47.5 81t-10.5 105.5q9 46 24 92t34.5 87.5t42.5 77.5t47 63q0 58 18.5 108.5t50.5 87t76 57t95 18.5q35 -2 74.5 -19t72.5 -45t55.5 -64.5t24.5 -77.5zM133 4
q34 -19 74 -4t80 54t78 95t69.5 119.5t54 127.5t31 118.5t0.5 93.5t-37 52q-27 12 -61.5 5t-69 -27t-64 -50.5t-47.5 -66.5q29 -4 51.5 -12t32.5 -22q15 -22 9 -32t-17 -15q-3 18 -17 11.5t-34 -30t-43 -60t-44.5 -78.5t-39 -86t-26 -82.5t-4.5 -68t24 -42.5zM385 798
q0 1 13 12.5t32.5 25t41.5 24.5t39 12q7 0 21 -12.5t27 -28.5t20.5 -30.5t2.5 -17.5q-1 -2 -7 -3t-14.5 -1t-17 0.5t-14.5 2.5q-2 1 -9.5 6.5t-25.5 30.5q-15 -12 -25 -18t-16.5 -9t-9.5 -3.5l-3 -0.5q-5 -1 -14.5 -0.5t-18.5 2t-15.5 3.5t-6.5 5z" />
    <glyph glyph-name="Odieresis" unicode="&#xd6;" horiz-adv-x="591" 
d="M628 545q4 -66 -12.5 -138.5t-46.5 -143t-71 -134t-86.5 -112.5t-92 -78t-88.5 -30q-45 -3 -87 14t-73 50.5t-47.5 81t-10.5 105.5q9 46 24 92t34.5 87.5t42.5 77.5t47 63q0 58 18.5 108.5t50.5 87t76 57t95 18.5q35 -2 74.5 -19t72.5 -45t55.5 -64.5t24.5 -77.5zM133 4
q34 -19 74 -4t80 54t78 95t69.5 119.5t54 127.5t31 118.5t0.5 93.5t-37 52q-27 12 -61.5 5t-69 -27t-64 -50.5t-47.5 -66.5q29 -4 51.5 -12t32.5 -22q15 -22 9 -32t-17 -15q-3 18 -17 11.5t-34 -30t-43 -60t-44.5 -78.5t-39 -86t-26 -82.5t-4.5 -68t24 -42.5zM421 891
q30 5 48 -6.5t20 -20.5q2 -11 -7 -29.5t-35 -31.5q-16 -5 -25 -4q-10 1 -19 6.5t-12 22.5q-5 22 5.5 40.5t24.5 22.5zM581 871q30 5 48 -6.5t20 -20.5q2 -11 -7 -29.5t-35 -31.5q-16 -5 -25 -4q-10 1 -19 6.5t-12 22.5q-5 22 5.5 40.5t24.5 22.5z" />
    <glyph glyph-name="Ograve" unicode="&#xd2;" horiz-adv-x="591" 
d="M628 545q4 -66 -12.5 -138.5t-46.5 -143t-71 -134t-86.5 -112.5t-92 -78t-88.5 -30q-45 -3 -87 14t-73 50.5t-47.5 81t-10.5 105.5q9 46 24 92t34.5 87.5t42.5 77.5t47 63q0 58 18.5 108.5t50.5 87t76 57t95 18.5q35 -2 74.5 -19t72.5 -45t55.5 -64.5t24.5 -77.5zM133 4
q34 -19 74 -4t80 54t78 95t69.5 119.5t54 127.5t31 118.5t0.5 93.5t-37 52q-27 12 -61.5 5t-69 -27t-64 -50.5t-47.5 -66.5q29 -4 51.5 -12t32.5 -22q15 -22 9 -32t-17 -15q-3 18 -17 11.5t-34 -30t-43 -60t-44.5 -78.5t-39 -86t-26 -82.5t-4.5 -68t24 -42.5zM426 962
q13 0 15.5 -5t-2.5 -10q-4 -4 -2 -18t7.5 -32t14 -35.5t18.5 -27.5q-2 -10 -6 -14q-4 -5 -12.5 -8.5t-23.5 -1.5q-9 1 -23 13t-26.5 28.5t-22 35t-9.5 33.5q0 6 6 13t16 13.5t23 11t27 4.5z" />
    <glyph glyph-name="Ohungarumlaut" unicode="&#x150;" horiz-adv-x="591" 
d="M628 545q4 -66 -12.5 -138.5t-46.5 -143t-71 -134t-86.5 -112.5t-92 -78t-88.5 -30q-45 -3 -87 14t-73 50.5t-47.5 81t-10.5 105.5q9 46 24 92t34.5 87.5t42.5 77.5t47 63q0 58 18.5 108.5t50.5 87t76 57t95 18.5q35 -2 74.5 -19t72.5 -45t55.5 -64.5t24.5 -77.5zM133 4
q34 -19 74 -4t80 54t78 95t69.5 119.5t54 127.5t31 118.5t0.5 93.5t-37 52q-27 12 -61.5 5t-69 -27t-64 -50.5t-47.5 -66.5q29 -4 51.5 -12t32.5 -22q15 -22 9 -32t-17 -15q-3 18 -17 11.5t-34 -30t-43 -60t-44.5 -78.5t-39 -86t-26 -82.5t-4.5 -68t24 -42.5zM539 896
q3 12 12 14t19 -2.5t17.5 -15t7.5 -23.5q0 -15 -14 -31.5t-32.5 -31.5t-36 -25.5t-23.5 -12.5q-11 -3 -18 0t-10 8.5t-3 11t2 7.5q12 13 25 27.5t24.5 28.5t19.5 25.5t10 19.5zM662 896q3 12 12 14t19 -2.5t17.5 -15t7.5 -23.5q0 -15 -14 -31.5t-32.5 -31.5t-36 -25.5
t-23.5 -12.5q-11 -3 -18 0t-10 8.5t-3 11t2 7.5q12 13 25 27.5t24.5 28.5t19.5 25.5t10 19.5z" />
    <glyph glyph-name="Oslash" unicode="&#xd8;" horiz-adv-x="591" 
d="M628 545q4 -66 -12.5 -138.5t-46.5 -143t-71 -134t-86.5 -112.5t-92 -78t-88.5 -30q-60 -3 -114 28l-31 -59q-8 -15 -8.5 -20.5t-8.5 -7.5q-13 -2 -16.5 9.5t-1 30t9.5 40t15 39.5q-34 33 -52 81.5t-11 109.5q9 46 24 92t34.5 87.5t42.5 77.5t47 63q0 58 18.5 108.5
t50.5 87t76 57t95 18.5q33 -2 70 -17t69 -41q26 34 42.5 54.5t21.5 23.5q15 10 32.5 7t31 -12t20.5 -19.5t1 -15.5q-10 -11 -33 -37t-57 -66q26 -38 29 -83zM111 36q37 71 86.5 153t103.5 163.5t106.5 157.5t95.5 134q-7 9 -20 16q-27 12 -61.5 5t-69 -27t-64 -50.5
t-47.5 -66.5q29 -4 51.5 -12t32.5 -22q15 -22 9 -32t-17 -15q-4 21 -23 8t-44.5 -47.5t-53.5 -84t-50 -101.5t-33 -100t-2 -79zM521 533q-40 -50 -85.5 -110.5t-93.5 -128.5t-96.5 -143t-94.5 -154q35 -10 75 12t79 64.5t76 100.5t66 120.5t48.5 125t25.5 113.5z" />
    <glyph glyph-name="Otilde" unicode="&#xd5;" horiz-adv-x="591" 
d="M628 545q4 -66 -12.5 -138.5t-46.5 -143t-71 -134t-86.5 -112.5t-92 -78t-88.5 -30q-45 -3 -87 14t-73 50.5t-47.5 81t-10.5 105.5q9 46 24 92t34.5 87.5t42.5 77.5t47 63q0 58 18.5 108.5t50.5 87t76 57t95 18.5q35 -2 74.5 -19t72.5 -45t55.5 -64.5t24.5 -77.5zM133 4
q34 -19 74 -4t80 54t78 95t69.5 119.5t54 127.5t31 118.5t0.5 93.5t-37 52q-27 12 -61.5 5t-69 -27t-64 -50.5t-47.5 -66.5q29 -4 51.5 -12t32.5 -22q15 -22 9 -32t-17 -15q-3 18 -17 11.5t-34 -30t-43 -60t-44.5 -78.5t-39 -86t-26 -82.5t-4.5 -68t24 -42.5zM480 870
q15 -2 34.5 -7.5t52.5 -15.5q29 -5 42.5 0.5t24.5 5.5q6 0 3 -12t-13 -25.5t-26 -25t-35 -10.5q-18 1 -33 4.5t-28 8t-23.5 8.5t-20.5 6q-21 3 -31 -2t-17 -5q-11 0 -8 12.5t14.5 26.5t29 24.5t34.5 6.5z" />
    <glyph glyph-name="P" unicode="P" horiz-adv-x="628" 
d="M70 98q2 28 11 59t23 65q-19 10 -29.5 21t-16 21.5t-6.5 19t0 13.5q2 11 5.5 14t6.5 3t5.5 -4.5t7 -10.5t12.5 -12t22 -9q5 -2 15 -4q27 58 62.5 117.5t72 113t70.5 98.5t60 74q-54 -9 -107.5 -26.5t-99.5 -39t-81 -44.5t-52 -43q-24 -28 -29 -42.5t-3 -21t3.5 -8
t-8.5 -4.5q-11 -3 -22.5 4.5t-20 23.5t-12 38.5t1.5 48.5q10 49 44 86.5t83 64t108.5 42t121 20.5t120.5 -1t107 -22q46 -16 85.5 -48t65 -72.5t34 -85.5t-7.5 -86q-22 -59 -67 -112t-110 -91t-148.5 -57t-182.5 -9q-28 -51 -47 -93.5t-26 -71.5q26 4 52 3.5t52 -8.5
q18 -7 31 -21t21 -29.5t11.5 -29t3.5 -20.5q-1 -7 -7 -11t-12.5 -6t-12 -2.5t-6.5 1.5q-2 3 -0.5 12.5t-3.5 15.5q-20 10 -57.5 5t-79.5 -15.5t-81 -21t-62 -10.5q-3 -1 -9.5 9.5t-12.5 24.5t-10 27t-1 18q17 2 48 15.5t72 26.5q-13 40 -7 87zM578 666q-19 8 -40 11.5
t-44 5.5q12 -8 18.5 -16t3.5 -13q-23 -29 -54.5 -73t-66.5 -96.5t-71.5 -110t-69.5 -112.5q58 3 107 20t89.5 41t71 51t51 50t31.5 38t11 16q17 26 24 54.5t3 54.5t-19.5 47t-44.5 32z" />
    <glyph glyph-name="Q" unicode="Q" horiz-adv-x="600" 
d="M651 527q-7 -70 -27 -136.5t-49 -126.5t-64.5 -113t-73.5 -96q32 -36 64 -64t59.5 -44.5t49.5 -21t34 6.5q13 6 16.5 -3.5t-6.5 -42.5q-23 -36 -61 -41.5t-79.5 9.5t-82 43.5t-68.5 59.5q-4 4 -7 7.5t-6 7.5q-39 -31 -73.5 -47t-60.5 -14q-43 1 -85 24t-72 62.5t-43.5 91
t-0.5 109.5q9 48 27 92t40 82t45 69t42 54q4 61 29.5 114.5t63.5 91.5t85.5 58t96.5 13q33 -5 71 -28t69.5 -57.5t51 -76t15.5 -83.5zM261 408q8 -65 35 -129.5t65 -123.5q33 45 63 97t53.5 105.5t39.5 104t21.5 93t-2 73.5t-29.5 44q-25 15 -57.5 10.5t-65.5 -22.5
t-63 -47.5t-50 -64.5q29 -7 49.5 -17t29.5 -27q7 -12 8 -20t-1.5 -13.5t-7.5 -9t-9 -5.5q-1 12 -7.5 13.5t-17 -5.5t-24.5 -21.5t-30 -34.5zM128 19q32 -21 71.5 -7t81.5 52q-72 113 -93 232q-23 -41 -42.5 -84t-29.5 -81t-8 -67.5t20 -44.5z" />
    <glyph glyph-name="R" unicode="R" horiz-adv-x="697" 
d="M288 13q12 -8 21.5 -21t15.5 -26t8 -24t-1 -17q-7 -13 -14 -9.5t-14 11.5q-10 9 -29.5 10t-44.5 -2t-52.5 -8t-53.5 -8.5t-47.5 -4.5t-33.5 5q-3 0 -7 8.5t-7.5 20t-5.5 22.5t0 15q14 -2 41.5 7t61.5 19l-2 12t-1 13q-2 30 10 72.5t34 91.5q-1 0 -1 1q0 28 9 43t22 20
q33 64 72.5 127.5t75.5 114.5t64 82.5t37 31.5q21 2 36.5 -10t25.5 -28t14.5 -30.5t1.5 -15.5q-14 -11 -36.5 -39t-50 -65.5t-57.5 -82t-58 -89.5q61 19 114 42t95.5 48.5t74 53t49.5 55.5q33 52 33 88.5t-21.5 60.5t-61 36.5t-86 15.5t-95 -2t-88.5 -15
q-46 -12 -95.5 -31.5t-91 -43.5t-69 -50t-28.5 -50q1 -21 23.5 -24t51 4.5t55 20.5t36.5 23q9 9 14.5 1.5t-0.5 -27.5q-4 -15 -13.5 -34t-26.5 -35t-42.5 -26t-60.5 -7q-25 2 -43.5 16t-30 35.5t-15 47.5t1.5 52q10 52 51 95.5t100 76t130.5 51.5t142.5 22.5t136.5 -10.5
t112.5 -49q51 -38 73.5 -105t6.5 -146q-10 -48 -43 -88t-80.5 -71t-105 -53.5t-116.5 -35.5q72 -31 129 -67t95 -81q15 -18 30.5 -44t24 -51.5t7.5 -47.5t-19 -34q-15 -11 -23.5 -6.5t-5.5 10.5q1 3 5.5 7t-6.5 22q-21 28 -59 62t-88.5 68.5t-111 67.5t-124.5 59
q-21 -32 -41 -70.5t-27 -69.5q25 3 48.5 0.5t43.5 -14.5z" />
    <glyph glyph-name="Racute" unicode="&#x154;" horiz-adv-x="677" 
d="M268 13q12 -8 21.5 -21t15.5 -26t8 -24t-1 -17q-7 -13 -14 -9.5t-14 11.5q-10 9 -29.5 10t-44.5 -2t-52.5 -8t-53.5 -8.5t-47.5 -4.5t-33.5 5q-3 0 -7 8.5t-7.5 20t-5.5 22.5t0 15q14 -2 41.5 7t61.5 19l-2 12t-1 13q-2 30 10 72.5t34 91.5q-1 0 -1 1q0 28 9 43t22 20
q33 64 72.5 127.5t75.5 114.5t64 82.5t37 31.5q21 2 36.5 -10t25.5 -28t14.5 -30.5t1.5 -15.5q-14 -11 -36.5 -39t-50 -65.5t-57.5 -82t-58 -89.5q61 19 114 42t95.5 48.5t74 53t49.5 55.5q33 52 33 88.5t-21.5 60.5t-61 36.5t-86 15.5t-95 -2t-88.5 -15q-46 -12 -91.5 -32
t-81.5 -43.5t-59.5 -46.5t-25.5 -40q1 -14 15 -19.5t34.5 -4.5t44.5 6t44.5 11t34.5 11.5t15 7.5q2 6 5.5 6t6.5 -4t4 -12t-2 -18q-4 -15 -16.5 -32t-33 -31.5t-48.5 -24t-62 -9.5q-24 0 -45.5 15.5t-36 39t-21 51.5t-1.5 54q7 37 33 72t66.5 64t93 50.5t114.5 32.5
q52 9 108 7.5t108.5 -14.5t97.5 -37t75.5 -60t43 -84t-0.5 -109q-10 -48 -43 -88t-80.5 -71t-105 -53.5t-116.5 -35.5q72 -31 129 -67t95 -81q15 -18 30.5 -44t24 -51.5t7.5 -47.5t-19 -34q-15 -11 -23.5 -6.5t-5.5 10.5q1 3 5.5 7t-6.5 22q-21 28 -59 62t-88.5 68.5
t-111 67.5t-124.5 59q-21 -32 -41 -70.5t-27 -69.5q25 3 48.5 0.5t43.5 -14.5zM597 926q4 13 16 15t25 -3t23 -16.5t10 -25.5q0 -16 -18.5 -34.5t-43 -34.5t-47.5 -27.5t-32 -14.5q-14 -3 -22.5 0.5t-12.5 9.5t-4.5 12t2.5 8q16 14 33 30t32 31.5t25.5 28.5t13.5 21z" />
    <glyph glyph-name="Rcaron" unicode="&#x158;" horiz-adv-x="677" 
d="M268 13q12 -8 21.5 -21t15.5 -26t8 -24t-1 -17q-7 -13 -14 -9.5t-14 11.5q-10 9 -29.5 10t-44.5 -2t-52.5 -8t-53.5 -8.5t-47.5 -4.5t-33.5 5q-3 0 -7 8.5t-7.5 20t-5.5 22.5t0 15q14 -2 41.5 7t61.5 19l-2 12t-1 13q-2 30 10 72.5t34 91.5q-1 0 -1 1q0 28 9 43t22 20
q33 64 72.5 127.5t75.5 114.5t64 82.5t37 31.5q21 2 36.5 -10t25.5 -28t14.5 -30.5t1.5 -15.5q-14 -11 -36.5 -39t-50 -65.5t-57.5 -82t-58 -89.5q61 19 114 42t95.5 48.5t74 53t49.5 55.5q33 52 33 88.5t-21.5 60.5t-61 36.5t-86 15.5t-95 -2t-88.5 -15q-46 -12 -91.5 -32
t-81.5 -43.5t-59.5 -46.5t-25.5 -40q1 -14 15 -19.5t34.5 -4.5t44.5 6t44.5 11t34.5 11.5t15 7.5q2 6 5.5 6t6.5 -4t4 -12t-2 -18q-4 -15 -16.5 -32t-33 -31.5t-48.5 -24t-62 -9.5q-24 0 -45.5 15.5t-36 39t-21 51.5t-1.5 54q7 37 33 72t66.5 64t93 50.5t114.5 32.5
q52 9 108 7.5t108.5 -14.5t97.5 -37t75.5 -60t43 -84t-0.5 -109q-10 -48 -43 -88t-80.5 -71t-105 -53.5t-116.5 -35.5q72 -31 129 -67t95 -81q15 -18 30.5 -44t24 -51.5t7.5 -47.5t-19 -34q-15 -11 -23.5 -6.5t-5.5 10.5q1 3 5.5 7t-6.5 22q-21 28 -59 62t-88.5 68.5
t-111 67.5t-124.5 59q-21 -32 -41 -70.5t-27 -69.5q25 3 48.5 0.5t43.5 -14.5zM664 854q0 -3 -13 -16.5t-32 -28t-40.5 -25.5t-38.5 -8q-10 -2 -22.5 9t-24 26.5t-19 30.5t-7.5 21q0 2 6 3.5t14.5 2t17.5 0t14 -2.5l37 -32q14 12 24 17.5t16 7.5t9 2.5t4 0.5q5 1 14.5 1
t18.5 -1.5t15.5 -3.5t6.5 -4z" />
    <glyph glyph-name="S" unicode="S" horiz-adv-x="495" 
d="M-30 101q7 38 11.5 42t25.5 -24q27 -29 65 -50t78.5 -32.5t79 -15t66 1.5t40.5 17.5t2 33.5q-16 28 -50.5 58t-72.5 61.5t-73.5 64t-52.5 66.5q-9 17 -16.5 49.5t-7 72.5t11.5 82t39 78q38 47 97.5 80t124 52t125.5 23t102 -7q31 -12 55.5 -36.5t39.5 -53.5t20 -57.5
t-2 -48.5q-11 -32 -35.5 -60.5t-57 -51t-68.5 -37t-70.5 -19.5t-63.5 1t-47 25q-5 7 -6 18t1.5 20.5t8 14.5t11.5 -1q21 -18 49 -15.5t57.5 18t57 39.5t47 47.5t28 43.5t-0.5 27t-31.5 10.5t-53 2.5t-67 -6t-72.5 -14t-70 -21t-59 -28q-40 -24 -61 -44t-27.5 -37.5t0 -35
t22.5 -36.5q16 -22 50 -51.5t71 -60.5t69.5 -61t44.5 -52q29 -55 22 -103t-35.5 -85t-71 -61.5t-83.5 -32.5q-44 -8 -92 4t-87.5 38.5t-64.5 64.5t-23 82z" />
    <glyph glyph-name="Sacute" unicode="&#x15a;" horiz-adv-x="529" 
d="M-30 101q7 38 11.5 42t25.5 -24q27 -29 65 -50t78.5 -32.5t79 -15t66 1.5t40.5 17.5t2 33.5q-16 28 -50.5 58t-72.5 61.5t-73.5 64t-52.5 66.5q-9 17 -16.5 49.5t-7 72.5t11.5 82t39 78q38 47 97.5 80t124 52t125.5 23t102 -7q31 -12 55.5 -36.5t39.5 -53.5t20 -57.5
t-2 -48.5q-11 -32 -35.5 -60.5t-57 -51t-68.5 -37t-70.5 -19.5t-63.5 1t-47 25q-5 7 -6 18t1.5 20.5t8 14.5t11.5 -1q21 -18 49 -15.5t57.5 18t57 39.5t47 47.5t28 43.5t-0.5 27t-31.5 10.5t-53 2.5t-67 -6t-72.5 -14t-70 -21t-59 -28q-40 -24 -61 -44t-27.5 -37.5t0 -35
t22.5 -36.5q16 -22 50 -51.5t71 -60.5t69.5 -61t44.5 -52q29 -55 22 -103t-35.5 -85t-71 -61.5t-83.5 -32.5q-44 -8 -92 4t-87.5 38.5t-64.5 64.5t-23 82zM600 936q4 13 16 15t25 -3t23 -16.5t10 -25.5q0 -16 -18.5 -34.5t-43 -34.5t-47.5 -27.5t-32 -14.5q-14 -3 -22.5 0.5
t-12.5 9.5t-4.5 12t2.5 8q16 14 33 30t32 31.5t25.5 28.5t13.5 21z" />
    <glyph glyph-name="Scaron" unicode="&#x160;" horiz-adv-x="529" 
d="M-30 101q7 38 11.5 42t25.5 -24q27 -29 65 -50t78.5 -32.5t79 -15t66 1.5t40.5 17.5t2 33.5q-16 28 -50.5 58t-72.5 61.5t-73.5 64t-52.5 66.5q-9 17 -16.5 49.5t-7 72.5t11.5 82t39 78q38 47 97.5 80t124 52t125.5 23t102 -7q31 -12 55.5 -36.5t39.5 -53.5t20 -57.5
t-2 -48.5q-11 -32 -35.5 -60.5t-57 -51t-68.5 -37t-70.5 -19.5t-63.5 1t-47 25q-5 7 -6 18t1.5 20.5t8 14.5t11.5 -1q21 -18 49 -15.5t57.5 18t57 39.5t47 47.5t28 43.5t-0.5 27t-31.5 10.5t-53 2.5t-67 -6t-72.5 -14t-70 -21t-59 -28q-40 -24 -61 -44t-27.5 -37.5t0 -35
t22.5 -36.5q16 -22 50 -51.5t71 -60.5t69.5 -61t44.5 -52q29 -55 22 -103t-35.5 -85t-71 -61.5t-83.5 -32.5q-44 -8 -92 4t-87.5 38.5t-64.5 64.5t-23 82zM677 882q0 -3 -13 -16.5t-32 -28t-40.5 -25.5t-38.5 -8q-10 -2 -22.5 9t-24 26.5t-19 30.5t-7.5 21q0 2 6 3.5t14.5 2
t17.5 0t14 -2.5l37 -32q14 12 24 17.5t16 7.5t9 2.5t4 0.5q5 1 14.5 1t18.5 -1.5t15.5 -3.5t6.5 -4z" />
    <glyph glyph-name="Scedilla" unicode="&#x15e;" horiz-adv-x="529" 
d="M-30 101q7 38 11.5 42t25.5 -24q27 -29 65 -50t78.5 -32.5t79 -15t66 1.5t40.5 17.5t2 33.5q-16 28 -50.5 58t-72.5 61.5t-73.5 64t-52.5 66.5q-9 17 -16.5 49.5t-7 72.5t11.5 82t39 78q38 47 97.5 80t124 52t125.5 23t102 -7q31 -12 55.5 -36.5t39.5 -53.5t20 -57.5
t-2 -48.5q-11 -32 -35.5 -60.5t-57 -51t-68.5 -37t-70.5 -19.5t-63.5 1t-47 25q-5 7 -6 18t1.5 20.5t8 14.5t11.5 -1q21 -18 49 -15.5t57.5 18t57 39.5t47 47.5t28 43.5t-0.5 27t-31.5 10.5t-53 2.5t-67 -6t-72.5 -14t-70 -21t-59 -28q-40 -24 -61 -44t-27.5 -37.5t0 -35
t22.5 -36.5q16 -22 50 -51.5t71 -60.5t69.5 -61t44.5 -52q29 -55 22 -103t-35.5 -85t-71 -61.5t-83.5 -32.5q-17 -3 -33.5 -2.5t-33.5 2.5l-12 -20q17 1 33.5 -3.5t27.5 -11.5q14 -9 21 -21t10 -24t2 -23t-2 -19q-3 -12 -14 -22.5t-27.5 -17.5t-36 -10.5t-38.5 -2.5
q-24 1 -42.5 14.5t-24.5 35.5q-2 8 -1.5 18t4.5 15q5 9 5.5 4t0.5 -10q0 -11 8.5 -16.5t20 -8t23.5 -2.5t20 1q7 1 19.5 3.5t23.5 7t19.5 9.5t8.5 11q0 12 -13 15.5t-29 3t-31 -2.5t-19 -1q-7 4 -17 14.5t-6 23.5q2 7 10 20t19 27q-33 10 -63 27.5t-52.5 41.5t-35.5 52.5
t-12 60.5z" />
    <glyph glyph-name="T" unicode="T" horiz-adv-x="351" 
d="M826 653q-19 -8 -52 -13t-75.5 -7.5t-92.5 -4t-104 -2.5q6 -8 8.5 -16.5t-1.5 -16.5q-38 -39 -79 -94t-80 -117.5t-74.5 -128t-63.5 -125t-45 -107.5t-20 -76q0 -11 1.5 -15t4 -5.5t4.5 -1t3 -0.5q5 -5 0 -13.5t-22 -6.5q-9 0 -19.5 7.5t-19.5 22.5t-14 37t-3 52
q7 70 34 150t67 160t89.5 155t100.5 136q-67 -3 -129.5 -7.5t-112 -14.5t-82.5 -25t-41 -39q-1 -3 5 -5t13.5 -3.5t14.5 -2.5t9 -3q2 -3 -6 -12t-21.5 -15t-28.5 -5t-26 18q-6 6 -13 25t-7 44.5t12 54.5t46 57q30 25 79.5 39t109 21t124.5 8t126 -1.5t113 -6.5t87 -6
q35 -3 73 -6t70.5 -3t54 5.5t23.5 21.5q6 4 14 -6t7.5 -27t-13.5 -37.5t-48 -38.5z" />
    <glyph glyph-name="Tcaron" unicode="&#x164;" horiz-adv-x="351" 
d="M826 653q-19 -8 -52 -13t-75.5 -7.5t-92.5 -4t-104 -2.5q6 -8 8.5 -16.5t-1.5 -16.5q-38 -39 -79 -94t-80 -117.5t-74.5 -128t-63.5 -125t-45 -107.5t-20 -76q0 -11 1.5 -15t4 -5.5t4.5 -1t3 -0.5q5 -5 0 -13.5t-22 -6.5q-9 0 -19.5 7.5t-19.5 22.5t-14 37t-3 52
q7 70 34 150t67 160t89.5 155t100.5 136q-67 -3 -129.5 -7.5t-112 -14.5t-82.5 -25t-41 -39q-1 -3 5 -5t13.5 -3.5t14.5 -2.5t9 -3q2 -3 -6 -12t-21.5 -15t-28.5 -5t-26 18q-6 6 -13 25t-7 44.5t12 54.5t46 57q30 25 79.5 39t109 21t124.5 8t126 -1.5t113 -6.5t87 -6
q35 -3 73 -6t70.5 -3t54 5.5t23.5 21.5q6 4 14 -6t7.5 -27t-13.5 -37.5t-48 -38.5zM617 880q0 -3 -13 -16.5t-32 -28t-40.5 -25.5t-38.5 -8q-10 -2 -22.5 9t-24 26.5t-19 30.5t-7.5 21q0 2 6 3.5t14.5 2t17.5 0t14 -2.5l37 -32q14 12 24 17.5t16 7.5t9 2.5t4 0.5q5 1 14.5 1
t18.5 -1.5t15.5 -3.5t6.5 -4z" />
    <glyph glyph-name="U" unicode="U" horiz-adv-x="582" 
d="M411 725q6 5 17.5 -5t20.5 -26.5t12.5 -34t-6.5 -26.5q-40 -36 -85 -88t-87 -109.5t-79 -115t-62 -106.5t-34 -84.5t4 -46.5q10 -10 38 3t66.5 43t84.5 73t93 93t92 103.5t81 103.5q21 36 46 71.5t48.5 67t44.5 56t35 38.5q15 13 30.5 9t27.5 -15.5t18 -26t1 -23.5
q-15 -29 -29.5 -49t-32 -41t-40.5 -46.5t-56 -65.5q-20 -26 -45.5 -71.5t-52 -100.5t-52 -114.5t-46.5 -113t-35.5 -96.5t-17.5 -65q-1 -14 0.5 -20t4.5 -8t5.5 -2t3.5 -2q2 -2 2 -6.5t-3 -8.5t-8 -7t-14 -2q-11 0 -21.5 10t-19 28t-13.5 42t-3 53q1 31 8 65.5t15.5 65.5
t17 55.5t13.5 36.5q-27 -30 -64.5 -70.5t-77 -77t-77.5 -62.5t-66 -27q-24 3 -45.5 19t-36.5 39t-23 50.5t-5 55.5q4 33 20.5 76t43 92t61 101t74.5 102q-18 -5 -35.5 -7t-34.5 2q-44 10 -54 29t6 29q16 -13 52 -2.5t78 32t83.5 48t69.5 45.5l43 35v0z" />
    <glyph glyph-name="Uacute" unicode="&#xda;" horiz-adv-x="582" 
d="M411 725q6 5 17.5 -5t20.5 -26.5t12.5 -34t-6.5 -26.5q-40 -36 -85 -88t-87 -109.5t-79 -115t-62 -106.5t-34 -84.5t4 -46.5q10 -10 38 3t66.5 43t84.5 73t93 93t92 103.5t81 103.5q21 36 46 71.5t48.5 67t44.5 56t35 38.5q15 13 30.5 9t27.5 -15.5t18 -26t1 -23.5
q-15 -29 -29.5 -49t-32 -41t-40.5 -46.5t-56 -65.5q-20 -26 -45.5 -71.5t-52 -100.5t-52 -114.5t-46.5 -113t-35.5 -96.5t-17.5 -65q-1 -14 0.5 -20t4.5 -8t5.5 -2t3.5 -2q2 -2 2 -6.5t-3 -8.5t-8 -7t-14 -2q-11 0 -21.5 10t-19 28t-13.5 42t-3 53q1 31 8 65.5t15.5 65.5
t17 55.5t13.5 36.5q-27 -30 -64.5 -70.5t-77 -77t-77.5 -62.5t-66 -27q-24 3 -45.5 19t-36.5 39t-23 50.5t-5 55.5q4 33 20.5 76t43 92t61 101t74.5 102q-18 -5 -35.5 -7t-34.5 2q-44 10 -54 29t6 29q16 -13 52 -2.5t78 32t83.5 48t69.5 45.5zM625 869q3 12 12 14t19 -2.5
t17.5 -15t7.5 -23.5q0 -15 -14 -31.5t-32.5 -31.5t-36 -25.5t-23.5 -12.5q-11 -3 -18 0t-10 8.5t-3 11t2 7.5q12 13 25 27.5t24.5 28.5t19.5 25.5t10 19.5z" />
    <glyph glyph-name="Ucircumflex" unicode="&#xdb;" horiz-adv-x="582" 
d="M411 725q6 5 17.5 -5t20.5 -26.5t12.5 -34t-6.5 -26.5q-40 -36 -85 -88t-87 -109.5t-79 -115t-62 -106.5t-34 -84.5t4 -46.5q10 -10 38 3t66.5 43t84.5 73t93 93t92 103.5t81 103.5q21 36 46 71.5t48.5 67t44.5 56t35 38.5q15 13 30.5 9t27.5 -15.5t18 -26t1 -23.5
q-15 -29 -29.5 -49t-32 -41t-40.5 -46.5t-56 -65.5q-20 -26 -45.5 -71.5t-52 -100.5t-52 -114.5t-46.5 -113t-35.5 -96.5t-17.5 -65q-1 -14 0.5 -20t4.5 -8t5.5 -2t3.5 -2q2 -2 2 -6.5t-3 -8.5t-8 -7t-14 -2q-11 0 -21.5 10t-19 28t-13.5 42t-3 53q1 31 8 65.5t15.5 65.5
t17 55.5t13.5 36.5q-27 -30 -64.5 -70.5t-77 -77t-77.5 -62.5t-66 -27q-24 3 -45.5 19t-36.5 39t-23 50.5t-5 55.5q4 33 20.5 76t43 92t61 101t74.5 102q-18 -5 -35.5 -7t-34.5 2q-44 10 -54 29t6 29q16 -13 52 -2.5t78 32t83.5 48t69.5 45.5zM479 772q0 1 13 12.5t32.5 25
t41.5 24.5t39 12q7 0 21 -12.5t27 -28.5t20.5 -30.5t2.5 -17.5q-1 -2 -7 -3t-14.5 -1t-17 0.5t-14.5 2.5q-2 1 -9.5 6.5t-25.5 30.5q-15 -12 -25 -18t-16.5 -9t-9.5 -3.5l-3 -0.5q-5 -1 -14.5 -0.5t-18.5 2t-15.5 3.5t-6.5 5z" />
    <glyph glyph-name="Udieresis" unicode="&#xdc;" horiz-adv-x="582" 
d="M411 725q6 5 17.5 -5t20.5 -26.5t12.5 -34t-6.5 -26.5q-40 -36 -85 -88t-87 -109.5t-79 -115t-62 -106.5t-34 -84.5t4 -46.5q10 -10 38 3t66.5 43t84.5 73t93 93t92 103.5t81 103.5q21 36 46 71.5t48.5 67t44.5 56t35 38.5q15 13 30.5 9t27.5 -15.5t18 -26t1 -23.5
q-15 -29 -29.5 -49t-32 -41t-40.5 -46.5t-56 -65.5q-20 -26 -45.5 -71.5t-52 -100.5t-52 -114.5t-46.5 -113t-35.5 -96.5t-17.5 -65q-1 -14 0.5 -20t4.5 -8t5.5 -2t3.5 -2q2 -2 2 -6.5t-3 -8.5t-8 -7t-14 -2q-11 0 -21.5 10t-19 28t-13.5 42t-3 53q1 31 8 65.5t15.5 65.5
t17 55.5t13.5 36.5q-27 -30 -64.5 -70.5t-77 -77t-77.5 -62.5t-66 -27q-24 3 -45.5 19t-36.5 39t-23 50.5t-5 55.5q4 33 20.5 76t43 92t61 101t74.5 102q-18 -5 -35.5 -7t-34.5 2q-44 10 -54 29t6 29q16 -13 52 -2.5t78 32t83.5 48t69.5 45.5zM495 867q30 5 48 -6.5
t20 -20.5q2 -11 -7 -29.5t-35 -31.5q-16 -5 -25 -4q-10 1 -19 6.5t-12 22.5q-5 22 5.5 40.5t24.5 22.5zM655 847q30 5 48 -6.5t20 -20.5q2 -11 -7 -29.5t-35 -31.5q-16 -5 -25 -4q-10 1 -19 6.5t-12 22.5q-5 22 5.5 40.5t24.5 22.5z" />
    <glyph glyph-name="Ugrave" unicode="&#xd9;" horiz-adv-x="582" 
d="M411 725q6 5 17.5 -5t20.5 -26.5t12.5 -34t-6.5 -26.5q-40 -36 -85 -88t-87 -109.5t-79 -115t-62 -106.5t-34 -84.5t4 -46.5q10 -10 38 3t66.5 43t84.5 73t93 93t92 103.5t81 103.5q21 36 46 71.5t48.5 67t44.5 56t35 38.5q15 13 30.5 9t27.5 -15.5t18 -26t1 -23.5
q-15 -29 -29.5 -49t-32 -41t-40.5 -46.5t-56 -65.5q-20 -26 -45.5 -71.5t-52 -100.5t-52 -114.5t-46.5 -113t-35.5 -96.5t-17.5 -65q-1 -14 0.5 -20t4.5 -8t5.5 -2t3.5 -2q2 -2 2 -6.5t-3 -8.5t-8 -7t-14 -2q-11 0 -21.5 10t-19 28t-13.5 42t-3 53q1 31 8 65.5t15.5 65.5
t17 55.5t13.5 36.5q-27 -30 -64.5 -70.5t-77 -77t-77.5 -62.5t-66 -27q-24 3 -45.5 19t-36.5 39t-23 50.5t-5 55.5q4 33 20.5 76t43 92t61 101t74.5 102q-18 -5 -35.5 -7t-34.5 2q-44 10 -54 29t6 29q16 -13 52 -2.5t78 32t83.5 48t69.5 45.5zM559 908q13 0 15.5 -5
t-2.5 -10q-4 -4 -2 -18t7.5 -32t14 -35.5t18.5 -27.5q-2 -10 -6 -14q-4 -5 -12.5 -8.5t-23.5 -1.5q-9 1 -23 13t-26.5 28.5t-22 35t-9.5 33.5q0 6 6 13t16 13.5t23 11t27 4.5z" />
    <glyph glyph-name="Uhungarumlaut" unicode="&#x170;" horiz-adv-x="582" 
d="M411 725q6 5 17.5 -5t20.5 -26.5t12.5 -34t-6.5 -26.5q-40 -36 -85 -88t-87 -109.5t-79 -115t-62 -106.5t-34 -84.5t4 -46.5q10 -10 38 3t66.5 43t84.5 73t93 93t92 103.5t81 103.5q21 36 46 71.5t48.5 67t44.5 56t35 38.5q15 13 30.5 9t27.5 -15.5t18 -26t1 -23.5
q-15 -29 -29.5 -49t-32 -41t-40.5 -46.5t-56 -65.5q-20 -26 -45.5 -71.5t-52 -100.5t-52 -114.5t-46.5 -113t-35.5 -96.5t-17.5 -65q-1 -14 0.5 -20t4.5 -8t5.5 -2t3.5 -2q2 -2 2 -6.5t-3 -8.5t-8 -7t-14 -2q-11 0 -21.5 10t-19 28t-13.5 42t-3 53q1 31 8 65.5t15.5 65.5
t17 55.5t13.5 36.5q-27 -30 -64.5 -70.5t-77 -77t-77.5 -62.5t-66 -27q-24 3 -45.5 19t-36.5 39t-23 50.5t-5 55.5q4 33 20.5 76t43 92t61 101t74.5 102q-18 -5 -35.5 -7t-34.5 2q-44 10 -54 29t6 29q16 -13 52 -2.5t78 32t83.5 48t69.5 45.5zM570 875q3 12 12 14t19 -2.5
t17.5 -15t7.5 -23.5q0 -15 -14 -31.5t-32.5 -31.5t-36 -25.5t-23.5 -12.5q-11 -3 -18 0t-10 8.5t-3 11t2 7.5q12 13 25 27.5t24.5 28.5t19.5 25.5t10 19.5zM693 875q3 12 12 14t19 -2.5t17.5 -15t7.5 -23.5q0 -15 -14 -31.5t-32.5 -31.5t-36 -25.5t-23.5 -12.5q-11 -3 -18 0
t-10 8.5t-3 11t2 7.5q12 13 25 27.5t24.5 28.5t19.5 25.5t10 19.5z" />
    <glyph glyph-name="Uring" unicode="&#x16e;" horiz-adv-x="582" 
d="M411 725q6 5 17.5 -5t20.5 -26.5t12.5 -34t-6.5 -26.5q-40 -36 -85 -88t-87 -109.5t-79 -115t-62 -106.5t-34 -84.5t4 -46.5q10 -10 38 3t66.5 43t84.5 73t93 93t92 103.5t81 103.5q21 36 46 71.5t48.5 67t44.5 56t35 38.5q15 13 30.5 9t27.5 -15.5t18 -26t1 -23.5
q-15 -29 -29.5 -49t-32 -41t-40.5 -46.5t-56 -65.5q-20 -26 -45.5 -71.5t-52 -100.5t-52 -114.5t-46.5 -113t-35.5 -96.5t-17.5 -65q-1 -14 0.5 -20t4.5 -8t5.5 -2t3.5 -2q2 -2 2 -6.5t-3 -8.5t-8 -7t-14 -2q-11 0 -21.5 10t-19 28t-13.5 42t-3 53q1 31 8 65.5t15.5 65.5
t17 55.5t13.5 36.5q-27 -30 -64.5 -70.5t-77 -77t-77.5 -62.5t-66 -27q-24 3 -45.5 19t-36.5 39t-23 50.5t-5 55.5q4 33 20.5 76t43 92t61 101t74.5 102q-18 -5 -35.5 -7t-34.5 2q-44 10 -54 29t6 29q16 -13 52 -2.5t78 32t83.5 48t69.5 45.5zM650 812q2 -6 1 -16.5t-5 -21
t-9.5 -19.5t-12.5 -13q-15 -9 -34.5 -10t-37 6t-30.5 20t-17 31q-2 9 -0.5 21.5t5.5 24.5t10 21.5t13 12.5q14 7 33 7.5t36 -7t30.5 -22t17.5 -35.5zM530 810q2 -11 15.5 -17.5t28.5 -9t27.5 0.5t13.5 11q1 9 -5.5 18t-17.5 14t-24 6t-25 -6q-18 -7 -13 -17z" />
    <glyph glyph-name="V" unicode="V" horiz-adv-x="472" 
d="M260 685l5 6q6 11 23 8t33.5 -14t27 -26t4.5 -28q-36 -46 -70.5 -107t-64 -125.5t-51.5 -126.5t-33 -110.5t-9.5 -78t20.5 -27.5q15 5 38.5 29t52 60.5t60.5 83t63 98t59 105t49.5 104t34 95.5t12.5 78q-1 9 -7.5 10t-12.5 0.5t-7.5 1.5t7.5 14q16 18 32 15t29 -17.5
t21.5 -34.5t10.5 -35q5 -54 -14.5 -125t-54.5 -146.5t-81 -149.5t-94 -135.5t-94 -104.5t-80 -56q-20 -9 -46.5 1t-50.5 31t-41 49t-18 54q-7 73 20.5 174.5t88.5 216.5q-26 -15 -49 -16q-41 -2 -53.5 10.5t-2.5 23.5q15 -5 37.5 6.5t48.5 32.5t52.5 46.5t48.5 48.5
t36.5 39.5t16.5 18.5z" />
    <glyph glyph-name="W" unicode="W" horiz-adv-x="696" 
d="M271 682q6 11 22.5 7t33 -15t27 -26.5t3.5 -26.5q-53 -71 -95 -146t-71 -148.5t-43.5 -142.5t-11.5 -127q15 13 34 33.5t41 46.5t46.5 56.5t48.5 64.5q12 44 26 82.5t28.5 70t27 54.5t21.5 36q15 21 29.5 27t27 2t23 -15t18 -24t10.5 -25t2 -18q-4 -14 -10 -28
t-17.5 -34.5t-29 -51.5t-43.5 -77q-17 -63 -16.5 -112t10.5 -94q16 5 46 43t64.5 95.5t70.5 127.5t64.5 140t45.5 133.5t14 107.5q-1 9 -7.5 10.5t-12.5 1t-7.5 1.5t7.5 13q15 20 31.5 16t30.5 -19.5t23.5 -37t10.5 -37.5q2 -51 -15 -119.5t-45.5 -143.5t-64.5 -149
t-71.5 -136t-66 -105.5t-48.5 -55.5q-17 -11 -48.5 -6t-62 22.5t-53.5 44.5t-23 61q0 6 -1 14.5t-2 18t-1.5 18t-0.5 14.5q-19 -28 -37.5 -55.5t-36 -52t-33.5 -44t-29 -30.5q-19 -9 -43.5 1t-46.5 31.5t-37.5 51t-16.5 59.5q-2 35 4.5 80t21.5 96.5t39 109t59 117.5
q-29 -11 -53 -10q-41 3 -53 17.5t-1 23.5q14 -7 37 2t49.5 26.5t53 40t49 43t37.5 35t17 16.5z" />
    <glyph glyph-name="X" unicode="X" horiz-adv-x="642" 
d="M-87 -10q10 -8 47 13t91.5 62.5t122 100t138.5 124.5q-26 70 -45 137t-32 122.5t-20.5 95.5t-9.5 57q-2 7 13 19.5t36 21.5t40.5 11t26.5 -13q17 -67 42 -153t54 -183l3 -10q52 52 101.5 104t92.5 100.5t76.5 91.5t54.5 77q10 12 29.5 4.5t36.5 -25.5t27 -41.5t2 -42.5
q-37 -46 -81 -96t-92.5 -101t-100 -102.5t-103.5 -99.5l5 -15q31 -103 58 -166.5t49 -99t39 -49.5t28.5 -18.5t17.5 -6t7 -11.5q-23 -18 -44 -22t-40.5 2t-37 19.5t-32.5 30.5q-46 50 -84 112.5t-69 131.5q-50 -43 -97.5 -80t-90 -66.5t-79 -49t-64.5 -28.5q-35 -9 -61.5 -9
t-44.5 6t-28 16.5t-12 22.5q1 11 3.5 18.5t12.5 8.5q7 1 6.5 -7t7.5 -14z" />
    <glyph glyph-name="Y" unicode="Y" horiz-adv-x="607" 
d="M381 677q8 6 12 6q6 4 18.5 -3t22.5 -19t14 -26t-6 -22q-39 -35 -82 -84t-83 -103t-74.5 -109t-57.5 -102t-30.5 -80.5t6.5 -44.5q12 -10 36.5 0.5t58.5 36.5t74.5 64t84.5 82.5t88.5 92.5t85.5 94q20 34 37 73.5t32.5 76.5t29.5 66t27 42q15 12 34.5 5.5t36.5 -20
t26.5 -29.5t4.5 -23l-37 -52q-15 -34 -39 -89.5t-53.5 -123.5t-63.5 -142.5t-70.5 -145.5t-74 -133.5t-73.5 -105.5q-16 -19 -37.5 -42t-46.5 -45t-52 -40t-54 -27.5t-52.5 -7t-46.5 21.5q-5 4 -7 11t-2 13.5t2.5 10.5t7.5 3q2 0 8 -6.5t14 -12.5q41 19 89.5 77t99 138
t101.5 174t98 186q-78 -86 -132 -146.5t-92.5 -99.5t-65.5 -57t-51 -19q-24 4 -49.5 19t-46.5 37t-33.5 49t-10.5 54q2 32 16.5 72t39.5 85t58 92t71 93q-15 -5 -30.5 -6.5t-30.5 0.5q-46 8 -58 25.5t2 27.5q15 -10 43 -4t61.5 21t68 35t63 38.5t48 32t22.5 15.5z" />
    <glyph glyph-name="Yacute" unicode="&#xdd;" horiz-adv-x="607" 
d="M381 677q8 6 12 6q6 4 18.5 -3t22.5 -19t14 -26t-6 -22q-39 -35 -82 -84t-83 -103t-74.5 -109t-57.5 -102t-30.5 -80.5t6.5 -44.5q12 -10 36.5 0.5t58.5 36.5t74.5 64t84.5 82.5t88.5 92.5t85.5 94q20 34 37 73.5t32.5 76.5t29.5 66t27 42q15 12 34.5 5.5t36.5 -20
t26.5 -29.5t4.5 -23l-37 -52q-15 -34 -39 -89.5t-53.5 -123.5t-63.5 -142.5t-70.5 -145.5t-74 -133.5t-73.5 -105.5q-16 -19 -37.5 -42t-46.5 -45t-52 -40t-54 -27.5t-52.5 -7t-46.5 21.5q-5 4 -7 11t-2 13.5t2.5 10.5t7.5 3q2 0 8 -6.5t14 -12.5q41 19 89.5 77t99 138
t101.5 174t98 186q-78 -86 -132 -146.5t-92.5 -99.5t-65.5 -57t-51 -19q-24 4 -49.5 19t-46.5 37t-33.5 49t-10.5 54q2 32 16.5 72t39.5 85t58 92t71 93q-15 -5 -30.5 -6.5t-30.5 0.5q-46 8 -58 25.5t2 27.5q15 -10 43 -4t61.5 21t68 35t63 38.5t48 32t22.5 15.5zM586 850
q3 12 12 14t19 -2.5t17.5 -15t7.5 -23.5q0 -15 -14 -31.5t-32.5 -31.5t-36 -25.5t-23.5 -12.5q-11 -3 -18 0t-10 8.5t-3 11t2 7.5q12 13 25 27.5t24.5 28.5t19.5 25.5t10 19.5z" />
    <glyph glyph-name="Ydieresis" unicode="&#x178;" horiz-adv-x="607" 
d="M381 677q8 6 12 6q6 4 18.5 -3t22.5 -19t14 -26t-6 -22q-39 -35 -82 -84t-83 -103t-74.5 -109t-57.5 -102t-30.5 -80.5t6.5 -44.5q12 -10 36.5 0.5t58.5 36.5t74.5 64t84.5 82.5t88.5 92.5t85.5 94q20 34 37 73.5t32.5 76.5t29.5 66t27 42q15 12 34.5 5.5t36.5 -20
t26.5 -29.5t4.5 -23l-37 -52q-15 -34 -39 -89.5t-53.5 -123.5t-63.5 -142.5t-70.5 -145.5t-74 -133.5t-73.5 -105.5q-16 -19 -37.5 -42t-46.5 -45t-52 -40t-54 -27.5t-52.5 -7t-46.5 21.5q-5 4 -7 11t-2 13.5t2.5 10.5t7.5 3q2 0 8 -6.5t14 -12.5q41 19 89.5 77t99 138
t101.5 174t98 186q-78 -86 -132 -146.5t-92.5 -99.5t-65.5 -57t-51 -19q-24 4 -49.5 19t-46.5 37t-33.5 49t-10.5 54q2 32 16.5 72t39.5 85t58 92t71 93q-15 -5 -30.5 -6.5t-30.5 0.5q-46 8 -58 25.5t2 27.5q15 -10 43 -4t61.5 21t68 35t63 38.5t48 32t22.5 15.5zM472 859
q30 5 48 -6.5t20 -20.5q2 -11 -7 -29.5t-35 -31.5q-16 -5 -25 -4q-10 1 -19 6.5t-12 22.5q-5 22 5.5 40.5t24.5 22.5zM632 839q30 5 48 -6.5t20 -20.5q2 -11 -7 -29.5t-35 -31.5q-16 -5 -25 -4q-10 1 -19 6.5t-12 22.5q-5 22 5.5 40.5t24.5 22.5z" />
    <glyph glyph-name="Z" unicode="Z" horiz-adv-x="570" 
d="M-112 0q34 1 70.5 9t71.5 14q-8 27 1.5 55t37 61t73.5 73.5t112 93.5q51 41 109.5 81.5t111.5 77t95 67t61 51.5q-7 -1 -32 -5t-62 -7.5t-82 -6.5t-91 -1.5t-89.5 8t-77.5 21.5q-32 22 -46 37.5t-15.5 25t6 14t17.5 6.5q13 2 48 6t80 8t95.5 8t94 8t75.5 6.5t42 4.5
q31 5 59 -9t47.5 -38.5t30 -55t7.5 -59.5q-12 -38 -53 -81t-99.5 -88.5t-128 -92t-137.5 -91.5t-129 -87.5t-102 -79.5q31 6 64.5 12t66 10t62.5 4.5t55 -3.5q66 -11 102.5 -38.5t47 -57.5t-5 -56.5t-53.5 -35.5q-4 -1 -0.5 4t2 13t-13.5 18t-47 21q-20 6 -55.5 5.5
t-79 -4.5t-92.5 -9.5t-95.5 -10t-87.5 -6t-69 3.5q-6 1 -11.5 16.5t-7 33.5t1.5 32.5t15 13.5z" />
    <glyph glyph-name="Zacute" unicode="&#x179;" horiz-adv-x="551" 
d="M600 936q4 13 16 15t25 -3t23 -16.5t10 -25.5q0 -16 -18.5 -34.5t-43 -34.5t-47.5 -27.5t-32 -14.5q-14 -3 -22.5 0.5t-12.5 9.5t-4.5 12t2.5 8q16 14 33 30t32 31.5t25.5 28.5t13.5 21zM-112 0q34 1 70.5 9t71.5 14q-8 27 1.5 55t37 61t73.5 73.5t112 93.5
q51 41 109.5 81.5t111.5 77t95 67t61 51.5q-7 -1 -32 -5t-62 -7.5t-82 -6.5t-91 -1.5t-89.5 8t-77.5 21.5q-32 22 -46 37.5t-15.5 25t6 14t17.5 6.5q13 2 48 6t80 8t95.5 8t94 8t75.5 6.5t42 4.5q31 5 59 -9t47.5 -38.5t30 -55t7.5 -59.5q-12 -38 -53 -81t-99.5 -88.5
t-128 -92t-137.5 -91.5t-129 -87.5t-102 -79.5q31 6 64.5 12t66 10t62.5 4.5t55 -3.5q66 -11 102.5 -38.5t47 -57.5t-5 -56.5t-53.5 -35.5q-4 -1 -0.5 4t2 13t-13.5 18t-47 21q-20 6 -55.5 5.5t-79 -4.5t-92.5 -9.5t-95.5 -10t-87.5 -6t-69 3.5q-6 1 -11.5 16.5t-7 33.5
t1.5 32.5t15 13.5z" />
    <glyph glyph-name="Zcaron" unicode="&#x17d;" horiz-adv-x="551" 
d="M650 836q0 -3 -13 -16.5t-32 -28t-40.5 -25.5t-38.5 -8q-10 -2 -22.5 9t-24 26.5t-19 30.5t-7.5 21q0 2 6 3.5t14.5 2t17.5 0t14 -2.5l37 -32q14 12 24 17.5t16 7.5t9 2.5t4 0.5q5 1 14.5 1t18.5 -1.5t15.5 -3.5t6.5 -4zM-112 0q34 1 70.5 9t71.5 14q-8 27 1.5 55t37 61
t73.5 73.5t112 93.5q51 41 109.5 81.5t111.5 77t95 67t61 51.5q-7 -1 -32 -5t-62 -7.5t-82 -6.5t-91 -1.5t-89.5 8t-77.5 21.5q-32 22 -46 37.5t-15.5 25t6 14t17.5 6.5q13 2 48 6t80 8t95.5 8t94 8t75.5 6.5t42 4.5q31 5 59 -9t47.5 -38.5t30 -55t7.5 -59.5
q-12 -38 -53 -81t-99.5 -88.5t-128 -92t-137.5 -91.5t-129 -87.5t-102 -79.5q31 6 64.5 12t66 10t62.5 4.5t55 -3.5q66 -11 102.5 -38.5t47 -57.5t-5 -56.5t-53.5 -35.5q-4 -1 -0.5 4t2 13t-13.5 18t-47 21q-20 6 -55.5 5.5t-79 -4.5t-92.5 -9.5t-95.5 -10t-87.5 -6t-69 3.5
q-6 1 -11.5 16.5t-7 33.5t1.5 32.5t15 13.5z" />
    <glyph glyph-name="Zdotaccent" unicode="&#x17b;" horiz-adv-x="551" 
d="M524 886q20 3 36 0t27.5 -9t18.5 -13.5t9 -13.5q3 -15 -9.5 -40t-47.5 -42q-9 -3 -17.5 -5t-15.5 0q-13 1 -25 8t-16 30q-3 15 -1 29t8 25.5t14.5 19.5t18.5 11zM-112 0q34 1 70.5 9t71.5 14q-8 27 1.5 55t37 61t73.5 73.5t112 93.5q51 41 109.5 81.5t111.5 77t95 67
t61 51.5q-7 -1 -32 -5t-62 -7.5t-82 -6.5t-91 -1.5t-89.5 8t-77.5 21.5q-32 22 -46 37.5t-15.5 25t6 14t17.5 6.5q13 2 48 6t80 8t95.5 8t94 8t75.5 6.5t42 4.5q31 5 59 -9t47.5 -38.5t30 -55t7.5 -59.5q-12 -38 -53 -81t-99.5 -88.5t-128 -92t-137.5 -91.5t-129 -87.5
t-102 -79.5q31 6 64.5 12t66 10t62.5 4.5t55 -3.5q66 -11 102.5 -38.5t47 -57.5t-5 -56.5t-53.5 -35.5q-4 -1 -0.5 4t2 13t-13.5 18t-47 21q-20 6 -55.5 5.5t-79 -4.5t-92.5 -9.5t-95.5 -10t-87.5 -6t-69 3.5q-6 1 -11.5 16.5t-7 33.5t1.5 32.5t15 13.5z" />
    <glyph glyph-name="a" unicode="a" horiz-adv-x="439" 
d="M363 42q6 -3 4 -12t-9.5 -19t-18.5 -17.5t-22 -5.5q-20 2 -33.5 13.5t-22 27t-12.5 33.5t-4 33q-1 13 1 27t6 30q-25 -37 -46.5 -67t-40 -51t-34 -32t-28.5 -10q-9 0 -23.5 7t-29.5 20.5t-26 32.5t-12 42q-2 20 8 52t28.5 68t43.5 73.5t54 68t60 51t61 23.5
q13 1 27.5 -3.5t28 -12.5t24.5 -18.5t17 -20.5q25 34 41 47q9 6 23 -0.5t27 -18t21.5 -23.5t5.5 -16q-10 -13 -25 -36t-31.5 -51t-33.5 -59.5t-31 -61.5t-23 -56t-9 -44q0 -7 4 -9.5t9.5 -3t11.5 -0.5t9 -1zM122 81q9 1 32.5 25.5t53.5 61.5t62 80t59 81q-3 13 -10 26
t-12 11q-23 -7 -48.5 -32t-49 -57t-44 -67.5t-33 -64.5t-16.5 -47.5t6 -16.5z" />
    <glyph glyph-name="a.01" unicode="&#xe001;" horiz-adv-x="757" 
d="M370 -58q-26 4 -49.5 17.5t-41.5 34t-29 48.5t-12 62v12.5t2 12.5q-50 -65 -88 -105t-60 -38q-9 0 -23 9.5t-28 26t-24 37.5t-10 44q-1 20 10.5 51.5t31.5 67t47 71t57 65t62 48.5t62 21q13 0 27 -5t27 -14t23.5 -19.5t15.5 -20.5q10 13 20 25t21 25q9 5 24 1t27.5 -13.5
t19 -22.5t-1.5 -25q-11 -18 -29 -47.5t-38.5 -64t-39 -71.5t-29 -70t-9.5 -58.5t19 -36.5q20 -13 48 -4.5t59 31.5t62.5 56.5t59 72t48.5 79t30 75.5q5 19 17 16t24 -19t20.5 -42t6.5 -53q-3 -45 -33.5 -98.5t-80 -98t-113 -70t-132.5 -13.5zM116 85q9 1 34 24.5t56.5 58.5
t65.5 77t62 79q-2 12 -8.5 25t-11.5 12q-24 -7 -50 -30t-51.5 -54.5t-47 -65.5t-36 -62.5t-19 -47t5.5 -16.5z" />
    <glyph glyph-name="a.02" unicode="&#xe002;" horiz-adv-x="991" 
d="M356 -14q-24 1 -46.5 10.5t-41 26t-31 39t-16.5 49.5q-45 -58 -76.5 -92t-52.5 -33q-9 0 -23 9.5t-28 26t-24 37.5t-10 44q-1 20 10.5 51.5t31.5 67t47 71t57 65t62 48.5t62 21q20 1 44 -13t39 -31q10 14 18 23.5t14 14.5q9 6 22 -0.5t24.5 -18t19 -23t4.5 -15.5
q-11 -15 -28 -41.5t-36 -58.5t-37.5 -67.5t-31.5 -66.5q-6 -26 -6.5 -41t20.5 -23t60.5 2t89 29.5t104 44.5t105 47t92.5 37t66 15q52 0 82 -20t43 -44t10.5 -45t-15.5 -22q-6 1 -9 4t-6 6.5t-8.5 6t-17.5 2.5q-37 0 -85.5 -11t-103 -27t-111 -34.5t-109 -34.5t-98 -26.5
t-76.5 -9.5zM290 267q10 19 20 36.5t20 34.5q-3 10 -7.5 17t-8.5 6q-24 -7 -50 -30t-51.5 -54.5t-47 -65.5t-36 -62.5t-19 -47t5.5 -16.5q8 0 26 16.5t42 42t51.5 58t54.5 65.5z" />
    <glyph glyph-name="a.03" unicode="&#xe003;" horiz-adv-x="371" 
d="M291 -8q-24 -6 -42.5 4.5t-31 29.5t-18.5 43.5t-4 45.5q-5 -7 -16.5 -25t-25 -37t-27.5 -34.5t-25 -16.5q-12 -3 -28.5 6.5t-31.5 25.5t-26 36t-12 39q-1 26 9.5 59t29 68t44 68.5t55 60t61 42.5t63.5 16q10 0 20.5 -4.5t20.5 -12t17.5 -16t10.5 -17.5q14 -3 25 -12
t18.5 -19t10 -19.5t-1.5 -14.5q-15 -20 -31.5 -47.5t-31 -58.5t-24.5 -62.5t-11 -58.5q0 -5 14 5.5t35 28.5t46 40t47 40.5t37 30t17 8.5q1 -2 -10 -20t-28.5 -44t-40 -56t-44.5 -56t-41 -44.5t-29 -21.5zM110 97q6 -3 22.5 14t38 44t45.5 59.5t43.5 61t33 48t14.5 20.5
q-23 6 -49.5 -9t-51.5 -40.5t-47 -58t-36 -62t-18.5 -51t5.5 -26.5z" />
    <glyph glyph-name="a.04" unicode="&#xe004;" horiz-adv-x="430" 
d="M341 -16q6 -2 4 -11.5t-9 -19.5t-17.5 -17.5t-22.5 -6.5q-14 1 -25.5 11.5t-20 26t-13.5 32.5t-6 30q-2 26 1 54t11 57q-27 -35 -49.5 -64t-41 -49t-33.5 -31t-27 -10q-9 0 -23 9.5t-28 26t-24 37.5t-10 44q-1 20 10.5 51.5t31.5 67t47 71t57 65t62 48.5t62 21
q12 0 25.5 -4.5t26 -12.5t23 -18t16.5 -20q13 16 25 27t21 17t21.5 -2t23.5 -20.5t17 -25t3 -15.5q-11 -12 -28 -38.5t-36 -60t-39 -71.5t-35.5 -73.5t-25 -65t-9.5 -47.5q0 -7 4 -9.5t9.5 -2.5h11.5t10 -1zM316 300q5 8 8.5 14.5t8.5 12.5q-2 12 -8 23.5t-11 10.5
q-24 -7 -50 -30t-51.5 -54.5t-47 -65.5t-36 -62.5t-19 -47t5.5 -16.5q9 0 30.5 20.5t50 51.5t60 69t59.5 74z" />
    <glyph glyph-name="aacute" unicode="&#xe1;" horiz-adv-x="428" 
d="M363 42q6 -3 4 -12t-9.5 -19t-18.5 -17.5t-22 -5.5q-20 2 -33.5 13.5t-22 27t-12.5 33.5t-4 33q-1 13 1 27t6 30q-25 -37 -46.5 -67t-40 -51t-34 -32t-28.5 -10q-9 0 -23.5 7t-29.5 20.5t-26 32.5t-12 42q-2 20 8 52t28.5 68t43.5 73.5t54 68t60 51t61 23.5
q13 1 27.5 -3.5t28 -12.5t24.5 -18.5t17 -20.5q25 34 41 47q9 6 23 -0.5t27 -18t21.5 -23.5t5.5 -16q-10 -13 -25 -36t-31.5 -51t-33.5 -59.5t-31 -61.5t-23 -56t-9 -44q0 -7 4 -9.5t9.5 -3t11.5 -0.5t9 -1zM122 81q9 1 32.5 25.5t53.5 61.5t62 80t59 81q-3 13 -10 26
t-12 11q-23 -7 -48.5 -32t-49 -57t-44 -67.5t-33 -64.5t-16.5 -47.5t6 -16.5zM406 623q4 13 16 15t25 -3t23 -16.5t10 -25.5q0 -16 -18.5 -34.5t-43 -34.5t-47.5 -27.5t-32 -14.5q-14 -3 -22.5 0.5t-12.5 9.5t-4.5 12t2.5 8q16 14 33 30t32 31.5t25.5 28.5t13.5 21z" />
    <glyph glyph-name="abreve" unicode="&#x103;" horiz-adv-x="428" 
d="M363 42q6 -3 4 -12t-9.5 -19t-18.5 -17.5t-22 -5.5q-20 2 -33.5 13.5t-22 27t-12.5 33.5t-4 33q-1 13 1 27t6 30q-25 -37 -46.5 -67t-40 -51t-34 -32t-28.5 -10q-9 0 -23.5 7t-29.5 20.5t-26 32.5t-12 42q-2 20 8 52t28.5 68t43.5 73.5t54 68t60 51t61 23.5
q13 1 27.5 -3.5t28 -12.5t24.5 -18.5t17 -20.5q25 34 41 47q9 6 23 -0.5t27 -18t21.5 -23.5t5.5 -16q-10 -13 -25 -36t-31.5 -51t-33.5 -59.5t-31 -61.5t-23 -56t-9 -44q0 -7 4 -9.5t9.5 -3t11.5 -0.5t9 -1zM122 81q9 1 32.5 25.5t53.5 61.5t62 80t59 81q-3 13 -10 26
t-12 11q-23 -7 -48.5 -32t-49 -57t-44 -67.5t-33 -64.5t-16.5 -47.5t6 -16.5zM363 592q-5 -8 -11.5 -8t-6.5 -6q1 -17 14.5 -26.5t34.5 -14.5q9 -2 21.5 -3t25 2t22.5 11.5t13 26.5q1 9 4 11.5t6 0.5t5.5 -6.5t2.5 -8.5q2 -9 1.5 -23.5t-6.5 -30t-17.5 -29t-32.5 -19.5
q-8 -3 -26 -2.5t-38.5 6.5t-39 19.5t-26.5 37.5q-8 21 0.5 39t17.5 29q4 6 12 9t15 2.5t10.5 -4.5t-1.5 -13z" />
    <glyph glyph-name="acircumflex" unicode="&#xe2;" horiz-adv-x="428" 
d="M363 42q6 -3 4 -12t-9.5 -19t-18.5 -17.5t-22 -5.5q-20 2 -33.5 13.5t-22 27t-12.5 33.5t-4 33q-1 13 1 27t6 30q-25 -37 -46.5 -67t-40 -51t-34 -32t-28.5 -10q-9 0 -23.5 7t-29.5 20.5t-26 32.5t-12 42q-2 20 8 52t28.5 68t43.5 73.5t54 68t60 51t61 23.5
q13 1 27.5 -3.5t28 -12.5t24.5 -18.5t17 -20.5q25 34 41 47q9 6 23 -0.5t27 -18t21.5 -23.5t5.5 -16q-10 -13 -25 -36t-31.5 -51t-33.5 -59.5t-31 -61.5t-23 -56t-9 -44q0 -7 4 -9.5t9.5 -3t11.5 -0.5t9 -1zM122 81q9 1 32.5 25.5t53.5 61.5t62 80t59 81q-3 13 -10 26
t-12 11q-23 -7 -48.5 -32t-49 -57t-44 -67.5t-33 -64.5t-16.5 -47.5t6 -16.5zM282 498q0 1 13 12.5t32.5 25t41.5 24.5t39 12q7 0 21 -12.5t27 -28.5t20.5 -30.5t2.5 -17.5q-1 -2 -7 -3t-14.5 -1t-17 0.5t-14.5 2.5q-2 1 -9.5 6.5t-25.5 30.5q-15 -12 -25 -18t-16.5 -9
t-9.5 -3.5l-3 -0.5q-5 -1 -14.5 -0.5t-18.5 2t-15.5 3.5t-6.5 5z" />
    <glyph glyph-name="acute" unicode="&#xb4;" horiz-adv-x="309" 
d="M168 653q4 13 16 15t25 -3t23 -16.5t10 -25.5q0 -16 -18.5 -34.5t-43 -34.5t-47.5 -27.5t-32 -14.5q-14 -3 -22.5 0.5t-12.5 9.5t-4.5 12t2.5 8q16 14 33 30t32 31.5t25.5 28.5t13.5 21z" />
    <glyph glyph-name="adieresis" unicode="&#xe4;" horiz-adv-x="428" 
d="M363 42q6 -3 4 -12t-9.5 -19t-18.5 -17.5t-22 -5.5q-20 2 -33.5 13.5t-22 27t-12.5 33.5t-4 33q-1 13 1 27t6 30q-25 -37 -46.5 -67t-40 -51t-34 -32t-28.5 -10q-9 0 -23.5 7t-29.5 20.5t-26 32.5t-12 42q-2 20 8 52t28.5 68t43.5 73.5t54 68t60 51t61 23.5
q13 1 27.5 -3.5t28 -12.5t24.5 -18.5t17 -20.5q25 34 41 47q9 6 23 -0.5t27 -18t21.5 -23.5t5.5 -16q-10 -13 -25 -36t-31.5 -51t-33.5 -59.5t-31 -61.5t-23 -56t-9 -44q0 -7 4 -9.5t9.5 -3t11.5 -0.5t9 -1zM122 81q9 1 32.5 25.5t53.5 61.5t62 80t59 81q-3 13 -10 26
t-12 11q-23 -7 -48.5 -32t-49 -57t-44 -67.5t-33 -64.5t-16.5 -47.5t6 -16.5zM330 592q30 5 48 -6.5t20 -20.5q2 -11 -7 -29.5t-35 -31.5q-16 -5 -25 -4q-10 1 -19 6.5t-12 22.5q-5 22 5.5 40.5t24.5 22.5zM490 572q30 5 48 -6.5t20 -20.5q2 -11 -7 -29.5t-35 -31.5
q-16 -5 -25 -4q-10 1 -19 6.5t-12 22.5q-5 22 5.5 40.5t24.5 22.5z" />
    <glyph glyph-name="ae" unicode="&#xe6;" horiz-adv-x="570" 
d="M572 299q-8 -41 -38 -72.5t-67.5 -53.5t-74 -34t-57.5 -15q-5 -20 -1.5 -41t17.5 -27q13 -6 32 -2.5t42.5 14t50.5 26.5t55 34q15 13 20.5 13t6 -7t-2.5 -17.5t-6 -17.5q-5 -10 -17 -30.5t-33.5 -41t-53.5 -34.5t-75 -10q-14 1 -32 8.5t-36 21t-33.5 33t-24.5 45.5
q-30 -46 -56 -75.5t-45 -31.5q-9 -2 -26.5 1t-36.5 9.5t-35 17.5t-23 26q-8 14 -7.5 38t8.5 52t22.5 58t35 56t46 45t54.5 27q12 3 27.5 2.5t31 -3.5t29.5 -7.5t24 -10.5l21 44q-54 5 -89.5 19t-50.5 39q-11 19 -3 25.5t37 4.5q19 -2 40 -1.5t40.5 1t37 1t29.5 -0.5
q31 -3 46 -29q30 24 54 27t46.5 -9t39.5 -31t26 -42.5t5 -43.5zM135 48q8 2 23.5 22.5t34.5 50.5t40 66t40 71q-8 7 -17 13t-14 4q-22 -9 -40.5 -30t-33.5 -47t-25.5 -54t-15.5 -50t-3 -35.5t11 -10.5zM500 348q-10 6 -23.5 -0.5t-29 -20t-31.5 -33t-29.5 -40.5t-24 -40.5
t-15.5 -34.5q33 12 64 37.5t54 53t33.5 50.5t1.5 28z" />
    <glyph glyph-name="agrave" unicode="&#xe0;" horiz-adv-x="428" 
d="M363 42q6 -3 4 -12t-9.5 -19t-18.5 -17.5t-22 -5.5q-20 2 -33.5 13.5t-22 27t-12.5 33.5t-4 33q-1 13 1 27t6 30q-25 -37 -46.5 -67t-40 -51t-34 -32t-28.5 -10q-9 0 -23.5 7t-29.5 20.5t-26 32.5t-12 42q-2 20 8 52t28.5 68t43.5 73.5t54 68t60 51t61 23.5
q13 1 27.5 -3.5t28 -12.5t24.5 -18.5t17 -20.5q25 34 41 47q9 6 23 -0.5t27 -18t21.5 -23.5t5.5 -16q-10 -13 -25 -36t-31.5 -51t-33.5 -59.5t-31 -61.5t-23 -56t-9 -44q0 -7 4 -9.5t9.5 -3t11.5 -0.5t9 -1zM122 81q9 1 32.5 25.5t53.5 61.5t62 80t59 81q-3 13 -10 26
t-12 11q-23 -7 -48.5 -32t-49 -57t-44 -67.5t-33 -64.5t-16.5 -47.5t6 -16.5zM343 650q13 0 15.5 -5t-2.5 -10q-4 -4 -2 -18t7.5 -32t14 -35.5t18.5 -27.5q-2 -10 -6 -14q-4 -5 -12.5 -8.5t-23.5 -1.5q-9 1 -23 13t-26.5 28.5t-22 35t-9.5 33.5q0 6 6 13t16 13.5t23 11
t27 4.5z" />
    <glyph glyph-name="ampersand" unicode="&#x26;" horiz-adv-x="735" 
d="M271 403q-8 8 -15.5 22t-12.5 31.5t-7 35.5t1 34q8 47 38.5 84t73 62.5t91.5 39t96 15.5q28 1 51.5 -3t41.5 -10t30.5 -12t17.5 -10q26 -21 37 -55t7 -69q-4 -33 -21.5 -50.5t-36 -22.5t-33 0.5t-11.5 18.5q1 6 11.5 15.5l21 19t16.5 19t-1 15.5q-29 21 -65.5 28.5
t-74.5 3.5t-75 -17t-66.5 -31.5t-48.5 -41t-21 -44.5q-3 -11 -2 -22.5t13 -20.5zM52 135q2 46 23.5 90.5t55.5 82.5t76.5 68.5t87 50.5t87 26.5t76.5 -3.5q13 -4 21.5 -16.5t12 -28t2 -30.5t-9.5 -22q-16 6 -51.5 0t-78 -23t-86.5 -43.5t-78.5 -60.5t-54 -74t-11.5 -85
q10 -28 38.5 -35.5t65.5 0t77.5 25.5t75.5 41.5t59 48t28 44.5q7 34 15 46t13.5 8.5t6.5 -19t-6 -36.5q-10 -46 -37.5 -91.5t-65.5 -81.5t-84 -57t-92 -17q-75 13 -115.5 65t-50.5 127zM375 -122q-6 42 6 104t36.5 129t60 130t76.5 107q13 14 30.5 5t31.5 -28.5t20.5 -42.5
t-2.5 -36q-42 -64 -76.5 -122.5t-59.5 -110t-39.5 -96.5t-15.5 -82q5 -4 11.5 -4.5t12 0.5t10 2t5.5 0q2 -2 -1.5 -9t-10 -14t-15.5 -12.5t-18 -5.5q-17 0 -36.5 19.5t-25.5 66.5zM434 217q-23 8 -35.5 22.5t-15.5 27t2 20t19 1.5q16 -9 41 -6.5t54 10t61 16.5t63 14
q27 4 50 -1t39.5 -16t24.5 -28.5t5 -39.5q-17 0 -50.5 -9t-75.5 -16.5t-89 -8.5t-93 14z" />
    <glyph glyph-name="aogonek" unicode="&#x105;" horiz-adv-x="428" 
d="M363 42q6 -3 4 -12t-9.5 -19t-18.5 -17.5t-22 -5.5q-18 3 -32 12q-19 -12 -37 -26.5t-30 -29.5t-14 -30t10 -27q3 -5 17 -10.5t33.5 -7.5t42 1.5t42.5 17.5q16 11 22.5 12.5t7 -3t-2.5 -12.5t-7 -14q-9 -16 -22 -31.5t-29.5 -26t-38.5 -13.5t-49 7q-12 3 -29.5 23
t-29.5 47.5t-13 59t19 56.5q17 18 38 30t41 16q-6 14 -8.5 28.5t-2.5 27.5q-1 13 1 27t6 30q-25 -37 -46.5 -67t-40 -51t-34 -32t-28.5 -10q-9 0 -23.5 7t-29.5 20.5t-26 32.5t-12 42q-2 20 8 52t28.5 68t43.5 73.5t54 68t60 51t61 23.5q13 1 27.5 -3.5t28 -12.5t24.5 -18.5
t17 -20.5q25 34 41 47q9 6 23 -0.5t27 -18t21.5 -23.5t5.5 -16q-10 -13 -25 -36t-31.5 -51t-33.5 -59.5t-31 -61.5t-23 -56t-9 -44q0 -7 4 -9.5t9.5 -3t11.5 -0.5t9 -1zM122 81q9 1 32.5 25.5t53.5 61.5t62 80t59 81q-3 13 -10 26t-12 11q-23 -7 -48.5 -32t-49 -57
t-44 -67.5t-33 -64.5t-16.5 -47.5t6 -16.5z" />
    <glyph glyph-name="aring" unicode="&#xe5;" horiz-adv-x="428" 
d="M363 42q6 -3 4 -12t-9.5 -19t-18.5 -17.5t-22 -5.5q-20 2 -33.5 13.5t-22 27t-12.5 33.5t-4 33q-1 13 1 27t6 30q-25 -37 -46.5 -67t-40 -51t-34 -32t-28.5 -10q-9 0 -23.5 7t-29.5 20.5t-26 32.5t-12 42q-2 20 8 52t28.5 68t43.5 73.5t54 68t60 51t61 23.5
q13 1 27.5 -3.5t28 -12.5t24.5 -18.5t17 -20.5q25 34 41 47q9 6 23 -0.5t27 -18t21.5 -23.5t5.5 -16q-10 -13 -25 -36t-31.5 -51t-33.5 -59.5t-31 -61.5t-23 -56t-9 -44q0 -7 4 -9.5t9.5 -3t11.5 -0.5t9 -1zM122 81q9 1 32.5 25.5t53.5 61.5t62 80t59 81q-3 13 -10 26
t-12 11q-23 -7 -48.5 -32t-49 -57t-44 -67.5t-33 -64.5t-16.5 -47.5t6 -16.5zM469 543q2 -6 1 -16.5t-5 -21t-9.5 -19.5t-12.5 -13q-15 -9 -34.5 -10t-37 6t-30.5 20t-17 31q-2 9 -0.5 21.5t5.5 24.5t10 21.5t13 12.5q14 7 33 7.5t36 -7t30.5 -22t17.5 -35.5zM349 541
q2 -11 15.5 -17.5t28.5 -9t27.5 0.5t13.5 11q1 9 -5.5 18t-17.5 14t-24 6t-25 -6q-18 -7 -13 -17z" />
    <glyph glyph-name="asciicircum" unicode="^" horiz-adv-x="354" 
d="M66 367q0 3 10.5 14.5t27.5 27.5t38.5 33.5t45 31t46.5 21t42 3.5q3 -1 13.5 -11.5t24 -26t28.5 -33.5t27.5 -33.5t21 -27.5t8.5 -14q0 -4 -10.5 -6.5t-25 -3.5t-29 0t-23.5 5q-3 2 -13.5 14t-21.5 26q-7 8 -13.5 17.5t-14.5 19.5l-42 -34q-17 -13 -31 -24t-17 -12
q-8 -2 -24 -1.5t-31 2.5t-26.5 5t-10.5 7z" />
    <glyph glyph-name="asciitilde" unicode="~" horiz-adv-x="413" 
d="M115 293q12 0 32.5 -5t44.5 -10.5t49.5 -10t48.5 -2.5q24 1 37.5 7.5t21.5 14t14 13.5t14 8q10 2 11 -16t-7.5 -41t-27.5 -44t-49 -25q-29 -5 -58 -1t-55.5 10t-49 10.5t-38.5 2.5q-14 -2 -23.5 -7t-16 -10.5t-11.5 -9.5t-10 -5q-11 -2 -14.5 16t3.5 41t27 42.5t57 21.5z
" />
    <glyph glyph-name="asterisk" unicode="*" horiz-adv-x="187" 
d="M159 439l-26 -54q-2 -5 -6.5 -5t-9.5 1q-14 6 -18 24.5t0 31.5l2 4q1 2 1.5 4.5t2.5 5.5q-8 -1 -13 -1.5t-7 -0.5q-14 -3 -24 6t-14.5 21t-3.5 23t9 13l50 5l-32 43q-6 8 0 13.5t16.5 7t23 -1t18.5 -9.5q0 -1 4.5 -6.5t11.5 -14.5q8 19 13 32.5t5 15.5q2 5 4.5 8.5
t10.5 0.5q6 -3 13 -10t12.5 -15.5t7.5 -18t-2 -16.5l-10 -20l59 4q7 1 6.5 -6t-4.5 -17t-10.5 -19t-12.5 -12l-25 -9q14 -17 23 -27.5t11 -11.5q8 -9 2 -16q-4 -4 -13 -7t-19.5 -4.5t-20 0t-13.5 7.5z" />
    <glyph glyph-name="at" unicode="@" horiz-adv-x="737" 
d="M735 324q-1 -22 -8.5 -51t-21 -60.5t-32.5 -63t-42 -57t-50 -43t-56 -21.5q-14 1 -32.5 7t-35.5 19.5t-29 35t-12 53.5q-5 -6 -13.5 -19.5t-19.5 -27t-23 -24.5t-23 -12q-12 -2 -28 5.5t-30.5 21t-25.5 30.5t-12 33q-1 22 8.5 50t27 57.5t41.5 57.5t52 50.5t59 36
t62 13.5q10 0 20.5 -4t20 -10t17 -13.5t10.5 -14.5q14 -3 26.5 -9t21 -12.5t12.5 -13t1 -10.5q-5 -7 -16.5 -23.5t-25.5 -38.5t-29 -46t-27 -46q-19 -33 -23 -54t4 -27t26.5 4.5t45.5 39.5q20 22 39 51t34 60t23.5 62.5t6.5 57.5q-2 20 -9 40.5t-23 36.5t-41 26.5t-63 10.5
q-37 0 -79 -14.5t-83 -40t-78 -61.5t-64.5 -78t-42.5 -89t-12 -96q3 -50 23 -74t48.5 -31.5t61.5 -3t62.5 12t50.5 13.5t26 1q6 -6 -3 -21t-26.5 -30.5t-40 -27.5t-43.5 -12q-32 0 -71.5 9.5t-75.5 29t-63.5 50.5t-34.5 74q-9 60 4.5 117t43.5 107.5t73 92.5t92 71.5
t101.5 45t102.5 12.5q60 -3 102.5 -24.5t69 -52t38.5 -67.5t11 -71zM349 153q7 0 23 14t36 35.5t41.5 46.5t40 46.5t30.5 36.5t13 16q-23 5 -48 -7.5t-49 -34t-44 -48.5t-33 -50t-16.5 -39t6.5 -16z" />
    <glyph glyph-name="atilde" unicode="&#xe3;" horiz-adv-x="428" 
d="M363 42q6 -3 4 -12t-9.5 -19t-18.5 -17.5t-22 -5.5q-20 2 -33.5 13.5t-22 27t-12.5 33.5t-4 33q-1 13 1 27t6 30q-25 -37 -46.5 -67t-40 -51t-34 -32t-28.5 -10q-9 0 -23.5 7t-29.5 20.5t-26 32.5t-12 42q-2 20 8 52t28.5 68t43.5 73.5t54 68t60 51t61 23.5
q13 1 27.5 -3.5t28 -12.5t24.5 -18.5t17 -20.5q25 34 41 47q9 6 23 -0.5t27 -18t21.5 -23.5t5.5 -16q-10 -13 -25 -36t-31.5 -51t-33.5 -59.5t-31 -61.5t-23 -56t-9 -44q0 -7 4 -9.5t9.5 -3t11.5 -0.5t9 -1zM122 81q9 1 32.5 25.5t53.5 61.5t62 80t59 81q-3 13 -10 26
t-12 11q-23 -7 -48.5 -32t-49 -57t-44 -67.5t-33 -64.5t-16.5 -47.5t6 -16.5zM374 577q15 -2 34.5 -7.5t52.5 -15.5q29 -5 42.5 0.5t24.5 5.5q6 0 3 -12t-13 -25.5t-26 -25t-35 -10.5q-18 1 -33 4.5t-28 8t-23.5 8.5t-20.5 6q-21 3 -31 -2t-17 -5q-11 0 -8 12.5t14.5 26.5
t29 24.5t34.5 6.5z" />
    <glyph glyph-name="b" unicode="b" horiz-adv-x="419" 
d="M135 52q1 10 4 9.5t9 -3.5t15 -5.5t22 5.5q10 6 26 28t34 51.5t35.5 63.5t30.5 65t19 56t1 37q-3 7 -19.5 -8t-40 -44.5t-50.5 -70t-52.5 -83.5t-45.5 -85.5t-29 -76.5q0 -4 -2.5 -13.5t-16.5 -9.5q-11 1 -23 9t-22.5 19t-17 23.5t-6.5 24.5q-5 25 9 75.5t38.5 112.5
t55.5 128.5t60.5 124t53.5 99t34 53.5q9 10 23.5 5.5t28 -15t22.5 -24t5 -21.5q-9 -21 -29 -60t-43 -83t-45 -87.5t-35 -73.5q21 26 41 50.5t40 44t40 31.5t41 12q14 -2 28 -11.5t25.5 -22t18.5 -28t7 -29.5q0 -18 -7.5 -49.5t-21.5 -67t-33.5 -72.5t-44 -67.5t-52.5 -50
t-59 -20.5q-16 -1 -30 1.5t-24 9t-15 17t-3 26.5z" />
    <glyph glyph-name="backslash" unicode="\" horiz-adv-x="347" 
d="M22 719q7 -3 28 -40.5t49.5 -99t61.5 -140.5t63.5 -165t55 -173t36.5 -164q1 -15 -1.5 -40.5t-9 -48.5t-16.5 -37.5t-23 -8.5q-8 4 -7 10.5t-3 23.5q-25 122 -57 229t-65 197.5t-66 164t-61 129t-48.5 91.5t-29.5 52q-5 6 7 10.5t29.5 7.5t34.5 3.5t22 -1.5z" />
    <glyph glyph-name="bar" unicode="|" horiz-adv-x="293" 
d="M269 833q4 1 18 -1t28 -6.5t24.5 -11.5t8.5 -16q-4 -17 -19 -69.5t-36.5 -129.5t-47.5 -172.5t-51.5 -197.5t-49 -205.5t-39.5 -195.5q-3 -16 -17 -21t-30.5 -3.5t-29.5 8.5t-13 16q4 49 16 117.5t29.5 148t38 164.5t42 167t42.5 155t38.5 129t30 89t17.5 35z" />
    <glyph glyph-name="braceleft" unicode="{" horiz-adv-x="390" 
d="M586 874q30 -6 45.5 -22.5t19.5 -33t-3 -28.5t-22 -9q-3 0 -5.5 4.5t-6 10t-7.5 10t-8 4.5q-23 4 -45 -24.5t-45 -73.5t-48 -100t-55.5 -104t-67.5 -84.5t-83 -42.5q12 -39 4 -94.5t-25.5 -115.5t-40 -119.5t-39 -107.5t-22 -78.5t10.5 -33.5q19 -4 37.5 -1.5t35.5 -2.5
q8 -1 3 -10.5t-18.5 -19.5t-34.5 -17t-46 -2q-27 8 -42 23.5t-22 35.5t-8 43t-1 47q2 38 14.5 82t28.5 89.5t31.5 90.5t24 85t7 72t-20.5 53q-7 6 -9 17.5t-0.5 21t7.5 15t16 1.5q30 -10 59 5t56 46t53 73.5t50.5 86.5t49 84.5t48.5 68.5q12 14 24.5 25.5t27 19t32 10.5
t40.5 0z" />
    <glyph glyph-name="braceright" unicode="}" horiz-adv-x="510" 
d="M97 -225q-30 6 -45.5 22.5t-19.5 33t3 28.5t22 9q3 0 5.5 -4.5t6 -10t7 -10t8.5 -4.5q23 -4 40.5 28t33.5 83t33.5 112t41.5 115.5t56.5 94t78.5 46.5q-12 39 -5 91t24 106.5t38 107.5t36.5 95t20 69t-11.5 30q-19 4 -37.5 1.5t-35.5 2.5q-8 1 -3 10.5t18.5 19.5
t34.5 16.5t46 2.5q27 -8 42 -23.5t22 -35.5t8 -43t1 -47q-2 -38 -14 -78t-26.5 -80t-29 -78.5t-22 -73t-5 -63.5t21.5 -49q7 -6 9 -17.5t0.5 -21t-7.5 -15.5t-16 -1q-31 10 -55 -9t-44.5 -55.5t-38.5 -85t-36 -98t-38 -94t-44 -72.5q-12 -14 -24.5 -25.5t-27 -19t-32 -10.5
t-40.5 0z" />
    <glyph glyph-name="bracketleft" unicode="[" horiz-adv-x="302" 
d="M494 742q14 0 29 -8.5t27 -20t19.5 -24.5t7.5 -22q0 -11 -23 -11h-149q-14 -19 -36 -60.5t-50.5 -98t-62 -125t-68 -141t-70 -146.5t-67.5 -142h71q16 0 31 -8t27 -19.5t19 -24.5t7 -22q0 -7 -5.5 -9t-19.5 -2q-4 0 -23 -0.5t-41.5 -1.5t-41.5 -1.5t-23 -0.5
q-14 0 -33 9.5t-35.5 23.5t-28 29t-11.5 27q17 47 43 111t57 135.5t65 144.5t66 138.5t61 117.5t51 81q22 23 46 37t50 21.5t54 10t57 2.5z" />
    <glyph glyph-name="bracketright" unicode="]" horiz-adv-x="613" 
d="M-68 -139q-16 0 -29 8t-22.5 19.5t-15 24t-5.5 21.5q0 10 24 10q4 0 16.5 -1t30 -2.5t38 -2.5t40.5 -1q16 13 41 52.5t56 96t66 126.5t71.5 145.5t71.5 153t66 148.5h-70q-16 0 -31 8t-27 19.5t-19 24.5t-7 22q0 6 5.5 8.5t19.5 2.5q3 0 22.5 0.5t41.5 1t41.5 1t22.5 0.5
q14 0 33 -9.5t35.5 -23t28 -28.5t11.5 -27q-17 -46 -46 -116t-64.5 -149.5t-75 -162.5t-77 -156.5t-70 -130.5t-53.5 -85q-59 -7 -97 -5t-73 7z" />
    <glyph glyph-name="breve" unicode="&#x2d8;" horiz-adv-x="211" 
d="M66 698q-5 -8 -11.5 -8t-6.5 -6q1 -17 14.5 -26.5t34.5 -14.5q9 -2 21.5 -3t25 2t22.5 11.5t13 26.5q1 9 4 11.5t6 0.5t5.5 -6.5t2.5 -8.5q2 -9 1.5 -23.5t-6.5 -30t-17.5 -29t-32.5 -19.5q-8 -3 -26 -2.5t-38.5 6.5t-39 19.5t-26.5 37.5q-8 21 0.5 39t17.5 29q4 6 12 9
t15 2.5t10.5 -4.5t-1.5 -13z" />
    <glyph glyph-name="bullet" unicode="&#x2022;" horiz-adv-x="208" 
d="M92 276q22 4 37.5 -1t25 -13.5t13.5 -18t4 -14.5v-19t-5.5 -28t-18 -29t-36.5 -22q-15 0 -30 5q-12 5 -24.5 14.5t-19.5 27.5q-5 14 -0.5 30.5t14 31t21 24.5t19.5 12z" />
    <glyph glyph-name="c" unicode="c" horiz-adv-x="350" 
d="M280 262q-15 -5 -18.5 0.5t1.5 16.5q7 15 11 29.5t5 25.5t-1 18t-7 6q-11 -1 -32.5 -20t-44.5 -47.5t-45 -62.5t-35 -66t-13 -57.5t20 -36.5q13 -7 31 -4.5t40 12.5t46.5 25.5t50.5 34.5q19 16 25 16.5t5 -7t-6 -18t-8 -17.5q-5 -9 -17 -30.5t-31 -43.5t-45 -37.5
t-59 -13.5q-15 0 -40 11t-48.5 30.5t-40.5 47.5t-17 62q0 47 24.5 97.5t59 93t73 71.5t67.5 32q18 2 39.5 -4.5t40 -19t31 -29.5t12.5 -36q0 -11 -6.5 -23.5t-17.5 -23.5t-24 -19.5t-26 -12.5z" />
    <glyph glyph-name="cacute" unicode="&#x107;" horiz-adv-x="350" 
d="M280 262q-15 -5 -18.5 0.5t1.5 16.5q7 15 11 29.5t5 25.5t-1 18t-7 6q-11 -1 -32.5 -20t-44.5 -47.5t-45 -62.5t-35 -66t-13 -57.5t20 -36.5q13 -7 31 -4.5t40 12.5t46.5 25.5t50.5 34.5q19 16 25 16.5t5 -7t-6 -18t-8 -17.5q-5 -9 -17 -30.5t-31 -43.5t-45 -37.5
t-59 -13.5q-15 0 -40 11t-48.5 30.5t-40.5 47.5t-17 62q0 47 24.5 97.5t59 93t73 71.5t67.5 32q18 2 39.5 -4.5t40 -19t31 -29.5t12.5 -36q0 -11 -6.5 -23.5t-17.5 -23.5t-24 -19.5t-26 -12.5zM378 606q4 13 16 15t25 -3t23 -16.5t10 -25.5q0 -16 -18.5 -34.5t-43 -34.5
t-47.5 -27.5t-32 -14.5q-14 -3 -22.5 0.5t-12.5 9.5t-4.5 12t2.5 8q16 14 33 30t32 31.5t25.5 28.5t13.5 21z" />
    <glyph glyph-name="caron" unicode="&#x2c7;" horiz-adv-x="209" 
d="M203 537q0 -3 -13 -16.5t-32 -28t-40.5 -25.5t-38.5 -8q-10 -2 -22.5 9t-24 26.5t-19 30.5t-7.5 21q0 2 6 3.5t14.5 2t17.5 0t14 -2.5l37 -32q14 12 24 17.5t16 7.5t9 2.5t4 0.5q5 1 14.5 1t18.5 -1.5t15.5 -3.5t6.5 -4z" />
    <glyph glyph-name="ccaron" unicode="&#x10d;" horiz-adv-x="350" 
d="M280 262q-15 -5 -18.5 0.5t1.5 16.5q7 15 11 29.5t5 25.5t-1 18t-7 6q-11 -1 -32.5 -20t-44.5 -47.5t-45 -62.5t-35 -66t-13 -57.5t20 -36.5q13 -7 31 -4.5t40 12.5t46.5 25.5t50.5 34.5q19 16 25 16.5t5 -7t-6 -18t-8 -17.5q-5 -9 -17 -30.5t-31 -43.5t-45 -37.5
t-59 -13.5q-15 0 -40 11t-48.5 30.5t-40.5 47.5t-17 62q0 47 24.5 97.5t59 93t73 71.5t67.5 32q18 2 39.5 -4.5t40 -19t31 -29.5t12.5 -36q0 -11 -6.5 -23.5t-17.5 -23.5t-24 -19.5t-26 -12.5zM442 543q0 -3 -13 -16.5t-32 -28t-40.5 -25.5t-38.5 -8q-10 -2 -22.5 9
t-24 26.5t-19 30.5t-7.5 21q0 2 6 3.5t14.5 2t17.5 0t14 -2.5l37 -32q14 12 24 17.5t16 7.5t9 2.5t4 0.5q5 1 14.5 1t18.5 -1.5t15.5 -3.5t6.5 -4z" />
    <glyph glyph-name="ccedilla" unicode="&#xe7;" horiz-adv-x="350" 
d="M280 262q-15 -5 -18.5 0.5t1.5 16.5q7 15 11 29.5t5 25.5t-1 18t-7 6q-11 -1 -32.5 -20t-44.5 -47.5t-45 -62.5t-35 -66t-13 -57.5t20 -36.5q13 -7 31 -4.5t40 12.5t46.5 25.5t50.5 34.5q19 16 25 16.5t5 -7t-6 -18t-8 -17.5q-5 -9 -17 -30.5t-31 -43.5t-45 -37.5
t-59 -13.5q-23 0 -58 20l-13 -21q17 1 33.5 -3.5t27.5 -11.5q14 -9 21 -21t10 -24t2 -23t-2 -19q-3 -12 -14 -22.5t-27.5 -17.5t-36 -10.5t-38.5 -2.5q-24 1 -42.5 14.5t-24.5 35.5q-2 8 -1.5 18t4.5 15q5 9 5.5 4t0.5 -10q0 -11 8.5 -16.5t20 -8t23.5 -2.5t20 1
q7 1 19.5 3.5t23.5 7t19.5 9.5t8.5 11q0 12 -13 15.5t-29 3t-31 -2.5t-19 -1q-7 4 -17 14.5t-6 23.5q2 8 13.5 25.5t26.5 33.5q-25 20 -43.5 48.5t-17.5 64.5q0 47 24.5 97.5t59 93t73 71.5t67.5 32q18 2 39.5 -4.5t40 -19t31 -29.5t12.5 -36q0 -11 -6.5 -23.5t-17.5 -23.5
t-24 -19.5t-26 -12.5z" />
    <glyph glyph-name="cedilla" unicode="&#xb8;" horiz-adv-x="294" 
d="M140 -5l-19 -29q17 1 33.5 -3.5t27.5 -11.5q14 -9 21 -21t10 -24t2 -23t-2 -19q-3 -12 -14 -22.5t-27.5 -17.5t-36 -10.5t-38.5 -2.5q-24 1 -42.5 14.5t-24.5 35.5q-2 8 -1.5 18t4.5 15q5 9 5.5 4t0.5 -10q0 -11 8.5 -16.5t20 -8t23.5 -2.5t20 1q7 1 19.5 3.5t23.5 7
t19.5 9.5t8.5 11q0 12 -13 15.5t-29 3t-31 -2.5t-19 -1q-7 4 -17 14.5t-6 23.5q1 5 6 14t12.5 19t16.5 20t19 18z" />
    <glyph glyph-name="cent" unicode="&#xa2;" horiz-adv-x="450" 
d="M465 689q5 1 18 -0.5t26 -5t22 -8.5t6 -9q-8 -11 -26 -38t-44 -68q23 -17 37 -36.5t17 -35.5q19 -60 0 -97.5t-70 -48.5q-9 -3 -17.5 -1t-13.5 6.5t-6 10t4 9.5q14 23 23.5 44t11.5 38t-4 28.5t-22 15.5q-20 -33 -41.5 -73t-44.5 -85t-46 -94t-45 -99q18 0 38 2t40 8.5
t39.5 18t34.5 31.5q16 20 24 24t10.5 -1t1.5 -16.5t-3 -21.5q-6 -26 -17 -51.5t-30 -45.5t-47.5 -32t-68.5 -10q-23 0 -56 13q-8 -21 -16 -43t-16 -45q-4 -14 -4 -18t-5 -4q-11 -4 -17.5 8t-9.5 30.5t-3 38.5t3 32l11 33q-19 13 -37.5 32.5t-33 42t-23.5 47.5t-9 49
q0 58 25 116.5t67.5 106t99 78.5t119.5 35q14 0 34 -3q25 42 42 66.5t22 25.5zM344 498q-34 -15 -76 -49t-71 -86q-14 -25 -23 -53t-11.5 -55t2.5 -50.5t19 -39.5q34 85 76 171.5t84 161.5z" />
    <glyph glyph-name="circumflex" unicode="&#x2c6;" horiz-adv-x="205" 
d="M12 607q0 1 13 12.5t32.5 25t41.5 24.5t39 12q7 0 21 -12.5t27 -28.5t20.5 -30.5t2.5 -17.5q-1 -2 -7 -3t-14.5 -1t-17 0.5t-14.5 2.5q-2 1 -9.5 6.5t-25.5 30.5q-15 -12 -25 -18t-16.5 -9t-9.5 -3.5l-3 -0.5q-5 -1 -14.5 -0.5t-18.5 2t-15.5 3.5t-6.5 5z" />
    <glyph glyph-name="colon" unicode=":" horiz-adv-x="303" 
d="M202 489q21 4 38.5 0.5t30 -10.5t19.5 -16.5t9 -16.5q1 -9 -1 -21t-9 -24.5t-19 -25.5t-31 -23q-10 -3 -19 -5.5t-17 -1.5q-14 2 -26.5 10.5t-17.5 34.5q-6 35 8.5 64t34.5 35zM79 144q21 4 38.5 0.5t30 -10.5t19.5 -16.5t9 -16.5q1 -9 -1 -21t-9 -25t-19.5 -25.5
t-30.5 -22.5q-22 -8 -36 -7q-14 2 -26.5 10t-17.5 36q-3 17 -0.5 33t9 29.5t15.5 23t19 12.5z" />
    <glyph glyph-name="comma" unicode="," horiz-adv-x="154" 
d="M63 98q21 1 33.5 -6t18.5 -17t7 -20t1 -15q-2 -21 -13.5 -37t-25.5 -26.5t-28 -16t-21 -5.5q-11 0 -16 4.5t-6.5 10.5t0 12.5t4.5 10.5q5 7 12.5 15.5t13.5 17.5t8 19.5t-4 21.5q-5 9 -0.5 19.5t16.5 11.5z" />
    <glyph glyph-name="copyright" unicode="&#xa9;" horiz-adv-x="655" 
d="M723 410q0 -53 -17.5 -106t-47.5 -101t-70.5 -88t-85 -67t-91.5 -38.5t-91 -1.5q-28 5 -60.5 26t-60.5 51.5t-47 69.5t-20 80q-3 48 11 95.5t40 90.5t62.5 80t78.5 64t88 42.5t91 15.5q50 0 91.5 -17.5t70.5 -46.5t44 -68t14 -81zM335 81q46 0 92.5 24.5t86.5 63.5t71 87
t48 95q15 40 13 79.5t-20 69.5t-51 46t-81 11q-48 -7 -99.5 -34.5t-93.5 -71t-67.5 -100.5t-21.5 -121q1 -18 7.5 -42.5t21 -48t37 -40.5t57.5 -18zM446 321q-11 0 -13.5 4.5t5.5 9.5q8 8 19 27t20 38.5t13.5 34.5t-1.5 15q-9 0 -27.5 -14.5t-39 -36.5t-40 -49t-31 -53
t-11 -47t19.5 -31q52 -31 117 46q14 17 20.5 20.5t9 -0.5t1.5 -12.5t-3 -14.5q-4 -14 -16.5 -36t-32 -42t-45.5 -32t-56 -5q-11 1 -26.5 14.5t-29.5 34t-23.5 44.5t-6.5 48q6 40 28 81t51 74.5t59.5 54.5t53.5 21q15 0 31 -11t28.5 -26t20.5 -30.5t8 -25.5
q0 -16 -10.5 -32.5t-26 -31t-33.5 -24.5t-33 -13z" />
    <glyph glyph-name="currency" unicode="&#xa4;" horiz-adv-x="548" 
d="M355 519q23 -1 55 -22t55 -58q34 20 54.5 31.5t24.5 11.5q5 0 17 -7.5t24 -17.5t19.5 -18.5t4.5 -10.5q-15 -6 -45.5 -22t-78.5 -43q2 -56 -11.5 -105t-39.5 -91q13 -21 23.5 -42.5t16.5 -39.5q2 -8 -2 -22t-11.5 -27t-17.5 -21t-20 -5q-5 0 -5 3.5t-4 12.5q-8 19 -18 38
t-21 39q-23 -19 -49 -30t-53 -11q-31 0 -61.5 22t-53.5 56q-22 -17 -43 -34t-42 -37q-11 -8 -11.5 -11t-7.5 -2q-10 1 -14.5 10.5t-5 22t3 25.5t9.5 20q17 17 37.5 34.5t42.5 36.5q0 5 -1 10.5t-1 10.5q-2 59 15 110t48 93q-31 42 -51 67.5t-28 35.5q-3 4 8 9t26.5 9t30.5 7
t20 2q4 -1 19 -20t38 -51q48 29 104 31zM245 123q30 2 58 24t51 55.5t39.5 73t23.5 76t2 64.5t-24 38q-27 14 -61 2t-63 -46t-48 -87t-17 -120q1 -40 12.5 -60t26.5 -20z" />
    <glyph glyph-name="d" unicode="d" horiz-adv-x="422" 
d="M324 -27q-12 -12 -26.5 2t-26 42.5t-16 66t4.5 74.5l3 9q-30 -41 -56 -74.5t-47 -57.5t-38 -37t-30 -12q-9 0 -23 9.5t-28 26t-24 37.5t-10 44q-1 20 10.5 51.5t31.5 67t47 71t57 65t62 48.5t62 21q20 1 44 -13t39 -31q24 46 47 88.5t42.5 76.5t34.5 57.5t21 32.5
q13 5 29 -1.5t28.5 -18.5t18.5 -25t0 -22q-25 -44 -56 -99t-62.5 -113.5t-59.5 -116.5t-47.5 -108.5t-26 -90t5.5 -59.5zM116 85q9 0 32 22t53 55t63 73t61 77q2 5 4 8.5t4 8.5q-3 12 -8.5 22.5t-10.5 9.5q-24 -7 -50 -30t-51.5 -54.5t-47 -65.5t-36 -62.5t-19 -47
t5.5 -16.5z" />
    <glyph glyph-name="d.01" unicode="&#xe005;" horiz-adv-x="801" 
d="M410 -58q-26 4 -50.5 18t-44 35.5t-32 50t-13.5 62.5v18.5t1 22t1.5 22t1.5 17.5l-11 -21q-30 -41 -56 -74.5t-47 -57.5t-38 -37t-30 -12q-9 0 -23 9.5t-28 26t-24 37.5t-10 44q-1 20 10.5 51.5t31.5 67t47 71t57 65t62 48.5t62 21q20 1 44 -13t39 -31q24 46 47 88.5
t42.5 76.5t34.5 57.5t21 32.5q13 5 29 -1.5t28.5 -18.5t18.5 -25t0 -22q-17 -30 -36.5 -64.5t-40.5 -72t-42.5 -76.5t-40.5 -78q-15 -36 -29 -77.5t-20.5 -80t-2.5 -69t25 -43.5q20 -13 48 -4.5t59 31.5t62.5 56.5t59 72t48.5 79t30 75.5q5 19 17 16t24 -19t20.5 -42
t6.5 -53q-3 -45 -33.5 -98.5t-80 -98t-113 -70t-132.5 -13.5zM116 85q9 0 30.5 20t49.5 51t59.5 68.5t59.5 73.5l13 22l5 9q-3 12 -8.5 22.5t-10.5 9.5q-24 -7 -50 -30t-51.5 -54.5t-47 -65.5t-36 -62.5t-19 -47t5.5 -16.5z" />
    <glyph glyph-name="d.03" unicode="&#xe006;" horiz-adv-x="405" 
d="M328 -132q0 -16 -10 -22t-23 -5t-26 9t-19 20q-37 76 -36.5 150t22.5 151q-11 -17 -29 -45.5t-38 -55.5t-40 -46.5t-33 -18.5q-9 0 -23 8t-28 22t-25 33.5t-13 42.5q-2 24 7 56.5t26.5 67.5t42 69t53.5 60.5t60.5 43t63.5 16.5q18 0 36.5 -17t27.5 -34q18 31 40 71
t43 78.5t39.5 70t28.5 45.5q13 5 27 -2.5t24 -20t14 -26.5t-2 -23q-20 -35 -43.5 -81.5t-49 -100.5t-51 -113t-47.5 -117q-24 -63 -40.5 -126t-19.5 -110q-1 -13 5.5 -20.5t14.5 -12t14.5 -8.5t6.5 -9zM122 113q7 0 22.5 16.5t35 41t41 53.5t39 53.5t29 41.5t12.5 18
q-23 6 -48.5 -8.5t-48.5 -39t-43 -55.5t-32 -57.5t-15 -45t8 -18.5z" />
    <glyph glyph-name="d.04" unicode="&#xe007;" horiz-adv-x="427" 
d="M136 685q60 -51 141.5 -88.5t175.5 -50.5q70 111 171 209q45 43 93 71t93 40t83 8t62 -24q35 -29 35.5 -72.5t-24 -90t-68.5 -89.5t-98 -71q-67 -35 -139.5 -52.5t-145.5 -20.5q-25 -44 -51 -92t-49 -94.5t-42 -90.5t-31 -81.5t-14.5 -66.5t7.5 -45l-11 -11
q-12 -12 -26.5 2t-26 42.5t-16 66t4.5 74.5l3 9q-30 -41 -56 -74.5t-47 -57.5t-38 -37t-30 -12q-9 0 -23 9.5t-28 26t-24 37.5t-10 44q-1 20 10.5 51.5t31.5 67t47 71t57 65t62 48.5t62 21q20 1 44 -13t39 -31q10 19 19 38t19 36q-59 6 -114 20.5t-103.5 35t-89 47
t-69.5 56.5q-23 23 -26 46t4 43t20.5 36t23.5 25q20 19 29 23t12 -0.5t2 -14.5t-1 -17q1 -11 14.5 -32.5t35.5 -39.5zM679 686q-29 -32 -57 -67t-55 -77q83 5 167 36q47 18 89 50t69.5 66t35.5 64t-13 44q-14 9 -38 8.5t-54.5 -13.5t-67 -40t-76.5 -71zM116 85q9 0 32 22
t53 55t63 73t61 77q2 5 4 8.5t4 8.5q-3 12 -8.5 22.5t-10.5 9.5q-24 -7 -50 -30t-51.5 -54.5t-47 -65.5t-36 -62.5t-19 -47t5.5 -16.5z" />
    <glyph glyph-name="d.05" unicode="&#xe008;" horiz-adv-x="419" 
d="M827 578q-12 -17 -33 -34.5t-55.5 -31t-84 -20t-118.5 -1.5q-26 -45 -53.5 -95.5t-53.5 -101t-48 -98.5t-35.5 -89.5t-17.5 -73.5t7 -49l-11 -11q-12 -12 -26.5 2t-26 42.5t-16 66t4.5 74.5l3 9q-30 -41 -56 -74.5t-47 -57.5t-38 -37t-30 -12q-9 0 -23 9.5t-28 26
t-24 37.5t-10 44q-1 20 10.5 51.5t31.5 67t47 71t57 65t62 48.5t62 21q20 1 44 -13t39 -31q16 32 32 62t32 58q-57 15 -117.5 26.5t-118.5 20t-111 13t-95.5 6t-72.5 -1.5t-42 -10q-17 -9 -22.5 -19t-7.5 -18t-3.5 -14.5t-9.5 -8.5q-11 -4 -16.5 6.5t-5 29.5t7 42.5t18 46
t28.5 40.5t40 25q31 10 80.5 8t107.5 -11t119 -23t115.5 -28.5t97.5 -27t64 -18.5q30 38 57.5 64.5t54.5 44.5t54.5 28t57.5 14q40 5 72 -8t50 -36.5t19.5 -54t-18.5 -61.5zM116 85q9 0 32 22t53 55t63 73t61 77q2 5 4 8.5t4 8.5q-3 12 -8.5 22.5t-10.5 9.5q-24 -7 -50 -30
t-51.5 -54.5t-47 -65.5t-36 -62.5t-19 -47t5.5 -16.5zM737 675q-33 -3 -72.5 -29t-78.5 -79q43 -5 73.5 -2t51 9.5t33 15.5t19.5 15q12 10 17 23t1.5 24t-14.5 18t-30 5z" />
    <glyph glyph-name="dagger" unicode="&#x2020;" horiz-adv-x="408" 
d="M199 477h21t46 -1q22 66 43.5 124.5t39.5 102t31 69.5t18 27q5 0 18 -8.5t26.5 -21t23 -25.5t7.5 -20l-13 -32.5t-22 -54.5t-29 -73t-33 -89h76q8 0 11.5 -5.5t3.5 -13.5q0 -11 -8 -22.5t-19.5 -21.5t-24.5 -16t-22 -6h-14.5t-32.5 -1l-13 -38q-30 -88 -58 -183t-49 -190
q-3 -14 -22 -28t-40 -24t-38 -13.5t-17 4.5q4 38 15.5 89.5t28 111t36 124t40.5 128.5l6 17q-34 -1 -59 -1h-27q-18 0 -18 12q0 10 6.5 23.5t16.5 26t22 21t23 8.5z" />
    <glyph glyph-name="daggerdbl" unicode="&#x2021;" horiz-adv-x="383" 
d="M139 335h24.5t53.5 -1l12 36l26 75q-31 -1 -52.5 -1h-23.5q-18 0 -18 12q0 10 6.5 23.5t16.5 26t22 21t23 8.5h57q19 55 37.5 103t33.5 83.5t25.5 56t15.5 21.5q5 0 18 -8.5t26.5 -21t23 -25.5t7.5 -20q-7 -17 -27.5 -67t-48.5 -124h85q8 0 11.5 -5.5t3.5 -13.5
q0 -11 -8 -22.5t-19.5 -21.5t-24.5 -16t-22 -6h-18t-39 -1q-3 -5 -4 -11l-29 -85l-6 -18h65q8 0 11.5 -5.5t3.5 -13.5q0 -11 -8 -22.5t-19.5 -21.5t-24.5 -16t-22 -6h-11t-23 -1q-43 -133 -73 -269q-3 -14 -22 -28t-40 -24t-38 -13.5t-17 4.5q7 58 29 144.5t51 183.5
q-38 -1 -68 -1h-32q-18 0 -18 12q0 10 6.5 23.5t16.5 26t22 21t23 8.5z" />
    <glyph glyph-name="dcaron" unicode="&#x10f;" horiz-adv-x="692" 
d="M669 656q27 0 39.5 -11.5t13.5 -22.5q1 -18 -8.5 -37.5t-23 -36.5t-28.5 -29t-26 -14t-18 1t-10 8.5t-3 10.5t2 7q19 19 28.5 37t12.5 33t2 26t-2 16q2 5 5.5 8.5t15.5 3.5zM324 -27q-12 -12 -26.5 2t-26 42.5t-16 66t4.5 74.5l3 9q-30 -41 -56 -74.5t-47 -57.5t-38 -37
t-30 -12q-9 0 -23 9.5t-28 26t-24 37.5t-10 44q-1 20 10.5 51.5t31.5 67t47 71t57 65t62 48.5t62 21q20 1 44 -13t39 -31q24 46 47 88.5t42.5 76.5t34.5 57.5t21 32.5q13 5 29 -1.5t28.5 -18.5t18.5 -25t0 -22q-25 -44 -56 -99t-62.5 -113.5t-59.5 -116.5t-47.5 -108.5
t-26 -90t5.5 -59.5zM116 85q9 0 32 22t53 55t63 73t61 77q2 5 4 8.5t4 8.5q-3 12 -8.5 22.5t-10.5 9.5q-24 -7 -50 -30t-51.5 -54.5t-47 -65.5t-36 -62.5t-19 -47t5.5 -16.5z" />
    <glyph glyph-name="dcroat" unicode="&#x111;" horiz-adv-x="422" 
d="M363 501h19t41 1q29 52 51.5 88.5t30.5 47.5q13 5 29 -1.5t28.5 -18.5t18.5 -25t0 -22q-8 -15 -18 -31.5t-20 -34.5q13 1 20 1h9q12 0 12 -12q0 -7 -6 -18t-14 -21.5t-18 -18t-17 -7.5h-28q-36 -65 -72 -134t-61.5 -130.5t-36 -109.5t3.5 -71l-11 -11q-12 -12 -26.5 2
t-26 42.5t-16 66t4.5 74.5l3 9q-30 -41 -56 -74.5t-47 -57.5t-38 -37t-30 -12q-9 0 -23 9.5t-28 26t-24 37.5t-10 44q-1 20 10.5 51.5t31.5 67t47 71t57 65t62 48.5t62 21q20 1 44 -13t39 -31l24 46h-52q-15 0 -15 8q0 6 4 17t10 21.5t14.5 18t17.5 7.5zM116 85q9 0 32 22
t53 55t63 73t61 77q2 5 4 8.5t4 8.5q-3 12 -8.5 22.5t-10.5 9.5q-24 -7 -50 -30t-51.5 -54.5t-47 -65.5t-36 -62.5t-19 -47t5.5 -16.5z" />
    <glyph glyph-name="dieresis" unicode="&#xa8;" horiz-adv-x="833" 
d="M235 633q30 5 48 -6.5t20 -20.5q2 -11 -7 -29.5t-35 -31.5q-16 -5 -25 -4q-10 1 -19 6.5t-12 22.5q-5 22 5.5 40.5t24.5 22.5zM395 613q30 5 48 -6.5t20 -20.5q2 -11 -7 -29.5t-35 -31.5q-16 -5 -25 -4q-10 1 -19 6.5t-12 22.5q-5 22 5.5 40.5t24.5 22.5z" />
    <glyph glyph-name="divide" unicode="&#xf7;" horiz-adv-x="380" 
d="M47 164q-8 0 -11 6t-4 14q0 10 6.5 23.5t16.5 25t21.5 19.5t22.5 8h252q11 0 15.5 -2t4.5 -10q0 -11 -5 -25t-13 -27.5t-18.5 -22.5t-22.5 -9h-265zM135 123q19 3 34.5 0t26.5 -9t17 -13.5t8 -13.5q3 -15 -8.5 -39.5t-44.5 -41.5q-8 -3 -16.5 -5t-14.5 -1q-13 2 -24 9
t-15 30q-3 14 -1 28t7.5 25.5t13.5 19.5t17 11zM245 418q19 3 34 0t26 -9t17.5 -13.5t8.5 -13.5q2 -15 -9 -39.5t-44 -41.5q-9 -3 -17 -5t-15 0q-12 1 -23.5 8t-15.5 30q-5 29 7.5 54t30.5 30z" />
    <glyph glyph-name="dollar" unicode="$" horiz-adv-x="529" 
d="M35 146q5 31 8 34t20 -19q21 -23 50.5 -39t61 -25t61.5 -12t52 1t31.5 14t1.5 26q-12 22 -39 45t-56.5 47.5t-57 50t-41.5 51.5q-7 13 -12.5 42t-4.5 63.5t10 70.5t31 64q39 43 86 66.5t94.5 33t91 7.5t75.5 -11q25 -9 43.5 -28.5t30.5 -42t15.5 -45t-1.5 -37.5
q-13 -38 -48 -68.5t-76.5 -47t-81 -17t-60.5 21.5q-4 5 -4.5 14t1.5 16.5t6 11t9 -0.5q16 -14 37.5 -12t44.5 14t44.5 30.5t36.5 37t22 33.5t0 21q-11 9 -39.5 13.5t-64.5 3t-74 -10t-68 -26.5q-63 -39 -84 -75.5t3 -67.5q12 -17 39 -40t56 -47t54.5 -47.5t34.5 -40.5
q22 -43 16.5 -80t-28 -66t-55 -48t-64.5 -25q-35 -7 -72 2.5t-68 30t-50.5 50t-17.5 63.5zM456 758q7 5 20 0.5t24 -13t18 -19t4 -18.5q-7 -15 -31 -57t-58.5 -104t-77 -139.5t-86.5 -162t-86.5 -172t-76.5 -169.5q-6 -14 -11 -20t-19 1q-8 4 -6 31t10 65.5t21.5 83.5
t29.5 86q29 73 62 145t67.5 138t67 123.5t59 100.5t45 69.5t24.5 30.5z" />
    <glyph glyph-name="dotaccent" unicode="&#x2d9;" horiz-adv-x="257" 
d="M94 670q30 5 48 -6.5t20 -20.5q2 -11 -7 -29.5t-35 -31.5q-16 -5 -25 -4q-10 1 -19 6.5t-12 22.5q-5 22 5.5 40.5t24.5 22.5z" />
    <glyph glyph-name="e" unicode="e" horiz-adv-x="361" 
d="M355 300q-8 -42 -38.5 -73.5t-68.5 -53t-75 -33t-58 -14.5q-5 -20 -1.5 -41t17.5 -27q13 -6 36.5 0t51 19t56.5 31.5t53 37.5q15 14 20.5 14t6 -7t-2.5 -18t-6 -18q-5 -10 -19.5 -33.5t-39 -47t-59 -40.5t-78.5 -13q-16 1 -39 12t-44.5 31t-37 49t-16.5 67q3 53 27 103.5
t57 90t70.5 65t68.5 27.5q24 2 47 -10t40 -31.5t26.5 -43t5.5 -43.5zM281 349q-14 9 -37.5 -8t-47 -44.5t-43 -59.5t-26.5 -54q33 12 65 37t54.5 52t33 49.5t1.5 27.5z" />
    <glyph glyph-name="e.01" unicode="&#xe009;" horiz-adv-x="729" 
d="M113 132q-2 -12 -1 -24.5t6 -23t14.5 -18t25.5 -8.5q45 1 97.5 21.5t106 52.5t104.5 71.5t91.5 79t68 75t34.5 59.5q3 9 0.5 17t2.5 11q9 6 20 -1.5t19.5 -24.5t11.5 -42t-4 -54q-6 -36 -36.5 -76t-77 -79t-104 -73.5t-118 -59t-119 -36t-106.5 -3.5q-22 3 -45.5 16
t-43.5 33t-32.5 45t-12.5 51q0 47 19.5 95.5t49 88.5t63 66.5t62.5 30.5q18 3 39 -7t39 -27t29.5 -38.5t10.5 -40.5q-2 -27 -15 -50t-32 -42t-43 -33.5t-47 -25t-43.5 -17t-33.5 -9.5zM250 350q-12 -2 -30.5 -20.5t-37.5 -44t-35 -52.5t-23 -45q34 12 62 39t45.5 54t23 48
t-4.5 21z" />
    <glyph glyph-name="e.02" unicode="&#xe00a;" horiz-adv-x="827" 
d="M163 -8q-29 1 -55.5 14.5t-47 35t-33 47.5t-12.5 52q0 47 19.5 95.5t49 88.5t63 66.5t62.5 30.5q18 3 39 -7t39 -27t29.5 -38.5t10.5 -40.5q-2 -27 -15 -50t-32 -42t-43 -33.5t-47 -25t-43.5 -17t-33.5 -9.5q-1 -6 1 -15.5t6.5 -19t12.5 -18.5t20 -13q21 -8 61 1t90 27.5
t105 41.5t105.5 44t93 35t66.5 14q52 0 83 -18t45 -40t12.5 -41t-14.5 -20q-6 1 -9 4t-6 6.5t-8.5 6t-17.5 2.5q-37 0 -86.5 -10.5t-105.5 -26t-114.5 -33.5t-112.5 -33t-100 -25t-77 -9zM250 350q-12 -2 -30.5 -20.5t-37.5 -44t-35 -52.5t-23 -45q34 12 62 39t45.5 54
t23 48t-4.5 21z" />
    <glyph glyph-name="eacute" unicode="&#xe9;" horiz-adv-x="348" 
d="M350 299q-8 -41 -38 -72.5t-67.5 -53.5t-74 -34t-57.5 -15q-5 -20 -1.5 -41t17.5 -27q13 -6 32 -2.5t42.5 14t50.5 26.5t55 34q15 13 20.5 13t6 -7t-2.5 -17.5t-6 -17.5q-5 -10 -17 -30.5t-33.5 -41t-53.5 -34.5t-75 -10q-16 1 -39 11.5t-44 30t-36 48.5t-16 67
q3 51 26.5 101.5t56.5 90.5t70 65.5t67 27.5q24 2 46.5 -10t39.5 -31t26 -42t5 -43zM278 348q-10 6 -23.5 -0.5t-29 -20t-31 -33t-29.5 -40.5t-24.5 -40.5t-15.5 -34.5q33 12 64 37.5t54 53t33.5 50.5t1.5 28zM317 597q3 12 12 14t19 -2.5t17.5 -15t7.5 -23.5
q0 -15 -14 -31.5t-32.5 -31.5t-36 -25.5t-23.5 -12.5q-11 -3 -18 0t-10 8.5t-3 11t2 7.5q12 13 25 27.5t24.5 28.5t19.5 25.5t10 19.5z" />
    <glyph glyph-name="ecaron" unicode="&#x11b;" horiz-adv-x="348" 
d="M350 299q-8 -41 -38 -72.5t-67.5 -53.5t-74 -34t-57.5 -15q-5 -20 -1.5 -41t17.5 -27q13 -6 32 -2.5t42.5 14t50.5 26.5t55 34q15 13 20.5 13t6 -7t-2.5 -17.5t-6 -17.5q-5 -10 -17 -30.5t-33.5 -41t-53.5 -34.5t-75 -10q-16 1 -39 11.5t-44 30t-36 48.5t-16 67
q3 51 26.5 101.5t56.5 90.5t70 65.5t67 27.5q24 2 46.5 -10t39.5 -31t26 -42t5 -43zM278 348q-10 6 -23.5 -0.5t-29 -20t-31 -33t-29.5 -40.5t-24.5 -40.5t-15.5 -34.5q33 12 64 37.5t54 53t33.5 50.5t1.5 28zM432 541q0 -3 -13 -16.5t-32 -28t-40.5 -25.5t-38.5 -8
q-10 -2 -22.5 9t-24 26.5t-19 30.5t-7.5 21q0 2 6 3.5t14.5 2t17.5 0t14 -2.5l37 -32q14 12 24 17.5t16 7.5t9 2.5t4 0.5q5 1 14.5 1t18.5 -1.5t15.5 -3.5t6.5 -4z" />
    <glyph glyph-name="ecircumflex" unicode="&#xea;" horiz-adv-x="348" 
d="M350 299q-8 -41 -38 -72.5t-67.5 -53.5t-74 -34t-57.5 -15q-5 -20 -1.5 -41t17.5 -27q13 -6 32 -2.5t42.5 14t50.5 26.5t55 34q15 13 20.5 13t6 -7t-2.5 -17.5t-6 -17.5q-5 -10 -17 -30.5t-33.5 -41t-53.5 -34.5t-75 -10q-16 1 -39 11.5t-44 30t-36 48.5t-16 67
q3 51 26.5 101.5t56.5 90.5t70 65.5t67 27.5q24 2 46.5 -10t39.5 -31t26 -42t5 -43zM278 348q-10 6 -23.5 -0.5t-29 -20t-31 -33t-29.5 -40.5t-24.5 -40.5t-15.5 -34.5q33 12 64 37.5t54 53t33.5 50.5t1.5 28zM181 486q0 1 13 12.5t32.5 25t41.5 24.5t39 12q7 0 21 -12.5
t27 -28.5t20.5 -30.5t2.5 -17.5q-1 -2 -7 -3t-14.5 -1t-17 0.5t-14.5 2.5q-2 1 -9.5 6.5t-25.5 30.5q-15 -12 -25 -18t-16.5 -9t-9.5 -3.5l-3 -0.5q-5 -1 -14.5 -0.5t-18.5 2t-15.5 3.5t-6.5 5z" />
    <glyph glyph-name="edieresis" unicode="&#xeb;" horiz-adv-x="348" 
d="M350 299q-8 -41 -38 -72.5t-67.5 -53.5t-74 -34t-57.5 -15q-5 -20 -1.5 -41t17.5 -27q13 -6 32 -2.5t42.5 14t50.5 26.5t55 34q15 13 20.5 13t6 -7t-2.5 -17.5t-6 -17.5q-5 -10 -17 -30.5t-33.5 -41t-53.5 -34.5t-75 -10q-16 1 -39 11.5t-44 30t-36 48.5t-16 67
q3 51 26.5 101.5t56.5 90.5t70 65.5t67 27.5q24 2 46.5 -10t39.5 -31t26 -42t5 -43zM278 348q-10 6 -23.5 -0.5t-29 -20t-31 -33t-29.5 -40.5t-24.5 -40.5t-15.5 -34.5q33 12 64 37.5t54 53t33.5 50.5t1.5 28zM195 567q30 5 48 -6.5t20 -20.5q2 -11 -7 -29.5t-35 -31.5
q-16 -5 -25 -4q-10 1 -19 6.5t-12 22.5q-5 22 5.5 40.5t24.5 22.5zM355 547q30 5 48 -6.5t20 -20.5q2 -11 -7 -29.5t-35 -31.5q-16 -5 -25 -4q-10 1 -19 6.5t-12 22.5q-5 22 5.5 40.5t24.5 22.5z" />
    <glyph glyph-name="egrave" unicode="&#xe8;" horiz-adv-x="348" 
d="M350 299q-8 -41 -38 -72.5t-67.5 -53.5t-74 -34t-57.5 -15q-5 -20 -1.5 -41t17.5 -27q13 -6 32 -2.5t42.5 14t50.5 26.5t55 34q15 13 20.5 13t6 -7t-2.5 -17.5t-6 -17.5q-5 -10 -17 -30.5t-33.5 -41t-53.5 -34.5t-75 -10q-16 1 -39 11.5t-44 30t-36 48.5t-16 67
q3 51 26.5 101.5t56.5 90.5t70 65.5t67 27.5q24 2 46.5 -10t39.5 -31t26 -42t5 -43zM278 348q-10 6 -23.5 -0.5t-29 -20t-31 -33t-29.5 -40.5t-24.5 -40.5t-15.5 -34.5q33 12 64 37.5t54 53t33.5 50.5t1.5 28zM237 624q13 0 15.5 -5t-2.5 -10q-4 -4 -2 -18t7.5 -32t14 -35.5
t18.5 -27.5q-2 -10 -6 -14q-4 -5 -12.5 -8.5t-23.5 -1.5q-9 1 -23 13t-26.5 28.5t-22 35t-9.5 33.5q0 6 6 13t16 13.5t23 11t27 4.5z" />
    <glyph glyph-name="eight" unicode="8" horiz-adv-x="515" 
d="M334 724q37 3 70.5 -8t59.5 -34t41 -58.5t14 -81.5q-2 -30 -14.5 -56t-33.5 -50t-48.5 -47t-58.5 -45q26 -48 48 -95.5t22 -93.5q2 -25 -12 -59.5t-42 -66.5t-68 -55.5t-89 -27.5q-38 -3 -73 6.5t-63 28t-46.5 46t-22.5 60.5q-5 43 9 83.5t41 78t65 71t81 61.5
q-26 45 -37.5 76.5t-14.5 60.5q-3 43 10.5 79.5t37.5 64t56 43.5t68 19zM312 150q-3 27 -13.5 64t-29.5 71q-2 -2 -3.5 -3t-6.5 -2q-22 -17 -47 -35.5t-45 -41.5t-30.5 -52.5t-1.5 -66.5q3 -11 9 -23t16 -22.5t25 -16t35 -2.5q21 1 39.5 8t31.5 22t19 39.5t2 60.5zM316 432
q23 16 41.5 32t32 33t21.5 37t8 45q0 10 -3 23t-10.5 24t-19.5 18t-31 7q-40 -5 -62.5 -34.5t-18.5 -77.5q3 -14 6 -25.5t8 -23.5t12 -26z" />
    <glyph glyph-name="ellipsis" unicode="&#x2026;" horiz-adv-x="438" 
d="M44 97q16 3 29 1t22.5 -7t15 -11.5t7.5 -11.5q2 -11 -8.5 -31t-37.5 -34q-8 -2 -14.5 -4t-11.5 -1q-11 2 -21 8t-13 23q-5 24 6 44.5t26 23.5zM193 97q16 3 29 1t22.5 -7t15.5 -11.5t7 -11.5q2 -11 -8 -31t-38 -34q-8 -2 -14 -4t-13 -1q-10 2 -19.5 8t-13.5 23
q-5 24 6 44.5t26 23.5zM342 97q16 3 29 1t23 -7t15.5 -11.5t6.5 -11.5q2 -11 -8 -31t-38 -34q-7 -2 -13.5 -4t-13.5 -1q-10 2 -19.5 8t-13.5 23q-5 24 6.5 44.5t25.5 23.5z" />
    <glyph glyph-name="emdash" unicode="&#x2014;" horiz-adv-x="568" 
d="M518 325q9 0 12.5 -6.5t3.5 -14.5q0 -13 -7.5 -26t-18.5 -23.5t-23 -17t-22 -6.5q-2 0 -30.5 -0.5t-70.5 -1.5t-91 -1.5t-91 -1.5t-71 -1.5t-31 -0.5q-19 0 -19 14q0 12 7.5 27t19 28.5t25 22.5t25.5 9h382z" />
    <glyph glyph-name="endash" unicode="&#x2013;" horiz-adv-x="434" 
d="M129 377h20t46.5 -0.5t59.5 -0.5t59.5 -0.5t46.5 -0.5h21q8 0 11.5 -5.5t3.5 -13.5q0 -11 -8 -22.5t-19.5 -21.5t-24.5 -16t-22 -6q-2 0 -20 -0.5t-44.5 -0.5t-57 -1t-57 -1t-45 -0.5t-20.5 -0.5q-18 0 -18 12q0 10 6.5 23.5t16.5 26t22 21t23 8.5z" />
    <glyph glyph-name="eogonek" unicode="&#x119;" horiz-adv-x="348" 
d="M350 299q-8 -41 -38 -72.5t-67.5 -53.5t-74 -34t-57.5 -15q-5 -20 -1.5 -41t17.5 -27q13 -6 32 -2.5t42.5 14t50.5 26.5t55 34q15 13 20.5 13t6 -7t-2.5 -17.5t-6 -17.5q-5 -10 -17 -30.5t-33.5 -41t-53.5 -34.5t-75 -10q-13 1 -31 8q-18 -12 -34 -26t-26 -28t-11 -28
t10 -25q3 -5 17 -10.5t33.5 -7.5t42 1.5t42.5 17.5q16 11 22.5 12.5t7 -3t-2.5 -12.5t-7 -14q-9 -16 -22 -31.5t-29.5 -26t-38.5 -13.5t-49 7q-12 3 -29.5 23t-29.5 47.5t-13 59t19 56.5q10 11 22 19.5t25 14.5q-21 20 -36.5 49t-16.5 67q3 51 26.5 101.5t56.5 90.5t70 65.5
t67 27.5q24 2 46.5 -10t39.5 -31t26 -42t5 -43zM278 348q-10 6 -23.5 -0.5t-29 -20t-31 -33t-29.5 -40.5t-24.5 -40.5t-15.5 -34.5q33 12 64 37.5t54 53t33.5 50.5t1.5 28z" />
    <glyph glyph-name="equal" unicode="=" horiz-adv-x="341" 
d="M36 110q-8 0 -11.5 4.5t-3.5 10.5q0 7 5 17t13 19t17.5 15.5t17.5 6.5h201q14 0 14 -10q0 -8 -4 -19t-10.5 -20.5t-15 -16.5t-18.5 -7h-205zM94 247q-7 0 -9 4.5t-3 10.5q0 8 5 18t13 18.5t17.5 14.5t17.5 6h200q8 0 12 -1.5t4 -7.5q0 -8 -4 -19t-10.5 -20.5t-15 -16.5
t-17.5 -7h-210z" />
    <glyph glyph-name="eth" unicode="&#xf0;" horiz-adv-x="471" 
d="M281 621l50 27q-7 12 -14.5 23t-18.5 20q-6 5 -11.5 7t-11 3t-10.5 2.5t-11 6.5q-7 7 8 16.5t41.5 14t58.5 -0.5t58 -27l7.5 -7.5t6.5 -8.5q27 12 48.5 20t30.5 9q15 1 21.5 -11t3.5 -29.5t-16.5 -36.5t-39.5 -30l-13 -6q13 -56 12.5 -131t-18.5 -155.5t-54.5 -160.5
t-94.5 -147q-24 -28 -57 -41.5t-67 -15t-65.5 8.5t-53.5 30q-29 26 -42.5 78.5t-9 114.5t26.5 123.5t63 105.5q20 21 48.5 33t57.5 15.5t55.5 -2t42.5 -18.5q14 -11 22.5 -24t16.5 -27q7 38 9 81t-4 84l-134 -57q-20 -9 -25 4q-3 9 5.5 24.5t22 32t29 31.5t26.5 21zM287 393
q-29 9 -54.5 -9.5t-46 -53t-34.5 -79t-19 -87t-1 -76.5t21 -48q21 -18 45.5 -5t47.5 45.5t41 78t26 90.5t3 84t-29 60z" />
    <glyph glyph-name="exclam" unicode="!" horiz-adv-x="318" 
d="M221 128q-7 -9 -19.5 -8t-25 7t-21.5 14.5t-9 16.5q0 23 15.5 66t40 96t55 111t60.5 110t55 93.5t39 61.5q6 13 19 15.5t27 -2.5t28 -16t23 -24t10 -26.5t-10 -24.5q-15 -18 -38.5 -53.5t-51 -80t-57.5 -94.5t-56.5 -98.5t-49 -91.5t-34.5 -72zM167 68q9 -8 18 -25.5
t12 -37.5t-3.5 -38t-28.5 -27q-8 -3 -23 -3.5t-31.5 4t-31 15t-21.5 28.5q-6 25 6.5 44.5t32 30.5t40 14t30.5 -5z" />
    <glyph glyph-name="exclamdown" unicode="&#xa1;" horiz-adv-x="401" 
d="M320 540q6 9 18 6.5t24 -10t20.5 -17.5t8.5 -17q-1 -13 -17.5 -54t-42 -96t-57.5 -118t-63.5 -120.5t-60 -102.5t-47.5 -64q-5 -14 -22.5 -8.5t-34.5 20.5t-27 32.5t0 27.5q15 18 39.5 55.5t54 85.5t61 103t60 107t51.5 96.5t35 73.5zM384 577q-9 6 -18.5 23t-12.5 37
t3.5 38t29.5 26q8 3 23.5 3.5t32 -4t31.5 -14.5t22 -28q6 -24 -7 -43t-33 -30.5t-40.5 -14t-30.5 6.5z" />
    <glyph glyph-name="f" unicode="f" horiz-adv-x="265" 
d="M332 335q8 5 13.5 0t0.5 -13q-17 -20 -37 -32.5t-40.5 -20t-41 -10.5t-36.5 -4q9 -36 11 -90t-3 -113.5t-16 -119.5t-28 -106.5t-40 -74t-50 -22.5q-12 0 -32 9.5t-39.5 27.5t-34 44.5t-15.5 60.5q-2 32 9 79.5t30.5 104.5t45.5 119t54 124q-9 16 -7.5 31.5t14.5 23.5
q9 4 19 1q27 57 53 108t46.5 90t34 62.5t15.5 25.5q9 9 25 4.5t30 -15.5t23 -23.5t5 -19.5q-8 -14 -22 -40t-32 -60.5t-38 -74t-40 -79.5q22 -2 44.5 -1.5t39.5 1.5q20 1 39 3zM143 198q-11 -22 -27 -57t-32 -75.5t-29.5 -82.5t-20.5 -76.5t-5.5 -58t16.5 -27.5
q7 -2 24 22.5t33.5 73.5t29 120t11.5 161z" />
    <glyph glyph-name="five" unicode="5" horiz-adv-x="485" 
d="M527 700q0 -26 -16 -53.5t-35 -39.5q-11 -6 -29.5 -7.5t-39.5 -0.5t-43.5 4t-40.5 8q-9 -16 -20 -39t-23 -48t-24.5 -49t-24.5 -42q44 -3 72.5 -9t45.5 -11.5t24 -10t9 -5.5q9 -10 20 -31.5t20.5 -46t16 -47t5.5 -32.5q-3 -29 -16 -63.5t-34.5 -69t-51 -66t-64.5 -53.5
t-75 -32.5t-83 -2.5q-21 6 -41.5 24t-36.5 42t-25 50.5t-8 49.5q3 34 20.5 67t41.5 55t50.5 30t46.5 -7q13 -11 14 -16.5t-3.5 -8.5t-10.5 -3.5t-7 -0.5q-10 -3 -21 -17t-21.5 -33.5t-18.5 -41.5t-12 -41.5t-2.5 -34t10.5 -18.5q22 -11 54 0t65 34.5t64 56t53 66t30.5 64
t-3.5 50.5q-3 6 -19 12.5t-40 10t-55.5 2t-66.5 -12.5q-20 4 -34.5 15.5t-23.5 25t-13.5 27t-4.5 22.5q44 63 72.5 118t44.5 98q7 18 7 32.5t-0.5 25.5t2.5 17t16 6q11 0 34.5 -2t52.5 -4.5t60 -3.5t57 0.5t44.5 7t21.5 17.5q1 4 7 -3.5t6 -30.5z" />
    <glyph glyph-name="four" unicode="4" horiz-adv-x="465" 
d="M246 29q-2 42 11.5 113.5t46.5 151.5l-2 -5q-29 -2 -64.5 -11t-68 -22t-56.5 -27t-29 -24q-3 -4 -16 6t-25 27.5t-18 38.5t3 38q13 6 40.5 31.5t61.5 63t69.5 81t64 84.5t46 74t14.5 50q-1 6 -5 10.5t-7 8t-1.5 6t10.5 3.5q23 3 39.5 -15.5t23.5 -56.5q3 -23 -13 -63
t-42 -85t-58 -88t-61 -71q5 1 19.5 3.5t32.5 4.5t38 2.5t37 -1.5q28 56 58 113.5t58 105.5t50.5 83t34.5 46q9 5 23 2.5t27 -9.5t22 -16.5t6 -16.5q-22 -26 -52 -76t-61 -113.5t-61.5 -134.5t-54 -138t-37.5 -124t-13 -93q0 -12 2.5 -16.5t5.5 -6t5.5 -1t2.5 -0.5
q5 -4 2.5 -13t-20.5 -9q-9 0 -23 4.5t-28.5 15t-25.5 27.5t-12 42z" />
    <glyph glyph-name="fraction" unicode="&#x2044;" horiz-adv-x="487" 
d="M660 759q16 10 35.5 5.5t34 -16t21.5 -24.5t-1 -20q-15 -14 -51 -48.5t-87.5 -88.5t-116 -126t-135 -161t-144.5 -193.5t-146 -223.5q-10 -17 -11 -23.5t-10 -7.5q-17 -2 -22.5 17t-3.5 45.5t8.5 54t13.5 42.5q31 57 73 119t89.5 126t98 126.5t99 119.5t92.5 106t78.5 86
t57 59.5t27.5 25.5z" />
    <glyph glyph-name="g" unicode="g" horiz-adv-x="370" 
d="M452 486q5 8 13 7t7 -10q-3 -38 -17 -66t-31 -47.5t-34 -31.5t-26 -16t-16 -5q5 -48 -11 -98t-44 -89.5t-63.5 -64.5t-70.5 -23q-11 -1 -22.5 1.5t-23.5 7.5q-11 -9 -22 -23t-22 -39q36 13 86 20t99 -7q21 -11 34.5 -25.5t22 -31t13 -32.5t7.5 -29q0 -33 -20 -63.5
t-52.5 -56.5t-73.5 -45t-83 -29t-81 -10t-68 14q-24 11 -42 39.5t-16 64.5q1 15 12 31t28 30t38 24.5t42 15.5q-13 9 -20.5 22.5t-9.5 21.5q-5 16 0.5 33.5t17.5 35t29.5 34t36.5 30.5q-14 11 -23.5 24.5t-13.5 29.5q-7 27 -1.5 60.5t19.5 67.5t35 66t46 56.5t51.5 39
t52.5 14.5q29 0 55 -7.5t43 -23.5q1 -2 2 -3.5t2 -3.5q21 10 41 25.5t37 29.5q19 17 37 35zM49 -113q-28 -24 -48 -46q-17 -19 -31 -38.5t-10 -31.5q15 -9 45 -5.5t65.5 15t72 29t65.5 36.5t45.5 38.5t11.5 34.5q-6 18 -30 18t-56 -8.5t-66 -20.5t-59 -18h-1zM141 109
q21 -10 45 9t46.5 53t40.5 74.5t29 74.5q-16 5 -28 13.5t-18 19.5q-35 -26 -63 -64.5t-44.5 -76t-19.5 -67t12 -36.5z" />
    <glyph glyph-name="g.01" unicode="&#xe00b;" horiz-adv-x="414" 
d="M373 399q6 9 22.5 7.5t33.5 -8t29 -16t8 -15.5q-3 -9 -18.5 -48t-40.5 -95t-58 -123t-72 -131l-51 -84q5 0 9 0.5t9 0.5q44 4 104 8.5t127.5 8t139.5 5t140 0t128 -7t104 -16.5q48 -12 87 -29.5t65 -40t37.5 -49.5t2.5 -57q-2 -9 -9.5 -13t-11.5 -3q-10 2 -11.5 4t0.5 5
t5 7t3 9q-1 15 -38.5 26t-104.5 17.5t-160.5 9.5t-206 2.5t-241 -5t-266.5 -11.5q-27 -35 -57 -66t-62.5 -53t-67.5 -33.5t-71 -7.5q-31 4 -58.5 22t-60.5 41t-75.5 45.5t-103.5 34.5q-26 1 -43 3.5t-28 5t-18 5.5t-14 5q-11 4 -22.5 12.5t-19 20t-8.5 26t9 30.5
q14 -10 48.5 -13.5t84 -3t112 4.5t132 10t144 13.5t148.5 14.5q49 75 95.5 161.5t84.5 167.5q-33 -48 -60 -87t-49.5 -67t-41 -43t-33.5 -14q-9 0 -23.5 7t-29.5 20.5t-26 32.5t-12 42q-2 20 8 52t28.5 68t43.5 73.5t54 68t60 51t61 23.5q13 1 27.5 -3.5t28 -12.5
t24.5 -18.5t17 -20.5zM122 81q9 1 32.5 25.5t53.5 61.5t62 80t59 81q-3 13 -10 26t-12 11q-23 -7 -48.5 -32t-49 -57t-44 -67.5t-33 -64.5t-16.5 -47.5t6 -16.5zM-103 -258q-54 -2 -97.5 -3t-78.5 -1q25 -12 47.5 -25t42 -24t37 -18.5t32.5 -8.5q29 -2 63.5 22t71.5 66
q-29 -2 -58.5 -4t-59.5 -4z" />
    <glyph glyph-name="g.03" unicode="&#xe00c;" horiz-adv-x="408" 
d="M373 325q14 -5 25 -12.5t10 -18.5q-9 -39 -25 -84.5t-37.5 -95t-48 -101.5t-57.5 -103q77 -3 151.5 -7.5t143.5 -8.5t131 -7t114 -3q9 -4 1 -21.5t-27.5 -38t-48.5 -37.5t-63 -20q-48 -2 -104.5 0.5t-118.5 6.5t-127.5 9t-131.5 8q-15 -21 -31 -41t-33 -39
q-52 -57 -112 -99t-124 -69.5t-131 -40t-132 -10.5q-44 1 -88 8t-83 22.5t-71.5 40t-54.5 60.5q-17 27 -16.5 55t14 54t37 48.5t52.5 37.5q64 34 147 54t178 30.5t198 12.5t208 -1q33 48 68 107.5t75 142.5q-27 -39 -50 -71.5t-42.5 -55t-35.5 -34.5t-30 -11q-9 0 -23.5 7
t-29.5 20.5t-26 32.5t-12 42q-2 20 8 52t28.5 68t43.5 73.5t54 68t60 51t61 23.5q15 1 32.5 -5.5t32.5 -17t25.5 -23.5t10.5 -23q6 -13 8 -33zM-649 -347q14 -27 54.5 -46t97 -26.5t125 -0.5t139 31.5t138 69.5t123.5 114h-1q-85 1 -166 2.5t-153.5 0.5t-135 -5.5
t-110.5 -16.5q-46 -11 -71.5 -26.5t-36.5 -32.5t-10 -34t7 -30zM122 81q9 1 32.5 25.5t53.5 61.5t62 80t59 81q-3 13 -10 26t-12 11q-23 -7 -48.5 -32t-49 -57t-44 -67.5t-33 -64.5t-16.5 -47.5t6 -16.5z" />
    <glyph glyph-name="g.04" unicode="&#xe00d;" horiz-adv-x="399" 
d="M370 321q12 -5 20 -11.5t8 -15.5q-9 -39 -23.5 -86t-35 -98t-46 -104.5t-56.5 -106.5h54q95 0 197.5 -4t202 -9.5t190.5 -11.5t164 -10t123 -5.5t66 1.5q8 -4 1.5 -22t-27 -38t-53 -37.5t-76.5 -21.5q-70 -5 -172 -1t-223 11t-255 16t-267 15l-30 -40t-31 -39
q-50 -59 -108.5 -102.5t-122 -72.5t-130 -43.5t-131.5 -14.5q-44 0 -88 6t-83.5 20t-73 38t-56.5 59q-18 27 -18 55t12.5 54t35.5 49t52 39q49 28 125 47.5t170 32.5t202.5 19.5t224.5 8.5q32 48 65.5 107t70.5 140q-24 -35 -45 -63.5t-39 -49t-33 -31t-28 -9.5
q-9 0 -23.5 7t-29.5 20.5t-26 32.5t-12 42q-2 20 8 52t28.5 68t43.5 73.5t54 68t60 51t61 23.5q15 1 32.5 -5.5t32.5 -17t25.5 -23.5t10.5 -23q6 -13 8 -33zM-642 -375q15 -27 56.5 -45t98.5 -24t125 3t138 36t136.5 74t120.5 118q-84 3 -164.5 2.5t-153 -4t-136 -12
t-113.5 -22.5q-45 -12 -70.5 -28.5t-36 -34t-9.5 -34t8 -29.5zM321 326q2 2 7 2q0 1 1 1q-3 13 -10 26t-12 11q-23 -7 -48.5 -32t-49 -57t-44 -67.5t-33 -64.5t-16.5 -47.5t6 -16.5q9 1 30 23t48.5 55t57.5 73t57 78z" />
    <glyph glyph-name="g.05" unicode="&#xe00e;" horiz-adv-x="436" 
d="M948 -173q21 -14 35.5 -29.5t21 -31.5t4 -30.5t-15.5 -26.5q-8 -7 -16.5 -3.5t-5.5 10.5q3 5 5 7t7 12q-13 26 -79 45t-172 26q-69 4 -166 0t-231 -16q-37 -4 -82.5 -9.5t-97.5 -12.5q-35 -44 -74.5 -82t-82 -62t-87.5 -28t-90 21q-28 16 -48 44.5t-27 57.5
q-17 -2 -40.5 -3t-48.5 1t-49.5 9t-42 21t-26.5 36.5t-4 57.5q27 -3 83.5 -0.5t134 8.5t170 14t191.5 15q16 24 42 66t54 90.5t54.5 97.5t45.5 87q-34 -45 -67 -87.5t-62 -75t-52.5 -52t-36.5 -18.5q-9 0 -23 7t-28 20.5t-24 32t-10 41.5q-1 24 10.5 58t31.5 71t47 74
t57 66.5t62 49t62 21.5q23 1 48 -15t39 -35l9 22q6 9 24 7.5t37 -8t32.5 -16t9.5 -15.5q-3 -9 -20 -51.5t-44 -103.5t-62 -131.5t-74 -134.5l-37 -60q110 6 218 8.5t202.5 -3.5t169.5 -21t119 -43zM116 85q9 1 34 24.5t56.5 58.5t65.5 77t62 79q-2 12 -8.5 25t-11.5 12
q-24 -7 -50 -30t-51.5 -54.5t-47 -65.5t-36 -62.5t-19 -47t5.5 -16.5zM-124 -350q29 -2 64 25t73 73q-59 -8 -117 -14.5t-111 -11.5q9 -27 34.5 -48.5t56.5 -23.5z" />
    <glyph glyph-name="germandbls" unicode="&#xdf;" horiz-adv-x="611" 
d="M-6 -56q-1 41 12.5 97t39.5 120t61.5 132t78.5 133t91 123t97.5 102t99.5 70.5t97 27.5q32 1 62.5 -18t54 -49t35.5 -64.5t7 -62.5q-8 -37 -32.5 -73t-56.5 -66t-68 -52t-67 -30q12 -4 28.5 -12.5t31.5 -23.5t26.5 -37.5t13.5 -55.5q3 -48 -23 -92.5t-68.5 -77.5
t-96 -49.5t-105.5 -8.5q-32 6 -56 29t-37 54.5t-13 67t16 67.5q6 9 13 14.5t12 4t5 -10.5t-8 -27q-8 -20 2 -41t42 -34q27 -11 64 -3.5t72 26t62.5 45t35.5 54.5t-10 42.5t-68 25.5q-34 6 -59 5.5t-41 0.5t-23 5t-5 19q0 11 3.5 25t12 25t23 18t37.5 5q19 0 45.5 11
t55.5 29.5t58 43t52 51.5t37 55.5t14 54.5q0 25 -20.5 32.5t-54.5 -5t-78.5 -46t-92.5 -89.5q-27 -29 -62.5 -81t-72 -116.5t-71.5 -135t-62.5 -135.5t-43.5 -119.5t-15 -86.5q0 -11 2.5 -15.5t5.5 -5.5t6 0t4 0q5 -5 1 -14t-22 -9q-10 0 -24.5 11t-27.5 29.5t-22.5 42
t-10.5 48.5z" />
    <glyph glyph-name="grave" unicode="`" horiz-adv-x="833" 
d="M273 703q13 0 15.5 -5t-2.5 -10q-4 -4 -2 -18t7.5 -32t14 -35.5t18.5 -27.5q-2 -10 -6 -14q-4 -5 -12.5 -8.5t-23.5 -1.5q-9 1 -23 13t-26.5 28.5t-22 35t-9.5 33.5q0 6 6 13t16 13.5t23 11t27 4.5z" />
    <glyph glyph-name="greater" unicode="&#x3e;" horiz-adv-x="258" 
d="M25 54q-3 0 -3 11.5t2.5 27t7 30.5t9.5 23q2 2 19 12t38 21l55 28l-36 40q-14 15 -25.5 29t-11.5 17q-1 10 2 24.5t8.5 27.5t11.5 22t10 8q2 -1 10 -12.5t19.5 -28t24 -36t23.5 -37t18 -30.5t7 -16q-2 -20 -16 -40t-34.5 -38t-43.5 -33t-43.5 -26t-35 -17.5t-16.5 -6.5z
" />
    <glyph glyph-name="guilsinglleft" unicode="&#x2039;" horiz-adv-x="375" 
d="M367 522q7 0 8 -11t-2 -26t-9 -31.5t-13 -28.5q-2 -2 -11 -8.5t-22.5 -16.5t-31 -22.5t-35.5 -25.5l-95 -67l58 -76q10 -15 20.5 -29.5t18.5 -26t13.5 -19.5t5.5 -10q1 -15 -3.5 -32.5t-12 -32.5t-16.5 -24.5t-16 -8.5q-3 1 -17 18.5t-32.5 43t-39.5 56t-38.5 58t-29 47
t-11.5 24.5q4 31 27.5 61.5t56.5 58.5t70.5 51.5t70.5 40.5t57 27t29 10z" />
    <glyph glyph-name="h" unicode="h" horiz-adv-x="406" 
d="M360 63q-9 -26 -25.5 -41.5t-33.5 -15.5q-11 -1 -23 6.5t-21.5 22.5t-15.5 38t-4 55q1 18 8 44t18 55.5t24.5 58.5t28.5 52q-19 -18 -49.5 -51.5t-63 -76t-62 -91.5t-45.5 -97q0 -4 -2.5 -14t-16.5 -10q-11 1 -23.5 8t-23.5 17.5t-18.5 23t-7.5 24.5q-2 29 14.5 80.5
t43 113t59.5 127t64.5 121.5t57 97.5t37.5 54.5q6 7 20 2.5t28 -15t23 -24.5t4 -25q-18 -38 -40 -82.5l-44 -89t-42 -85.5t-34 -72q29 29 56 56.5t50.5 48.5t42.5 33t32 11q7 -1 19.5 -10t23 -22t17 -27.5t1.5 -26.5q-4 -9 -14.5 -31t-24 -50.5t-28 -60t-26 -59t-19 -47
t-5.5 -24.5q10 -4 19 -0.5t21 -1.5z" />
    <glyph glyph-name="h.03" unicode="&#xe00f;" horiz-adv-x="405" 
d="M-7 58q-1 27 12.5 72.5t36 100t50.5 113.5t56 113q-59 6 -115 20t-105 34.5t-89.5 47t-70.5 57.5q-23 23 -26 46t4 43t20.5 36t23.5 25q20 19 29 23t12 -0.5t2 -14.5t-1 -17q1 -11 14.5 -32.5t35.5 -39.5q60 -51 141.5 -88.5t175.5 -50.5q35 54 77.5 107t93.5 102
q45 43 93 71t93 40t83 8t62 -24q35 -29 35.5 -72.5t-24 -90t-68.5 -89.5t-98 -71q-68 -35 -140.5 -52.5t-147.5 -20.5q-29 -54 -58 -111t-51 -114q21 33 55 67.5t69 62.5t64.5 45.5t42.5 16.5q7 -1 17 -9.5t18 -21t11.5 -26.5t-0.5 -26q-4 -8 -14.5 -30.5t-23.5 -51
t-27.5 -60.5t-26 -59.5t-18.5 -47t-5 -24.5q11 -4 19.5 -0.5t20.5 -1.5q-8 -26 -24.5 -41.5t-33.5 -16.5q-11 0 -22.5 9t-21.5 24.5t-15.5 36.5t-3.5 44q1 9 7 35.5t16.5 59.5t23.5 67t28 57q-19 -18 -49.5 -51.5t-62.5 -76t-61.5 -91.5t-45.5 -97q0 -4 -2.5 -14t-16.5 -10
q-11 1 -23.5 6t-24 13t-19 18.5t-7.5 22.5zM425 686q-29 -32 -57.5 -67t-54.5 -77q42 2 83.5 10.5t83.5 25.5q47 18 89 50t69.5 66t35.5 64t-13 44q-14 9 -38 8.5t-54.5 -13.5t-67 -40t-76.5 -71z" />
    <glyph glyph-name="hungarumlaut" unicode="&#x2dd;" horiz-adv-x="597" 
d="M248 692q3 12 12 14t19 -2.5t17.5 -15t7.5 -23.5q0 -15 -14 -31.5t-32.5 -31.5t-36 -25.5t-23.5 -12.5q-11 -3 -18 0t-10 8.5t-3 11t2 7.5q12 13 25 27.5t24.5 28.5t19.5 25.5t10 19.5zM371 692q3 12 12 14t19 -2.5t17.5 -15t7.5 -23.5q0 -15 -14 -31.5t-32.5 -31.5
t-36 -25.5t-23.5 -12.5q-11 -3 -18 0t-10 8.5t-3 11t2 7.5q12 13 25 27.5t24.5 28.5t19.5 25.5t10 19.5z" />
    <glyph glyph-name="hyphen" unicode="-" horiz-adv-x="383" 
d="M147 240q1 0 17 0.5t38.5 1t49 1t49 1t38 1t17.5 0.5q12 0 12 -12q0 -7 -6 -18t-14 -21.5t-18 -18t-17 -7.5h-197q-15 0 -15 8q0 6 4 17t10 21.5t14.5 18t17.5 7.5z" />
    <glyph glyph-name="i" unicode="i" horiz-adv-x="199" 
d="M239 603q10 7 29.5 4t37 -14.5t26.5 -28.5t-3 -38q-5 -7 -15 -19.5t-23.5 -24.5t-29.5 -20.5t-34 -7.5q-13 2 -23 11.5t-12 25.5q-2 15 2 33.5t11.5 35t16.5 28.5t17 15zM101 43q0 -3 5 -4t10.5 -1t10.5 -0.5t5 -3.5q1 -6 -3.5 -14.5t-11 -16t-13.5 -13.5t-13 -7
q-11 -2 -26 5.5t-28.5 22.5t-21.5 37t-5 49q3 26 15 65.5t31 84.5t44.5 90.5t56.5 83.5q14 6 28.5 0t26 -17.5t16.5 -26t-1 -24.5q-4 -9 -15.5 -34t-26 -57.5t-30.5 -69t-28.5 -68t-20 -54t-5.5 -27.5z" />
    <glyph glyph-name="i.01" unicode="&#xe010;" horiz-adv-x="521" 
d="M233 591q11 4 28.5 1.5t32.5 -12.5t22 -26.5t-3 -39.5q-4 -9 -14.5 -22.5t-24.5 -26.5t-31.5 -21t-35.5 -5q-13 2 -23.5 13t-11.5 27q0 15 6.5 33.5t16 35t20 28.5t18.5 15zM156 -39q-26 4 -50.5 18t-44 35.5t-32 50t-13.5 62.5q-2 27 3.5 62.5t19 74.5t36 80t55.5 80
q11 2 25.5 -6.5t25.5 -21.5t16 -28.5t-3 -27.5q-11 -18 -24.5 -43.5t-27 -55.5t-24 -61.5t-13.5 -60.5t2.5 -53.5t24.5 -39.5q24 -19 54 -13.5t62 28.5t64 59.5t59 77.5t47 83.5t29 77.5q5 19 17 16t24 -19t20.5 -42t6.5 -53q-3 -45 -33.5 -98.5t-80 -98t-113 -70
t-132.5 -13.5z" />
    <glyph glyph-name="i.02" unicode="&#xe011;" horiz-adv-x="812" 
d="M154 -14q-29 1 -55 14t-44.5 36t-27 53.5t-1.5 66.5q6 23 18.5 56t29.5 69t38 72.5t45 67.5q13 6 27 -1.5t24 -21t14.5 -29.5t-0.5 -26q-1 -4 -10.5 -25t-22 -51.5t-26 -65t-23 -64t-13 -49.5t3.5 -22q21 -8 61.5 2t91 29.5t106 44.5t107 47t94.5 37t67 15q52 0 82 -20
t43 -44t10.5 -45t-15.5 -22q-6 1 -9 4t-6 6.5t-8.5 6t-17.5 2.5q-37 0 -85.5 -11t-103 -27t-111 -34.5t-109 -34.5t-98 -26.5t-76.5 -9.5zM237 603q10 4 28 1.5t34.5 -12.5t25.5 -26.5t2 -39.5q-3 -9 -12 -22.5t-21.5 -26.5t-29 -21t-35.5 -5q-13 2 -25 13t-14 27
q-2 15 2 33.5t11.5 35t16.5 28.5t17 15z" />
    <glyph glyph-name="iacute" unicode="&#xed;" horiz-adv-x="199" 
d="M101 43q0 -3 5 -4t10.5 -1t10.5 -0.5t5 -3.5q1 -6 -3.5 -14.5t-11 -16t-13.5 -13.5t-13 -7q-11 -2 -26 5.5t-28.5 22.5t-21.5 37t-5 49q3 26 15 65.5t31 84.5t44.5 90.5t56.5 83.5q14 6 28.5 0t26 -17.5t16.5 -26t-1 -24.5q-4 -9 -15.5 -34t-26 -57.5t-30.5 -69
t-28.5 -68t-20 -54t-5.5 -27.5zM318 611q6 13 17 13.5t21.5 -7t17 -20.5t3.5 -28q-3 -16 -23.5 -31.5t-45 -27.5t-47 -20t-30.5 -9q-14 -1 -20.5 4t-9 11.5t-1.5 12.5t4 8q17 12 35.5 25.5t34.5 26t28 23.5t16 19z" />
    <glyph glyph-name="icircumflex" unicode="&#xee;" horiz-adv-x="199" 
d="M101 43q0 -3 5 -4t10.5 -1t10.5 -0.5t5 -3.5q1 -6 -3.5 -14.5t-11 -16t-13.5 -13.5t-13 -7q-11 -2 -26 5.5t-28.5 22.5t-21.5 37t-5 49q3 26 15 65.5t31 84.5t44.5 90.5t56.5 83.5q14 6 28.5 0t26 -17.5t16.5 -26t-1 -24.5q-4 -9 -15.5 -34t-26 -57.5t-30.5 -69
t-28.5 -68t-20 -54t-5.5 -27.5zM146 506q0 1 13 12.5t32.5 25t41.5 24.5t39 12q7 0 21 -12.5t27 -28.5t20.5 -30.5t2.5 -17.5q-1 -2 -7 -3t-14.5 -1t-17 0.5t-14.5 2.5q-2 1 -9.5 6.5t-25.5 30.5q-15 -12 -25 -18t-16.5 -9t-9.5 -3.5l-3 -0.5q-5 -1 -14.5 -0.5t-18.5 2
t-15.5 3.5t-6.5 5z" />
    <glyph glyph-name="idieresis" unicode="&#xef;" horiz-adv-x="199" 
d="M101 43q0 -3 5 -4t10.5 -1t10.5 -0.5t5 -3.5q1 -6 -3.5 -14.5t-11 -16t-13.5 -13.5t-13 -7q-11 -2 -26 5.5t-28.5 22.5t-21.5 37t-5 49q3 26 15 65.5t31 84.5t44.5 90.5t56.5 83.5q14 6 28.5 0t26 -17.5t16.5 -26t-1 -24.5q-4 -9 -15.5 -34t-26 -57.5t-30.5 -69
t-28.5 -68t-20 -54t-5.5 -27.5zM152 574q30 5 48 -6.5t20 -20.5q2 -11 -7 -29.5t-35 -31.5q-16 -5 -25 -4q-10 1 -19 6.5t-12 22.5q-5 22 5.5 40.5t24.5 22.5zM312 554q30 5 48 -6.5t20 -20.5q2 -11 -7 -29.5t-35 -31.5q-16 -5 -25 -4q-10 1 -19 6.5t-12 22.5
q-5 22 5.5 40.5t24.5 22.5z" />
    <glyph glyph-name="igrave" unicode="&#xec;" horiz-adv-x="199" 
d="M101 43q0 -3 5 -4t10.5 -1t10.5 -0.5t5 -3.5q1 -6 -3.5 -14.5t-11 -16t-13.5 -13.5t-13 -7q-11 -2 -26 5.5t-28.5 22.5t-21.5 37t-5 49q3 26 15 65.5t31 84.5t44.5 90.5t56.5 83.5q14 6 28.5 0t26 -17.5t16.5 -26t-1 -24.5q-4 -9 -15.5 -34t-26 -57.5t-30.5 -69
t-28.5 -68t-20 -54t-5.5 -27.5zM223 623q13 0 15.5 -5t-2.5 -10q-4 -4 -2 -18t7.5 -32t14 -35.5t18.5 -27.5q-2 -10 -6 -14q-4 -5 -12.5 -8.5t-23.5 -1.5q-9 1 -23 13t-26.5 28.5t-22 35t-9.5 33.5q0 6 6 13t16 13.5t23 11t27 4.5z" />
    <glyph glyph-name="j" unicode="j" horiz-adv-x="235" 
d="M183 420q16 4 30.5 -2.5t24.5 -18t15 -24.5t3 -20q-12 -38 -31.5 -89.5t-43.5 -108.5t-52 -115.5t-57 -110.5t-59 -94.5t-58 -66.5q-42 -42 -82 -50t-63 23q-22 29 -24.5 57.5t11.5 69.5q12 26 35.5 49.5t53 44t61.5 39t61 35.5q16 29 29.5 54t25 48.5t22.5 46.5t23 48
q-13 -8 -23 -12.5t-21 -7.5q-12 -3 -17 -1t-6 6.5t1.5 10t5.5 8.5t20 24.5t39 50t43.5 58t32.5 48.5zM263 594q9 2 25 -1.5t30 -12t21.5 -22t0.5 -31.5q-2 -6 -12.5 -20t-25 -26.5t-31 -20.5t-31.5 -3q-18 9 -20.5 30.5t3.5 44.5t17.5 41t22.5 21zM-14 -26q-18 -11 -44 -30
t-46.5 -43t-29 -50.5t8.5 -51.5q12 10 26 31.5t28.5 46.5t28.5 51t28 46z" />
    <glyph glyph-name="k" unicode="k" horiz-adv-x="381" 
d="M358 89q12 -17 10.5 -33.5t-11 -30t-23.5 -23t-26 -11.5q-16 -3 -37 5t-42.5 24.5t-42 41.5t-35.5 57q-16 -25 -28 -48t-19 -49q0 -4 -2.5 -13.5t-16.5 -9.5q-11 1 -24 7t-25 15t-20.5 21.5t-8.5 27.5q-1 28 15 77.5t41.5 109t57 122.5t61 117t54 93t36.5 51q5 7 18 2.5
t25.5 -15.5t20 -25.5t2.5 -27.5q-11 -26 -27 -59.5t-34 -70l-36 -73t-31 -67.5q26 26 53.5 45.5t51.5 32t42 18t27 5.5q16 0 29 -6.5t19.5 -15t4.5 -17.5t-15 -13q-12 -4 -36 -19.5t-52.5 -37t-57 -47t-49.5 -49.5q2 -12 14 -37t28 -49t32 -41t26 -14q11 5 16.5 10t14.5 20z
" />
    <glyph glyph-name="l" unicode="l" horiz-adv-x="197" 
d="M91 34q1 -3 6 -4t10.5 -1t10.5 -0.5t5 -3.5q1 -6 -4 -14.5t-12 -16t-14.5 -13.5t-13.5 -7q-11 -2 -23.5 5t-23.5 21t-18 35.5t-7 48.5q1 34 18 87t43.5 114.5t59.5 127t66 124.5t63 106t50 72q13 6 30 -1t30 -19.5t18.5 -27t-2.5 -22.5q-6 -6 -23 -34.5t-40.5 -71
t-51 -95.5t-54.5 -107.5t-51.5 -107t-42.5 -94t-26 -69t-3 -32.5z" />
    <glyph glyph-name="l.01" unicode="&#xe012;" horiz-adv-x="198" 
d="M-66 661q54 -33 124 -51t150 -23q66 100 151.5 189t191.5 148q35 19 78.5 34.5t89.5 24.5t91.5 9t84 -10t67 -33t40.5 -60q4 -12 6.5 -33.5t-4.5 -48t-26 -56.5t-57 -59q-57 -44 -134 -79.5t-164 -62t-180 -43t-183 -20.5q-57 -101 -97 -209t-60 -213q-1 -5 10 -3t24.5 6
t24.5 6t10 -3q-4 -15 -12.5 -30t-20 -27.5t-25.5 -20.5t-30 -8q-7 0 -17 4.5t-20 11.5t-18.5 14.5t-13.5 12.5q-11 19 -7.5 64t20.5 107t47 136t73 152q-97 4 -177 25t-133 63q-26 20 -34.5 42t-6.5 43t10.5 38.5t17.5 28.5q17 22 25.5 27t12 0.5t4 -14t1.5 -16.5
q2 -11 22 -29.5t44 -33.5zM585 844q-74 -43 -140 -109.5t-123 -149.5q70 3 142 13.5t140 28.5t130 43t113 55q70 41 96 78t19.5 65t-41.5 44t-87.5 15.5t-117 -20.5t-131.5 -63z" />
    <glyph glyph-name="l.02" unicode="&#xe013;" horiz-adv-x="205" 
d="M659 662q-11 -30 -38 -63.5t-70.5 -59t-103.5 -36t-137 6.5q-20 -37 -45.5 -86t-51 -102.5t-49.5 -106t-41 -95.5t-25.5 -71t-2.5 -33q1 -3 6 -4t10.5 -1t10.5 -0.5t5 -3.5q1 -6 -4 -14.5t-12 -16t-14.5 -13.5t-13.5 -7q-11 -2 -23 5t-22 21t-16 35t-6 48q1 38 18 95.5
t43.5 123t59 131.5t64.5 120q-84 22 -142 34t-97.5 16t-64 -0.5t-42.5 -14.5q-8 -4 -10.5 -9.5t-2.5 -10.5t0.5 -10t-0.5 -9q-3 -12 -11 -14t-16 3.5t-14 16.5t-5 25q1 15 6.5 34t15.5 37t24.5 33t34.5 23q48 19 100.5 14t103.5 -20.5t96 -34.5t77 -28q66 97 133.5 153
t127.5 67q40 7 74 -2.5t55.5 -32.5t27 -59.5t-12.5 -83.5zM600 684q17 43 11 66.5t-26 29t-49 -6.5t-59 -39q-29 -28 -61 -66.5t-59 -81.5q58 -14 100 -7.5t71.5 23.5t46.5 39.5t25 42.5z" />
    <glyph glyph-name="l.03" unicode="&#xe014;" horiz-adv-x="210" 
d="M153 38q6 -3 4 -11.5t-9.5 -17.5t-18.5 -16t-22 -5q-20 2 -33.5 13.5t-22 27t-12.5 33.5t-4 33q-1 30 11.5 76.5t31.5 97.5t41.5 101t43.5 88q-51 5 -100 18t-92.5 31.5t-80.5 43.5t-64 54q-23 24 -33 51t-12 52.5t3 47t14 33.5q16 22 23.5 27.5t10 1t2 -14.5t-0.5 -17
q0 -5 5 -15t12.5 -21t17.5 -22.5t21 -20.5q61 -54 145 -94t182 -54q33 55 73.5 108.5t88.5 102.5q48 48 100.5 74.5t100.5 36.5q40 8 74 -2.5t56 -34t28.5 -58t-9.5 -73.5q-26 -61 -75 -107t-111 -77.5t-130.5 -49t-132.5 -22.5q-12 -19 -28 -52t-34 -73t-35 -82t-31 -81
t-23 -70t-9 -47q0 -7 4 -9.5t9.5 -3t11.5 -0.5t9 -1zM432 700q-24 -25 -50.5 -62t-53.5 -82q39 2 78.5 10.5t78.5 24.5q47 18 89.5 49.5t71 64.5t37 62.5t-12.5 44.5q-14 10 -38 10t-55 -13t-68 -39.5t-77 -69.5z" />
    <glyph glyph-name="l.04" unicode="&#xe015;" horiz-adv-x="557" 
d="M147 -38q-43 7 -71 27.5t-43 49.5t-19 64.5t0 73.5t15 76t27 72q25 57 60 121t70.5 122.5t67 106t51.5 71.5q13 6 28.5 -1t27 -21t15 -31.5t-5.5 -31.5q-5 -7 -22.5 -34.5t-42 -69t-53 -93t-55 -105.5t-48.5 -107t-33 -97.5t-9 -77.5t24 -47q20 -12 48 -4t59 31
t62.5 56.5t59 72t48.5 79t30 75.5q5 19 17 16t24 -19t20.5 -42t6.5 -53q-3 -45 -33.5 -98.5t-80 -98t-113 -70t-132.5 -13.5z" />
    <glyph glyph-name="l.05" unicode="&#xe016;" horiz-adv-x="197" 
d="M91 34q1 -3 6 -4t10.5 -1t10.5 -0.5t5 -3.5q1 -6 -4 -14.5t-12 -16t-14.5 -13.5t-13.5 -7q-11 -2 -22.5 5.5t-21.5 22.5t-16 37.5t-6 51.5q0 37 16 90.5t41.5 113.5t57 120.5t62.5 112.5q-113 12 -221.5 26t-206.5 19q-8 4 -0.5 20.5t26 34.5t47 32.5t62.5 15.5
q97 -6 188.5 -15.5t179.5 -18.5q61 85 138 150t165 99q43 16 90.5 25.5t94.5 10.5t92 -6t82.5 -22.5t65 -40t40.5 -58.5q13 -35 7.5 -66t-24.5 -58.5t-48 -50t-62 -39.5q-63 -32 -134 -49.5t-147.5 -24t-156.5 -4.5t-161 9q-23 -35 -49.5 -83t-53 -100t-50.5 -103.5
t-40.5 -93.5t-23.5 -70t1 -33zM565 790q-60 -33 -101 -73.5t-75 -85.5q126 -11 238 -10t209 27q45 12 75 27.5t46.5 31t22.5 31.5t3 30q-5 27 -29.5 45t-60.5 27t-80 9.5t-89 -6t-86.5 -20t-72.5 -33.5z" />
    <glyph glyph-name="l.06" unicode="&#xe017;" horiz-adv-x="188" 
d="M479 741q-32 -32 -69.5 -82t-76.5 -111.5t-76.5 -130t-70 -136.5t-57.5 -131.5t-38 -114.5q-1 -5 5 -6.5t13.5 -2.5t13 -2.5t4.5 -6.5q-8 -15 -26 -28t-40 -8q-17 4 -26 19.5t-13 37t-3 46t5 47.5q10 58 38.5 138t72 166.5t99.5 171.5t119.5 154t132.5 113.5t139 49.5
q40 3 79.5 -12.5t65.5 -45t32 -71.5t-19 -92q-32 -62 -73 -101t-81.5 -60t-77 -27.5t-59.5 -3t-28 13t18 20.5q32 15 64.5 40.5t61.5 55.5t53 61.5t39 58.5t19 46.5t-7 26.5q-15 9 -37 11t-51.5 -7.5t-66 -32.5t-78.5 -64z" />
    <glyph glyph-name="l.salt" unicode="&#xe4cb;" horiz-adv-x="291" 
d="M455 618q-3 -33 -22 -74.5t-48.5 -86.5t-65 -90.5t-70 -84.5t-64.5 -69t-49 -45q-10 -30 -9 -55.5t9 -43t20 -26t24 -6.5q14 3 26 10t17 2q5 -6 1 -17.5t-13.5 -24t-23 -22.5t-27.5 -12q-17 -5 -39.5 0.5t-43 22t-35 45.5t-16.5 72q-3 64 14.5 130.5t46.5 130t66.5 119.5
t74.5 99.5t70.5 70t54.5 30.5q19 4 38 -3t33.5 -19t23 -26.5t7.5 -26.5zM380 609q-11 -1 -37.5 -30t-59 -76.5t-65.5 -109t-57 -126.5q26 26 55.5 61.5t57.5 74t52 75.5t39.5 66.5t20.5 47.5t-6 17z" />
    <glyph glyph-name="lacute" unicode="&#x13a;" horiz-adv-x="197" 
d="M91 34q1 -3 6 -4t10.5 -1t10.5 -0.5t5 -3.5q1 -6 -4 -14.5t-12 -16t-14.5 -13.5t-13.5 -7q-11 -2 -23.5 5t-23.5 21t-18 35.5t-7 48.5q1 34 18 87t43.5 114.5t59.5 127t66 124.5t63 106t50 72q13 6 30 -1t30 -19.5t18.5 -27t-2.5 -22.5q-6 -6 -23 -34.5t-40.5 -71
t-51 -95.5t-54.5 -107.5t-51.5 -107t-42.5 -94t-26 -69t-3 -32.5zM487 882q4 13 16 15t25 -3t23 -16.5t10 -25.5q0 -16 -18.5 -34.5t-43 -34.5t-47.5 -27.5t-32 -14.5q-14 -3 -22.5 0.5t-12.5 9.5t-4.5 12t2.5 8q16 14 33 30t32 31.5t25.5 28.5t13.5 21z" />
    <glyph glyph-name="lcaron" unicode="&#x13e;" horiz-adv-x="467" 
d="M508 741q27 0 35.5 -8t10.5 -19q4 -21 -2 -41.5t-18.5 -37.5t-28 -29t-30.5 -16q-11 -3 -17.5 0t-9.5 8.5t-3.5 11t1.5 7.5q17 19 26 36.5t13 32.5t4 26.5t-2 16.5q2 5 5.5 8.5t15.5 3.5zM91 34q1 -3 6 -4t10.5 -1t10.5 -0.5t5 -3.5q1 -6 -4 -14.5t-12 -16t-14.5 -13.5
t-13.5 -7q-11 -2 -23.5 5t-23.5 21t-18 35.5t-7 48.5q1 34 18 87t43.5 114.5t59.5 127t66 124.5t63 106t50 72q13 6 30 -1t30 -19.5t18.5 -27t-2.5 -22.5q-6 -6 -23 -34.5t-40.5 -71t-51 -95.5t-54.5 -107.5t-51.5 -107t-42.5 -94t-26 -69t-3 -32.5z" />
    <glyph glyph-name="less" unicode="&#x3c;" horiz-adv-x="277" 
d="M245 376q4 0 3.5 -11.5t-3.5 -27t-7.5 -31t-8.5 -22.5q-2 -2 -20 -12t-38 -21l-54 -28l36 -40q14 -16 25 -29.5t12 -16.5q1 -10 -2.5 -24.5t-8.5 -27.5t-11 -22t-10 -8q-2 0 -10 11t-19.5 28t-24 37t-23.5 37.5t-18 30.5t-7 16q2 20 16 40t34.5 38t43.5 33t43.5 26
t35 17.5t16.5 6.5z" />
    <glyph glyph-name="lslash" unicode="&#x142;" horiz-adv-x="197" 
d="M91 34q1 -3 6 -4t10.5 -1t10.5 -0.5t5 -3.5q1 -6 -4 -14.5t-12 -16t-14.5 -13.5t-13.5 -7q-11 -2 -23.5 5t-23.5 21t-18 35.5t-7 48.5q1 36 20 93.5t48 124.5l-83 -31q-18 -5 -21 7q-3 10 10 27t31.5 34.5t38.5 31.5t31 17q1 1 12.5 5.5t29.5 12.5q24 49 50 96.5t50.5 88
t46 73t36.5 51.5q13 6 30 -1t30 -19.5t18.5 -27t-2.5 -22.5q-4 -4 -13.5 -19t-22.5 -37.5t-29 -52t-34 -62.5l43 18q7 3 12 -1.5t8 -12.5q3 -11 0 -25.5t-9 -28.5t-14 -25t-17 -14q-2 -1 -25.5 -9t-58.5 -21q-29 -57 -55 -112t-45 -100t-28.5 -74.5t-3.5 -34.5z" />
    <glyph glyph-name="m" unicode="m" horiz-adv-x="620" 
d="M518 53q1 -3 6 -4t10.5 -1t10.5 -0.5t5 -3.5q1 -6 -3 -14.5t-10 -16t-13 -13.5t-13 -7q-11 -2 -25 5t-25.5 22.5t-18 39.5t-1.5 57q3 19 10 46t18.5 57.5t26 64t32.5 65.5q-24 -26 -54 -61t-60 -74t-58 -79t-48 -74q-11 -18 -13 -26.5t-13 -6.5q-23 5 -35 25t-14 39
q-2 13 0.5 35.5t10 51.5t21.5 62.5t35 69.5q6 10 -3 1.5t-27 -31t-43 -55.5t-50.5 -71t-49.5 -78.5t-41 -77.5q-1 -1 -1.5 -4.5t-2 -7.5t-5 -7t-10.5 -3q-11 1 -24 12t-24 26t-18 30.5t-5 26.5q6 37 25 87.5t42 99.5t47 88t39 53q4 4 17 -1.5t26 -15.5t22 -21.5t6 -19.5
q-2 -6 -8 -18t-14.5 -28.5t-18 -36t-17.5 -38.5q24 30 53.5 64t57.5 62.5t52.5 47t39.5 18.5q7 0 17.5 -7.5t19.5 -18t14.5 -21.5t3.5 -18q-1 -3 -6 -13.5t-12.5 -25t-16.5 -32.5t-17 -37q30 34 60 67t57 59t48.5 42t33.5 16q11 0 26 -9.5t27 -23t19 -29t1 -27.5
q-4 -9 -15 -32t-25.5 -52.5t-29.5 -62.5t-27.5 -61.5t-19.5 -49t-5 -25.5z" />
    <glyph glyph-name="m.01" unicode="&#xe018;" horiz-adv-x="945" 
d="M566 -89q-26 4 -50.5 18t-44 35.5t-32 50t-13.5 62.5q-3 50 8 97t34 92q-40 -45 -79 -97.5t-71 -106.5q-11 -18 -13 -26.5t-13 -6.5q-12 2 -23.5 10t-21 18t-16 21.5t-6.5 20.5t7.5 32.5t21 55.5t32.5 69t40 73q6 10 -3 2t-28 -30t-44.5 -55.5t-53.5 -73.5t-54.5 -84.5
t-46.5 -87.5q-1 -1 -1.5 -4.5t-2 -7.5t-5 -7t-10.5 -3q-11 1 -24 12t-24 26t-18 30.5t-5 26.5q6 37 25 82.5t42.5 89.5t47 80.5t38.5 55.5q4 4 16.5 1.5t25.5 -8.5t22.5 -14.5t6.5 -16.5q-2 -6 -8.5 -20.5t-15.5 -33.5t-19 -40.5t-18 -40.5q21 31 50.5 67t59 67t55.5 51.5
t41 20.5q7 0 16.5 -6.5t17.5 -15.5t12.5 -19t2.5 -17q-1 -3 -8.5 -19.5t-18 -38t-21.5 -45.5t-19 -43q27 35 55.5 66.5t54.5 56t47.5 39.5t33.5 16q60 -12 73 -63q-11 -18 -26 -46.5t-30 -62t-27.5 -69.5t-18 -69t-1 -60t23.5 -42q24 -20 54 -14t62 29t64 59.5t59 77.5
t47 83.5t29 77.5q5 19 17 16t24 -19t20.5 -42t6.5 -53q-3 -45 -33.5 -98.5t-80 -98t-113 -70t-132.5 -13.5z" />
    <glyph glyph-name="mu" unicode="&#xb5;" horiz-adv-x="575" 
d="M54 -249q-13 -11 -25.5 1.5t-21 43t-11 76t4.5 100.5q9 72 35 150t62 154t79.5 148.5t87.5 133.5t85 108t73 74q9 9 26 4.5t32.5 -15.5t25.5 -25.5t4 -25.5q-29 -30 -69 -82t-82 -113t-81 -124.5t-64.5 -117.5t-33.5 -91.5t12 -46.5q13 -7 33.5 3t46 33t55.5 56t62 73
t65 84l66 88l160 266q9 12 26.5 7.5t34.5 -17t27.5 -27.5t6.5 -24q-20 -41 -52 -96.5t-67.5 -117.5t-71.5 -126.5t-65.5 -122.5t-49.5 -106.5t-23 -77.5q0 -23 6.5 -33.5t9.5 -13.5q2 -2 2.5 -6t-2 -7.5t-8.5 -6t-16 -1.5q-21 0 -39 27t-27 75q-4 19 -3.5 40t3.5 40.5
t7.5 36t8.5 26.5q-8 -9 -21 -26t-29.5 -37t-35 -41.5t-37 -38.5t-37.5 -28t-35 -11q-24 -1 -44 15t-31 44q-24 -59 -39 -104t-22.5 -80.5t-8 -63.5t4.5 -53z" />
    <glyph glyph-name="multiply" unicode="&#xd7;" horiz-adv-x="530" 
d="M133 236q3 1 29 17t64 42l-65 77q-5 8 7 25q7 9 18.5 16t23.5 10.5t22.5 3.5t15.5 -5l63 -73l148 95q8 5 10.5 1t4.5 -9q1 -8 -2.5 -22.5t-10.5 -29.5t-16 -27.5t-18 -17.5l-71 -45q12 -16 24 -31t21 -26t15 -18t7 -7q11 -9 2 -20q-6 -8 -18 -17t-24.5 -15t-23.5 -7.5
t-16 4.5l-71 84l-159 -102q-17 -11 -18 0q-2 8 0.5 22t8 28.5t13.5 27.5t16 19z" />
    <glyph glyph-name="n" unicode="n" horiz-adv-x="431" 
d="M327 53q1 -3 6 -4t10.5 -1t10.5 -0.5t5 -3.5q1 -6 -3 -14.5t-10 -16t-13 -13.5t-13 -7q-11 -2 -24.5 4.5t-25.5 21.5t-20 38.5t-7 57.5q1 37 24 86.5t54 112.5q-17 -15 -45 -42t-59 -64.5t-62 -84.5t-53 -102q0 -4 -3 -13.5t-18 -9.5q-11 1 -24.5 12t-25 25.5t-18.5 30
t-6 27.5q2 24 11.5 55t23.5 64.5t31 67t34 63.5t32 53.5t26 36.5q4 4 17.5 -0.5t27.5 -14.5t23.5 -21.5t6.5 -20.5q-2 -6 -9.5 -20.5t-17.5 -32.5t-20.5 -39t-19.5 -41q28 33 62.5 65.5t66.5 58t57.5 42t34.5 18.5q12 1 29.5 -13t23.5 -32q11 -25 5 -39q-4 -9 -15.5 -32.5
t-26 -54t-30 -64t-28 -63t-20 -50.5t-5.5 -26z" />
    <glyph glyph-name="n.01" unicode="&#xe019;" horiz-adv-x="949" 
d="M394 427q12 1 29.5 -13t23.5 -32q11 -25 5 -39q-5 -10 -17 -38t-26 -63.5t-27.5 -72t-22.5 -63.5q129 69 240 106t208 23q24 -3 45 -15.5t36.5 -28t24 -31.5t6.5 -25q-4 -17 -12.5 -20t-9.5 3q-2 3 -2 8.5t-20 9.5q-39 6 -98 1.5t-128.5 -19.5t-143.5 -40.5t-143 -61.5
q-17 -19 -36.5 -11t-36 28.5t-27.5 47t-11 43.5q0 9 5 28.5t14 44.5t21.5 55t28.5 60q-18 -15 -46 -42t-58.5 -64t-61 -83.5t-52.5 -101.5q0 -4 -3 -13.5t-18 -9.5q-11 1 -24.5 12t-25 25.5t-18.5 30t-6 27.5q2 24 12.5 56t26 66.5t34 70t36.5 66.5t34 55.5t27 37.5
q4 4 17 -1t26.5 -15t22.5 -22t6 -21q-2 -6 -11.5 -25.5t-22 -44t-25.5 -50.5t-22 -46q22 32 57 67.5t69.5 66t62.5 51t37 22.5z" />
    <glyph glyph-name="n.02" unicode="&#xe01a;" horiz-adv-x="734" 
d="M376 -89q-26 3 -52.5 14.5t-47.5 31t-34.5 47t-14.5 61.5q8 114 67 224q-20 -19 -45.5 -46t-52 -61t-51 -74.5t-43.5 -86.5q0 -4 -3 -13.5t-18 -9.5q-11 1 -24.5 12t-25 25.5t-18.5 30t-6 27.5q3 36 24 85.5t47.5 97.5t53.5 89t43 61q4 4 17 2t27 -8.5t23.5 -15.5
t6.5 -18q-2 -6 -11.5 -25.5t-22 -44t-25.5 -50.5t-22 -46q22 32 57 67.5t69.5 66t62.5 51t37 22.5q11 1 28 -12t24 -30q13 -15 8 -26l-8 -8q-11 -18 -28 -50.5t-35 -71t-33.5 -80t-22.5 -77.5t-2.5 -62t27.5 -34q18 -7 44 1t54.5 26.5t57 45t52 56t39 60t18.5 56.5
q2 20 -10 29.5t-28 14.5q-11 2 -6.5 11t21.5 11q20 2 42 -8t40 -28t28.5 -42.5t7.5 -50.5q-4 -35 -32.5 -80.5t-74.5 -84.5t-105.5 -63.5t-123.5 -18.5z" />
    <glyph glyph-name="nacute" unicode="&#x144;" horiz-adv-x="431" 
d="M337 33q1 -3 6 -4t10.5 -1t10.5 -0.5t5 -3.5q1 -6 -3 -14.5t-10 -16t-13 -13.5t-13 -7q-11 -2 -24.5 4.5t-25.5 21.5t-20 38.5t-7 57.5q1 37 19 96.5t49 122.5q-17 -15 -45 -42t-59 -64.5t-62 -84.5t-53 -102q0 -4 -3 -13.5t-18 -9.5q-11 1 -24.5 12t-25 25.5t-18.5 30
t-6 27.5q2 24 11.5 55t23.5 64.5t31 67t34 63.5t32 53.5t26 36.5q4 4 17.5 -0.5t27.5 -14.5t23.5 -21.5t6.5 -20.5q-2 -6 -9.5 -20.5t-17.5 -32.5t-20.5 -39t-19.5 -41q28 33 62.5 65.5t66.5 58t57.5 42t34.5 18.5q12 1 29.5 -13t23.5 -32q11 -25 5 -39q-4 -9 -14.5 -34
t-24 -57.5t-28 -69t-26 -68t-18 -54t-4.5 -27.5zM396 609q4 13 16 15t25 -3t23 -16.5t10 -25.5q0 -16 -18.5 -34.5t-43 -34.5t-47.5 -27.5t-32 -14.5q-14 -3 -22.5 0.5t-12.5 9.5t-4.5 12t2.5 8q16 14 33 30t32 31.5t25.5 28.5t13.5 21z" />
    <glyph glyph-name="ncaron" unicode="&#x148;" horiz-adv-x="431" 
d="M337 33q1 -3 6 -4t10.5 -1t10.5 -0.5t5 -3.5q1 -6 -3 -14.5t-10 -16t-13 -13.5t-13 -7q-11 -2 -24.5 4.5t-25.5 21.5t-20 38.5t-7 57.5q1 37 19 96.5t49 122.5q-17 -15 -45 -42t-59 -64.5t-62 -84.5t-53 -102q0 -4 -3 -13.5t-18 -9.5q-11 1 -24.5 12t-25 25.5t-18.5 30
t-6 27.5q2 24 11.5 55t23.5 64.5t31 67t34 63.5t32 53.5t26 36.5q4 4 17.5 -0.5t27.5 -14.5t23.5 -21.5t6.5 -20.5q-2 -6 -9.5 -20.5t-17.5 -32.5t-20.5 -39t-19.5 -41q28 33 62.5 65.5t66.5 58t57.5 42t34.5 18.5q12 1 29.5 -13t23.5 -32q11 -25 5 -39q-4 -9 -14.5 -34
t-24 -57.5t-28 -69t-26 -68t-18 -54t-4.5 -27.5zM436 551q0 -3 -13 -16.5t-32 -28t-40.5 -25.5t-38.5 -8q-10 -2 -22.5 9t-24 26.5t-19 30.5t-7.5 21q0 2 6 3.5t14.5 2t17.5 0t14 -2.5l37 -32q14 12 24 17.5t16 7.5t9 2.5t4 0.5q5 1 14.5 1t18.5 -1.5t15.5 -3.5t6.5 -4z" />
    <glyph glyph-name="nine" unicode="9" horiz-adv-x="510" 
d="M173 -49q-35 -3 -63.5 11.5t-47 33.5t-25 36t2.5 18q8 0 13 -1.5t10 -4t10.5 -4t13.5 -0.5q34 3 65.5 22t59 48.5t50 64.5t39.5 69q-14 -7 -28.5 -12t-32.5 -6q-21 -2 -45.5 9t-46 31t-37.5 46.5t-20 55.5q-8 60 10.5 122.5t51.5 115t74.5 87.5t80.5 39q29 3 60.5 -7.5
t58.5 -31.5t45.5 -51t21.5 -67q7 -77 -5.5 -152.5t-38 -144t-60 -127t-72.5 -102.5t-76 -70t-69 -28zM253 288q31 3 58 31.5t47.5 69.5t32 88.5t12 87t-11.5 64.5t-40 23q-21 -2 -45 -27t-44.5 -62.5t-35 -81.5t-18.5 -84t6 -70t39 -39z" />
    <glyph glyph-name="ntilde" unicode="&#xf1;" horiz-adv-x="431" 
d="M327 53q1 -3 6 -4t10.5 -1t10.5 -0.5t5 -3.5q1 -6 -3 -14.5t-10 -16t-13 -13.5t-13 -7q-11 -2 -24.5 4.5t-25.5 21.5t-20 38.5t-7 57.5q1 37 24 86.5t54 112.5q-17 -15 -45 -42t-59 -64.5t-62 -84.5t-53 -102q0 -4 -3 -13.5t-18 -9.5q-11 1 -24.5 12t-25 25.5t-18.5 30
t-6 27.5q2 24 11.5 55t23.5 64.5t31 67t34 63.5t32 53.5t26 36.5q4 4 17.5 -0.5t27.5 -14.5t23.5 -21.5t6.5 -20.5q-2 -6 -9.5 -20.5t-17.5 -32.5t-20.5 -39t-19.5 -41q28 33 62.5 65.5t66.5 58t57.5 42t34.5 18.5q12 1 29.5 -13t23.5 -32q11 -25 5 -39q-4 -9 -15.5 -32.5
t-26 -54t-30 -64t-28 -63t-20 -50.5t-5.5 -26zM298 562q15 -2 34.5 -7.5t52.5 -15.5q29 -5 42.5 0.5t24.5 5.5q6 0 3 -12t-13 -25.5t-26 -25t-35 -10.5q-18 1 -33 4.5t-28 8t-23.5 8.5t-20.5 6q-21 3 -31 -2t-17 -5q-11 0 -8 12.5t14.5 26.5t29 24.5t34.5 6.5z" />
    <glyph glyph-name="numbersign" unicode="#" horiz-adv-x="588" 
d="M104 151q-18 4 -34.5 15.5t-30 25.5t-21.5 28.5t-8 24.5q0 15 32 15h123q12 23 25.5 46t27.5 48h-3q-20 0 -39.5 10.5t-35 25.5t-25 31t-9.5 28q0 9 6.5 11.5t26.5 2.5h140q13 25 26 47t23 39t16.5 27.5t8.5 12.5q16 29 39.5 40t44.5 9.5t33 -11.5t6 -22l-5.5 -9.5
t-13 -24t-16 -31.5t-17 -32.5t-15 -28t-8.5 -16.5h75l79 141q13 25 35.5 33t43 5t33.5 -14t7 -23l-5 -10t-13 -24.5t-17.5 -32.5t-18.5 -35t-16.5 -30t-11.5 -19q15 -8 29 -17.5t25 -20t18 -21.5t7 -20t-5 -15t-22 -6h-109q-14 -23 -28 -48t-29 -50q16 -4 33.5 -14
t31.5 -22.5t23.5 -25.5t9.5 -23q0 -9 -6 -15.5t-21 -6.5h-131q-20 -33 -37.5 -63t-30.5 -53t-20.5 -37t-7.5 -15q-8 -12 -16 -13t-15 4q-11 5 -17 19t-7.5 31t1 35t7.5 31l24 61h-79q-19 -34 -36 -64t-30 -52.5t-21.5 -36.5t-9.5 -15q-7 -12 -14.5 -13t-14.5 4
q-11 5 -17.5 16.5t-9 25.5t-1 29t6.5 28zM338 354q-14 -23 -27.5 -46.5t-26.5 -47.5h78l53 94h-77z" />
    <glyph glyph-name="o" unicode="o" horiz-adv-x="369" 
d="M369 325q4 -32 -2 -70t-19.5 -76.5t-35 -74.5t-49 -63.5t-60.5 -44t-71 -15.5q-14 0 -35 11.5t-41 30.5t-34.5 43t-15.5 49q-1 41 6.5 75.5t19 63t25.5 50.5t28 37q8 9 17.5 13.5t18 6.5t15.5 2.5t10 2.5q7 15 16.5 30.5t22.5 27.5t30 19t39 5q16 -2 35.5 -13t37 -28
t30 -38.5t12.5 -43.5zM234 176q18 34 29 67t15 60t0 46t-16 24q-14 8 -32 -1.5t-32 -29.5q-10 -13 -14 -23.5t-12 -16.5q-9 -7 -20.5 -24t-23 -39t-21 -47t-14 -48.5t-2.5 -42t15 -28.5q21 -13 56 11.5t72 91.5z" />
    <glyph glyph-name="o.01" unicode="&#xe01b;" horiz-adv-x="673" 
d="M353 307q1 -8 1.5 -15.5t0.5 -15.5q37 11 76 29t75 40.5t67 47t52 48.5q13 15 22.5 7t13 -28t-1 -46.5t-18.5 -50.5q-16 -27 -47.5 -52.5t-72 -45t-87.5 -30t-94 -8.5q-11 -38 -30.5 -73.5t-46 -63.5t-59.5 -44.5t-71 -15.5q-14 0 -34.5 11t-40 28t-34 39t-15.5 45
q-2 33 4 64t16.5 58.5t23.5 49.5t26 36q15 17 27.5 20.5t19.5 6.5q6 10 17 23.5t25.5 25t32.5 18.5t39 5q16 -2 35 -12t36.5 -25.5t29 -35t12.5 -40.5zM214 158q7 11 13.5 24.5t11.5 27.5q-24 10 -45 27q-20 15 -36 38q-11 -9 -28 -35t-29.5 -57t-15.5 -61t15 -46
q14 -16 43.5 1t70.5 81zM248 357q-11 6 -25 -1t-26 -21q-1 -14 5 -29q15 -32 52 -40q7 34 6 59.5t-12 31.5z" />
    <glyph glyph-name="o.02" unicode="&#xe01c;" horiz-adv-x="884" 
d="M824 398q-43 -35 -99 -55t-116.5 -29t-121.5 -9t-115 5q2 -32 -4.5 -69t-20.5 -74t-34.5 -71t-47 -60t-59 -41t-68.5 -14q-14 0 -35.5 12t-41.5 31t-35.5 43t-16.5 49q-2 41 6 75.5t20.5 63t27.5 50t28 37.5q17 18 36 27t26 12q3 14 10.5 27.5t19.5 23.5t29.5 15.5
t40.5 3.5q18 -2 42 -17t44 -37q89 4 171.5 13.5t148 22.5t108.5 29.5t54 33.5q8 16 7 21.5t-5 9.5q0 4 2 7t5.5 3.5t9 -2.5t12.5 -11q13 -13 16.5 -29.5t-1 -33.5t-16 -33.5t-27.5 -29.5zM224 165q20 34 32.5 78t15.5 80q-28 5 -48 9t-30 7q-2 -4 -1.5 -6.5t0.5 -4t-2 -3.5
t-9 -5q-10 -5 -23 -22t-25.5 -40t-23 -50t-16 -52.5t-3.5 -47t14 -33.5q14 -17 45.5 1.5t73.5 88.5z" />
    <glyph glyph-name="o.salt" unicode="&#xe4ce;" horiz-adv-x="369" 
d="M435 384q9 4 14.5 -1.5t-0.5 -12.5q-20 -24 -41.5 -38t-43.5 -22q4 -30 -1 -66.5t-18 -73.5t-33 -71.5t-47 -61t-59.5 -42t-69.5 -14.5q-14 0 -35 11.5t-41 29.5t-35 41t-16 47q-2 40 4.5 73.5t17.5 61t24.5 48.5t26.5 36q8 9 17 13.5t17.5 6t15.5 2t10 2.5q6 15 15 30
t22 26.5t30 18t39 4.5q20 -2 45.5 -18.5t45.5 -40.5q18 0 35 2t31 4zM233 169q18 35 29 69t13 61q-2 0 -3.5 0.5t-2.5 0.5q-20 4 -36 17t-25 30q-8 -8 -14 -17q-9 -13 -12.5 -23t-11.5 -16q-9 -7 -20 -23.5t-22 -38t-20 -45.5t-13 -46.5t-1.5 -40.5t14.5 -27q22 -13 56 10.5
t69 88.5z" />
    <glyph glyph-name="oacute" unicode="&#xf3;" horiz-adv-x="369" 
d="M364 313q4 -30 -0.5 -67t-17.5 -74t-33.5 -72t-47 -61.5t-59.5 -42.5t-70 -15q-14 0 -35 11.5t-41 29.5t-35 41t-16 47q-2 40 4.5 73.5t17.5 61t24.5 48.5t26.5 36q8 9 17 13.5t17.5 6t15.5 2t10 2.5q6 15 15 30t22 26.5t30 18t39 4.5q16 -2 35.5 -12.5t37.5 -27t30 -37
t13 -42.5zM233 169q17 33 27.5 65t13.5 58t-1 44.5t-16 23.5q-14 8 -32 -1t-31 -29q-9 -13 -12.5 -23t-11.5 -16q-9 -7 -20 -23.5t-22 -38t-20 -45.5t-13 -46.5t-1.5 -40.5t14.5 -27q22 -13 56 10.5t69 88.5zM331 591q3 12 12 14t19 -2.5t17.5 -15t7.5 -23.5
q0 -15 -14 -31.5t-32.5 -31.5t-36 -25.5t-23.5 -12.5q-11 -3 -18 0t-10 8.5t-3 11t2 7.5q12 13 25 27.5t24.5 28.5t19.5 25.5t10 19.5z" />
    <glyph glyph-name="ocircumflex" unicode="&#xf4;" horiz-adv-x="369" 
d="M364 313q4 -30 -0.5 -67t-17.5 -74t-33.5 -72t-47 -61.5t-59.5 -42.5t-70 -15q-14 0 -35 11.5t-41 29.5t-35 41t-16 47q-2 40 4.5 73.5t17.5 61t24.5 48.5t26.5 36q8 9 17 13.5t17.5 6t15.5 2t10 2.5q6 15 15 30t22 26.5t30 18t39 4.5q16 -2 35.5 -12.5t37.5 -27t30 -37
t13 -42.5zM233 169q17 33 27.5 65t13.5 58t-1 44.5t-16 23.5q-14 8 -32 -1t-31 -29q-9 -13 -12.5 -23t-11.5 -16q-9 -7 -20 -23.5t-22 -38t-20 -45.5t-13 -46.5t-1.5 -40.5t14.5 -27q22 -13 56 10.5t69 88.5zM194 492q0 1 13 12.5t32.5 25t41.5 24.5t39 12q7 0 21 -12.5
t27 -28.5t20.5 -30.5t2.5 -17.5q-1 -2 -7 -3t-14.5 -1t-17 0.5t-14.5 2.5q-2 1 -9.5 6.5t-25.5 30.5q-15 -12 -25 -18t-16.5 -9t-9.5 -3.5l-3 -0.5q-5 -1 -14.5 -0.5t-18.5 2t-15.5 3.5t-6.5 5z" />
    <glyph glyph-name="odieresis" unicode="&#xf6;" horiz-adv-x="369" 
d="M364 313q4 -30 -0.5 -67t-17.5 -74t-33.5 -72t-47 -61.5t-59.5 -42.5t-70 -15q-14 0 -35 11.5t-41 29.5t-35 41t-16 47q-2 40 4.5 73.5t17.5 61t24.5 48.5t26.5 36q8 9 17 13.5t17.5 6t15.5 2t10 2.5q6 15 15 30t22 26.5t30 18t39 4.5q16 -2 35.5 -12.5t37.5 -27t30 -37
t13 -42.5zM233 169q17 33 27.5 65t13.5 58t-1 44.5t-16 23.5q-14 8 -32 -1t-31 -29q-9 -13 -12.5 -23t-11.5 -16q-9 -7 -20 -23.5t-22 -38t-20 -45.5t-13 -46.5t-1.5 -40.5t14.5 -27q22 -13 56 10.5t69 88.5zM200 568q30 5 48 -6.5t20 -20.5q2 -11 -7 -29.5t-35 -31.5
q-16 -5 -25 -4q-10 1 -19 6.5t-12 22.5q-5 22 5.5 40.5t24.5 22.5zM360 548q30 5 48 -6.5t20 -20.5q2 -11 -7 -29.5t-35 -31.5q-16 -5 -25 -4q-10 1 -19 6.5t-12 22.5q-5 22 5.5 40.5t24.5 22.5z" />
    <glyph glyph-name="oe" unicode="&#x153;" horiz-adv-x="534" 
d="M539 299q-8 -41 -38 -72.5t-67.5 -53.5t-74 -34t-57.5 -15q-5 -17 -3 -35l5 -3l-3 -5q3 -19 17 -25q13 -6 32 -2.5t42.5 14t50.5 26.5t55 34q15 13 20.5 13t6 -7t-2.5 -17.5t-6 -17.5q-5 -10 -17 -30.5t-33.5 -41t-53.5 -34.5t-75 -10q-17 2 -40 12.5t-44 30.5
q-25 -22 -54.5 -34t-62.5 -11q-14 0 -35 11.5t-41 29.5t-35 41t-16 47q-2 40 4.5 73.5t17.5 61t24.5 48.5t26.5 36q8 9 17 13.5t17.5 6t15.5 2t10 2.5q6 15 15 30t22 26.5t30 18t39 4.5q18 -2 42 -16.5t43 -35.5q23 20 46 31.5t43 13.5q24 2 46.5 -10t39.5 -31t26 -42t5 -43
zM108 70q17 -10 42.5 2t52.5 49q-1 5 -1 9.5v9.5q3 48 23.5 94t49.5 85q-2 32 -18 41q-14 8 -32 -1t-31 -29q-9 -13 -12.5 -23t-11.5 -16q-9 -7 -20 -23.5t-22 -38t-20 -45.5t-13 -46.5t-1.5 -40.5t14.5 -27zM467 348q-10 6 -23.5 -0.5t-29 -20t-31 -33t-29.5 -40.5
t-24.5 -40.5t-15.5 -34.5q33 12 64 37.5t54 53t33.5 50.5t1.5 28z" />
    <glyph glyph-name="ogonek" unicode="&#x2db;" horiz-adv-x="268" 
d="M183 14q-21 -10 -45.5 -26t-41.5 -34.5t-23.5 -36.5t8.5 -33q3 -5 17 -10.5t33.5 -7.5t42 1.5t42.5 17.5q16 11 22.5 12.5t7 -3t-2.5 -12.5t-7 -14q-9 -16 -22 -31.5t-29.5 -26t-38.5 -13.5t-49 7q-12 3 -29.5 23t-29.5 47.5t-13 59t19 56.5q17 18 38.5 30t42 15.5
t36.5 -1.5t22 -20z" />
    <glyph glyph-name="ograve" unicode="&#xf2;" horiz-adv-x="369" 
d="M364 313q4 -30 -0.5 -67t-17.5 -74t-33.5 -72t-47 -61.5t-59.5 -42.5t-70 -15q-14 0 -35 11.5t-41 29.5t-35 41t-16 47q-2 40 4.5 73.5t17.5 61t24.5 48.5t26.5 36q8 9 17 13.5t17.5 6t15.5 2t10 2.5q6 15 15 30t22 26.5t30 18t39 4.5q16 -2 35.5 -12.5t37.5 -27t30 -37
t13 -42.5zM233 169q17 33 27.5 65t13.5 58t-1 44.5t-16 23.5q-14 8 -32 -1t-31 -29q-9 -13 -12.5 -23t-11.5 -16q-9 -7 -20 -23.5t-22 -38t-20 -45.5t-13 -46.5t-1.5 -40.5t14.5 -27q22 -13 56 10.5t69 88.5zM245 634q13 0 15.5 -5t-2.5 -10q-4 -4 -2 -18t7.5 -32t14 -35.5
t18.5 -27.5q-2 -10 -6 -14q-4 -5 -12.5 -8.5t-23.5 -1.5q-9 1 -23 13t-26.5 28.5t-22 35t-9.5 33.5q0 6 6 13t16 13.5t23 11t27 4.5z" />
    <glyph glyph-name="ohungarumlaut" unicode="&#x151;" horiz-adv-x="369" 
d="M364 313q4 -30 -0.5 -67t-17.5 -74t-33.5 -72t-47 -61.5t-59.5 -42.5t-70 -15q-14 0 -35 11.5t-41 29.5t-35 41t-16 47q-2 40 4.5 73.5t17.5 61t24.5 48.5t26.5 36q8 9 17 13.5t17.5 6t15.5 2t10 2.5q6 15 15 30t22 26.5t30 18t39 4.5q16 -2 35.5 -12.5t37.5 -27t30 -37
t13 -42.5zM233 169q17 33 27.5 65t13.5 58t-1 44.5t-16 23.5q-14 8 -32 -1t-31 -29q-9 -13 -12.5 -23t-11.5 -16q-9 -7 -20 -23.5t-22 -38t-20 -45.5t-13 -46.5t-1.5 -40.5t14.5 -27q22 -13 56 10.5t69 88.5zM295 595q3 12 12 14t19 -2.5t17.5 -15t7.5 -23.5
q0 -15 -14 -31.5t-32.5 -31.5t-36 -25.5t-23.5 -12.5q-11 -3 -18 0t-10 8.5t-3 11t2 7.5q12 13 25 27.5t24.5 28.5t19.5 25.5t10 19.5zM418 595q3 12 12 14t19 -2.5t17.5 -15t7.5 -23.5q0 -15 -14 -31.5t-32.5 -31.5t-36 -25.5t-23.5 -12.5q-11 -3 -18 0t-10 8.5t-3 11
t2 7.5q12 13 25 27.5t24.5 28.5t19.5 25.5t10 19.5z" />
    <glyph glyph-name="one" unicode="1" horiz-adv-x="303" 
d="M374 740q13 0 27.5 -14t24.5 -31.5t14.5 -34t-1.5 -22.5q-3 -3 -25 -34.5t-54 -82t-70 -115t-72 -133t-59 -137t-32 -125.5q-2 -14 0.5 -19t6 -6.5t7 -1.5t4.5 -2q3 -4 3 -9.5t-3 -10t-10.5 -6.5t-19.5 1q-23 4 -35 21.5t-16 42.5t-1.5 55.5t8 61t13.5 58t15 47.5
q12 33 29.5 72t38.5 80.5t45 84t48 83.5q-13 -8 -34.5 -5t-39.5 10q-14 4 -21.5 13t-9 17t3 13t13.5 1q14 -6 33.5 1t40.5 21t42 32.5t38.5 35t30 27.5t17.5 11z" />
    <glyph glyph-name="oslash" unicode="&#xf8;" horiz-adv-x="369" 
d="M394 474q4 0 15 -4t22 -9.5t18 -11.5t3 -9q-11 -9 -36.5 -32t-61.5 -59q5 -8 7 -17.5t3 -18.5q4 -30 -0.5 -67t-17.5 -74t-33.5 -72t-47 -61.5t-59.5 -42.5t-70 -15q-13 1 -31 10t-36 23q-14 -19 -27.5 -39.5t-27.5 -41.5q-6 -11 -6.5 -14.5t-6.5 -4.5q-11 -1 -14.5 10.5
t-2.5 27.5t5.5 32.5t8.5 25.5l30 48q-18 25 -19 52q-2 40 4.5 73.5t17.5 61t24.5 48.5t26.5 36q8 9 17 13.5t17.5 6t15.5 2t10 2.5q6 15 15 30t22 26.5t30 18t39 4.5q14 -2 30.5 -10t32.5 -22q33 34 55.5 54t27.5 20zM233 169q13 23 22 47t14 45q-38 -40 -78 -88t-82 -104
q22 -11 55.5 12.5t68.5 87.5zM170 291q-8 -6 -18 -20t-20 -33t-18.5 -40.5t-14.5 -42.5q41 53 84 104t83 93q-3 4 -9 8q-14 8 -32 -1t-31 -29q-9 -13 -12.5 -23t-11.5 -16z" />
    <glyph glyph-name="otilde" unicode="&#xf5;" horiz-adv-x="369" 
d="M364 313q4 -30 -0.5 -67t-17.5 -74t-33.5 -72t-47 -61.5t-59.5 -42.5t-70 -15q-14 0 -35 11.5t-41 29.5t-35 41t-16 47q-2 40 4.5 73.5t17.5 61t24.5 48.5t26.5 36q8 9 17 13.5t17.5 6t15.5 2t10 2.5q6 15 15 30t22 26.5t30 18t39 4.5q16 -2 35.5 -12.5t37.5 -27t30 -37
t13 -42.5zM233 169q17 33 27.5 65t13.5 58t-1 44.5t-16 23.5q-14 8 -32 -1t-31 -29q-9 -13 -12.5 -23t-11.5 -16q-9 -7 -20 -23.5t-22 -38t-20 -45.5t-13 -46.5t-1.5 -40.5t14.5 -27q22 -13 56 10.5t69 88.5zM266 569q15 -2 34.5 -7.5t52.5 -15.5q29 -5 42.5 0.5t24.5 5.5
q6 0 3 -12t-13 -25.5t-26 -25t-35 -10.5q-18 1 -33 4.5t-28 8t-23.5 8.5t-20.5 6q-21 3 -31 -2t-17 -5q-11 0 -8 12.5t14.5 26.5t29 24.5t34.5 6.5z" />
    <glyph glyph-name="p" unicode="p" horiz-adv-x="437" 
d="M225 -6q-24 -6 -44 -4.5t-35 8t-25.5 17.5t-15.5 23q-27 -50 -50 -98t-40.5 -87.5t-28.5 -67.5t-14 -39q-2 -8 -13.5 -6t-24 12t-22 27.5t-8.5 40.5q0 18 10 53t27 80.5t39 98.5t46 106.5t48.5 104t45.5 92t37 70t24 37.5q4 5 17 -1.5t26 -19t20.5 -28.5t1.5 -31
t-7.5 -19.5t-3 -9.5t-6.5 -16t-19 -39q43 58 72 83t55 24q18 0 34 -8.5t28 -20.5t20 -26t9 -26q3 -32 -8.5 -81t-37 -98.5t-65 -91.5t-92.5 -59zM122 70q13 -1 31.5 1t43.5 17q34 23 63.5 62t49.5 79.5t27 73.5t-5 44q-7 6 -27.5 -14t-49 -57t-61 -86.5t-62.5 -102.5z" />
    <glyph glyph-name="parenleft" unicode="(" horiz-adv-x="198" 
d="M391 622q-26 0 -58 -21.5t-65 -58t-64 -85.5t-55 -104t-37.5 -113t-11.5 -113t22.5 -104t65.5 -86q10 -8 1.5 -13t-22.5 -5q-5 0 -15 1t-22.5 5.5t-25.5 13t-24 22.5q-45 62 -58.5 133.5t-4 144t36 141t60.5 123t70 90.5t64 44q34 9 66 11t56 -0.5t37 -7t9 -8.5
q-2 -6 -7.5 -8t-17.5 -2z" />
    <glyph glyph-name="parenright" unicode=")" horiz-adv-x="357" 
d="M-145 -41q25 0 57.5 21.5t65.5 58t64 85.5t55 104t37.5 113t11.5 113t-22.5 104t-65.5 86q-19 16 7 16q5 0 18 -2.5t28.5 -7.5t32 -14.5t27.5 -22.5q46 -55 59.5 -124.5t3.5 -141.5t-37.5 -141.5t-62.5 -125t-71.5 -92.5t-64.5 -44q-34 -9 -66 -10.5t-56 0.5t-37 6.5
t-9 8.5q2 6 7.5 8t17.5 2z" />
    <glyph glyph-name="percent" unicode="%" horiz-adv-x="595" 
d="M232 646q12 -2 31.5 -11.5t38.5 -26t34 -38.5t19 -47q4 -35 -11.5 -69t-41 -61t-56 -44t-56.5 -17q-14 0 -30.5 5t-30.5 18.5t-23 37.5t-9 62t15 72.5t36.5 61t44.5 42t39 15.5zM168 397q13 -10 28.5 -3t30.5 23.5t27.5 39t19.5 44.5t7 40.5t-10 26.5q-11 7 -25.5 -1
t-30 -24.5t-29 -38.5t-21.5 -43t-8 -39t11 -25zM610 658q9 4 24 -1t27.5 -14.5t18.5 -21.5t-3 -22q-18 -17 -73 -66.5t-130.5 -131.5t-165 -197t-177.5 -262q-10 -14 -10 -19t-7 -6q-14 -2 -19.5 12.5t-4.5 35.5t8 44.5t18 40.5q33 63 81 131.5t101.5 135.5t106.5 128
t97 107.5t73.5 75t34.5 30.5zM470 282q12 -1 31.5 -10.5t38.5 -26t34 -38.5t19 -47q4 -35 -11.5 -69.5t-41 -61.5t-56 -44t-56.5 -17q-14 0 -30.5 4.5t-30 18t-22.5 37.5t-9 62t15 73t36 61.5t44 42t39 15.5zM406 32q14 -9 30 -1.5t30.5 24t27 39t19.5 44.5t6.5 40t-10.5 25
q-10 8 -25 0.5t-30 -24t-28.5 -39t-21.5 -44t-8.5 -39.5t10.5 -25z" />
    <glyph glyph-name="period" unicode="." horiz-adv-x="130" 
d="M39 84q14 3 25 1t19.5 -6.5t13.5 -10t6 -9.5q2 -10 -7 -27.5t-33 -29.5q-14 -5 -23 -4t-17.5 6.5t-11.5 20.5q-4 20 5.5 38.5t22.5 20.5z" />
    <glyph glyph-name="periodcentered" unicode="&#xb7;" horiz-adv-x="147" 
d="M67 291q26 0 44.5 -11.5t18.5 -19.5v-16t-4 -24t-13.5 -24.5t-27.5 -17.5q-12 -2 -22 1q-9 2 -18.5 8.5t-14.5 20.5q-4 10 -1 24.5t9 27.5t14.5 22t14.5 9z" />
    <glyph glyph-name="perthousand" unicode="&#x2030;" horiz-adv-x="1016" 
d="M267 726q13 -2 34.5 -12.5t42.5 -28.5t37.5 -41.5t20.5 -51.5q4 -38 -13 -75.5t-45 -67t-61 -48t-62 -18.5q-16 0 -34 5t-33 20t-25 41t-10 68t16.5 80t39.5 66.5t48.5 45.5t43.5 17zM197 453q14 -11 31.5 -3t33.5 26t29.5 43t21.5 49.5t8 44.5t-11 28q-12 8 -28.5 -0.5
t-33 -26.5t-31.5 -42.5t-23.5 -48t-9 -43t12.5 -27.5zM682 740q6 0 16 -12.5t18.5 -28.5t13 -30.5t-1.5 -18.5q-20 -19 -76 -69.5t-134 -135.5t-171.5 -207t-189.5 -283q-11 -15 -11.5 -21t-7.5 -7q-15 -2 -20 15.5t-4.5 41.5t6 48.5t11.5 38.5q36 69 89 145.5t112.5 150.5
t119 142t109 119t82.5 81.5t39 30.5zM528 328q13 -2 34.5 -12.5t42.5 -28.5t37.5 -42t20.5 -52q4 -38 -13 -75.5t-44.5 -67.5t-61 -48.5t-62.5 -18.5q-16 0 -34 5.5t-33 20t-25 41t-10 68.5t16.5 80t39.5 67t48.5 46t43.5 17zM458 54q15 -10 32.5 -2t33.5 26t29.5 43
t21.5 49t7.5 43.5t-11.5 27.5q-11 9 -27.5 0.5t-33 -26.5t-31.5 -42.5t-24 -48t-9.5 -43t12.5 -27.5zM848 328q13 -2 34.5 -12.5t42.5 -28.5t37.5 -42t20.5 -52q4 -38 -13 -75.5t-45 -67.5t-61.5 -48.5t-62.5 -18.5q-15 0 -33 5.5t-33 20t-25 41t-10 68.5t16.5 80t39.5 67
t48.5 46t43.5 17zM777 54q15 -10 32.5 -2t34 26t30 43t21 49t7.5 43.5t-11 27.5q-12 9 -28 0.5t-33 -26.5t-32 -42.5t-23.5 -48t-9 -43t11.5 -27.5z" />
    <glyph glyph-name="plus" unicode="+" horiz-adv-x="358" 
d="M145 189q0 1 4 8.5t9 19.5h-64q-7 0 -9 4.5t-3 10.5q0 8 5 18t13 18.5t17.5 14.5t17.5 6h58l43 90q3 6 8.5 6t10.5 -2q7 -3 14 -12t11.5 -20t5.5 -22.5t-2 -18.5l-11 -21h62q8 0 12 -1.5t4 -7.5q0 -8 -4 -19t-10.5 -20.5t-15 -16.5t-17.5 -7h-66l-41 -87q-4 -7 -7 -10
t-8 0q-8 3 -16 11t-14 18.5t-8.5 21t1.5 18.5z" />
    <glyph glyph-name="plusminus" unicode="&#xb1;" horiz-adv-x="414" 
d="M145 279q0 1 4 8.5t9 19.5h-64q-7 0 -9 4.5t-3 10.5q0 8 5 18t13 18.5t17.5 14.5t17.5 6h58l43 90q3 6 8.5 6t10.5 -2q7 -3 14 -12t11.5 -20t5.5 -22.5t-2 -18.5l-11 -21h62q8 0 12 -1.5t4 -7.5q0 -8 -4 -19t-10.5 -20.5t-15 -16.5t-17.5 -7h-66l-41 -87q-4 -7 -7 -10
t-8 0q-8 3 -16 11t-14 18.5t-8.5 21t1.5 18.5zM36 110q-8 0 -11.5 4.5t-3.5 10.5q0 7 5 17t13 19t17.5 15.5t17.5 6.5h201q14 0 14 -10q0 -8 -4 -19t-10.5 -20.5t-15 -16.5t-18.5 -7h-205z" />
    <glyph glyph-name="q" unicode="q" horiz-adv-x="421" 
d="M179 -240q-14 -2 -27 5t-26 32q-11 23 -8 55.5t14 68.5t26.5 72.5t29.5 68.5q-26 -35 -47 -53t-38 -17q-9 0 -23.5 7t-29.5 20.5t-26 32.5t-12 42q-2 20 8 52t28.5 68t43.5 73.5t54 68t60 51t61 23.5q23 2 50.5 -13t41.5 -34l18 32q6 6 21.5 3t31 -12t25.5 -23t4 -30
q-5 -16 -26 -57t-49.5 -95t-61 -114.5t-61.5 -114.5t-50 -96t-26 -59q-3 -7 0 -10.5t8 -5.5l10 -4t7 -7q2 -8 -6 -18t-25 -12zM122 81q9 1 32.5 25.5t53.5 61.5t62 80t59 81q-3 13 -10 26t-12 11q-23 -7 -48.5 -32t-49 -57t-44 -67.5t-33 -64.5t-16.5 -47.5t6 -16.5z" />
    <glyph glyph-name="question" unicode="?" horiz-adv-x="546" 
d="M129 523q7 50 38 85.5t74 55.5t93.5 24t97 -8.5t84.5 -41.5t57 -75q15 -38 9.5 -75t-25 -70t-50 -60.5t-64.5 -45.5q-32 -17 -66 -32t-64 -32.5t-54.5 -41t-37.5 -57.5q-4 -11 -10 -11t-12 6.5t-10.5 16.5t-4.5 19q-2 44 20 77t55 60t72.5 50.5t73 48t55 52t20.5 63.5
q-1 27 -19.5 39.5t-45.5 12.5t-59 -10.5t-60 -29.5t-49 -46t-26 -58q-3 -16 -0.5 -24t7 -12t7 -6.5t-0.5 -8.5q-7 -14 -25.5 -8t-37.5 25.5t-32.5 50.5t-9.5 67zM224 99q8 -8 16.5 -25.5t11 -37.5t-3.5 -38.5t-27 -26.5q-7 -3 -21.5 -4t-30 3.5t-29.5 15t-20 29.5
q-5 25 7 44.5t30 30.5t37.5 14t29.5 -5z" />
    <glyph glyph-name="quotedbl" unicode="&#x22;" horiz-adv-x="382" 
d="M203 771q13 0 25 -4.5t20.5 -11t13.5 -14t5 -12.5q0 -15 -13 -33t-29.5 -34.5t-32.5 -28t-22 -13.5q-11 -3 -17.5 0t-9.5 8t-3 11t1 8q24 40 31.5 71.5t9.5 40.5q2 5 5.5 8.5t15.5 3.5zM343 771q13 0 25 -4.5t20.5 -11t13.5 -14t5 -12.5q0 -15 -13 -33t-29.5 -34.5
t-32.5 -28t-22 -13.5q-11 -3 -17.5 0t-9.5 8t-3 11t1 8q24 40 31.5 71.5t9.5 40.5q2 5 5.5 8.5t15.5 3.5z" />
    <glyph glyph-name="quotedblbase" unicode="&#x201e;" horiz-adv-x="278" 
d="M67 83q13 0 23.5 -5t18 -11.5t11 -14t3.5 -12.5q0 -15 -13.5 -33.5t-31.5 -35t-35.5 -27.5t-24.5 -11q-11 0 -16 4.5t-6.5 10.5t0 12.5t4.5 10.5q5 7 14 21t17.5 28.5t13.5 27.5t2 19q-3 5 2.5 10.5t17.5 5.5zM187 83q13 0 23.5 -5t18 -11.5t11 -14t3.5 -12.5
q0 -15 -13.5 -33.5t-31.5 -35t-35.5 -27.5t-24.5 -11q-11 0 -16 4.5t-6.5 10.5t0 12.5t4.5 10.5q5 7 14 21t17.5 28.5t13.5 27.5t2 19q-3 5 2.5 10.5t17.5 5.5z" />
    <glyph glyph-name="quotedblleft" unicode="&#x201c;" horiz-adv-x="381" 
d="M342 611q-14 0 -25.5 4.5t-20 11t-13.5 14t-5 12.5q0 15 13 33t29.5 34.5t32.5 28t22 13.5q11 3 17.5 0t9.5 -8.5t3 -11t-1 -7.5q-24 -40 -31.5 -71.5t-9.5 -40.5q-2 -5 -5.5 -8.5t-15.5 -3.5zM202 611q-14 0 -25.5 4.5t-20 11t-13.5 14t-5 12.5q0 15 13 33t29.5 34.5
t32.5 28t22 13.5q11 3 17.5 0t9.5 -8.5t3 -11t-1 -7.5q-24 -40 -31.5 -71.5t-9.5 -40.5q-2 -5 -5.5 -8.5t-15.5 -3.5z" />
    <glyph glyph-name="quotedblright" unicode="&#x201d;" horiz-adv-x="375" 
d="M203 771q13 0 25 -4.5t20.5 -11t13.5 -14t5 -12.5q0 -15 -13 -33t-29.5 -34.5t-32.5 -28t-22 -13.5q-11 -3 -17.5 0t-9.5 8t-3 11t1 8q24 40 31.5 71.5t9.5 40.5q2 5 5.5 8.5t15.5 3.5zM343 771q13 0 25 -4.5t20.5 -11t13.5 -14t5 -12.5q0 -15 -13 -33t-29.5 -34.5
t-32.5 -28t-22 -13.5q-11 -3 -17.5 0t-9.5 8t-3 11t1 8q24 40 31.5 71.5t9.5 40.5q2 5 5.5 8.5t15.5 3.5z" />
    <glyph glyph-name="quoteleft" unicode="&#x2018;" horiz-adv-x="268" 
d="M202 611q-14 0 -25.5 4.5t-20 11t-13.5 14t-5 12.5q0 15 13 33t29.5 34.5t32.5 28t22 13.5q11 3 17.5 0t9.5 -8.5t3 -11t-1 -7.5q-24 -40 -31.5 -71.5t-9.5 -40.5q-2 -5 -5.5 -8.5t-15.5 -3.5z" />
    <glyph glyph-name="quoteright" unicode="&#x2019;" horiz-adv-x="270" 
d="M203 771q13 0 25 -4.5t20.5 -11t13.5 -14t5 -12.5q0 -15 -13 -33t-29.5 -34.5t-32.5 -28t-22 -13.5q-11 -3 -17.5 0t-9.5 8t-3 11t1 8q24 40 31.5 71.5t9.5 40.5q2 5 5.5 8.5t15.5 3.5z" />
    <glyph glyph-name="quotesinglbase" unicode="&#x201a;" horiz-adv-x="138" 
d="M67 83q13 0 23.5 -5t18 -11.5t11 -14t3.5 -12.5q0 -15 -13.5 -33.5t-31.5 -35t-35.5 -27.5t-24.5 -11q-11 0 -16 4.5t-6.5 10.5t0 12.5t4.5 10.5q5 7 14 21t17.5 28.5t13.5 27.5t2 19q-3 5 2.5 10.5t17.5 5.5z" />
    <glyph glyph-name="quotesingle" unicode="'" horiz-adv-x="202" 
d="M303 771q27 0 41.5 -10.5t14.5 -21.5q0 -21 -10 -42t-22.5 -38.5t-25.5 -29t-19 -13.5q-11 -3 -20 0t-15 8.5t-7.5 12t1.5 10.5q15 17 23 35t11.5 33.5t4.5 27t2 16.5q2 5 5.5 8.5t15.5 3.5z" />
    <glyph glyph-name="r" unicode="r" horiz-adv-x="388" 
d="M345 179q-20 4 -33.5 15.5t-21 27.5t-10.5 35.5t-2 40.5q-30 -34 -65.5 -76.5t-66.5 -86t-52 -83t-22 -67.5q-1 -9 -14.5 -10t-29.5 5.5t-29 20t-13 33.5q0 19 12 54t30.5 77t40.5 85.5t41.5 80.5t33.5 61.5t17 28.5q3 5 14.5 -0.5t24 -16t22.5 -23.5t10 -22
q0 -6 -14 -31t-32 -67q20 25 49 53t55 52q10 36 28 63q6 9 20 7.5t28.5 -9t25 -19.5t10.5 -24q-9 -30 -18 -56.5t-15 -49t-7 -42.5t6 -36q4 -11 1.5 -16.5t-24.5 -4.5z" />
    <glyph glyph-name="r.01" unicode="&#xe01e;" horiz-adv-x="327" 
d="M567 586q16 -8 23 -14t10 -15t2.5 -21.5t0.5 -32.5q-29 -11 -68 -34t-83 -54t-90 -69.5t-90 -80.5t-82.5 -86.5t-67.5 -87.5q-11 -16 -18.5 -28.5t-13.5 -24.5t-10.5 -25t-7.5 -28q-1 -9 -14.5 -10t-29.5 5.5t-29 20t-13 33.5q0 19 12 54t30.5 77t40.5 85.5t41.5 80.5
t33.5 61.5t17 28.5q3 5 14.5 -0.5t24 -16t22.5 -23.5t10 -22q0 -3 -7.5 -20t-17.5 -38t-19.5 -41t-13.5 -29q14 19 42 52.5t64 73t76.5 80t80 73.5t73.5 54.5t57 21.5z" />
    <glyph glyph-name="racute" unicode="&#x155;" horiz-adv-x="388" 
d="M345 179q-20 4 -33.5 15.5t-21 27.5t-10.5 35.5t-2 40.5q-30 -34 -65.5 -76.5t-66.5 -86t-52 -83t-22 -67.5q-1 -9 -14.5 -10t-29.5 5.5t-29 20t-13 33.5q0 19 12 54t30.5 77t40.5 85.5t41.5 80.5t33.5 61.5t17 28.5q3 5 14.5 -0.5t24 -16t22.5 -23.5t10 -22
q0 -6 -14 -31t-32 -67q20 25 49 53t55 52q10 36 28 63q6 9 20 7.5t28.5 -9t25 -19.5t10.5 -24q-9 -30 -18 -56.5t-15 -49t-7 -42.5t6 -36q4 -11 1.5 -16.5t-24.5 -4.5zM406 623q4 13 16 15t25 -3t23 -16.5t10 -25.5q0 -16 -18.5 -34.5t-43 -34.5t-47.5 -27.5t-32 -14.5
q-14 -3 -22.5 0.5t-12.5 9.5t-4.5 12t2.5 8q16 14 33 30t32 31.5t25.5 28.5t13.5 21z" />
    <glyph glyph-name="rcaron" unicode="&#x159;" horiz-adv-x="388" 
d="M345 179q-20 4 -33.5 15.5t-21 27.5t-10.5 35.5t-2 40.5q-30 -34 -65.5 -76.5t-66.5 -86t-52 -83t-22 -67.5q-1 -9 -14.5 -10t-29.5 5.5t-29 20t-13 33.5q0 19 12 54t30.5 77t40.5 85.5t41.5 80.5t33.5 61.5t17 28.5q3 5 14.5 -0.5t24 -16t22.5 -23.5t10 -22
q0 -6 -14 -31t-32 -67q20 25 49 53t55 52q10 36 28 63q6 9 20 7.5t28.5 -9t25 -19.5t10.5 -24q-9 -30 -18 -56.5t-15 -49t-7 -42.5t6 -36q4 -11 1.5 -16.5t-24.5 -4.5zM415 541q0 -3 -13 -16.5t-32 -28t-40.5 -25.5t-38.5 -8q-10 -2 -22.5 9t-24 26.5t-19 30.5t-7.5 21
q0 2 6 3.5t14.5 2t17.5 0t14 -2.5l37 -32q14 12 24 17.5t16 7.5t9 2.5t4 0.5q5 1 14.5 1t18.5 -1.5t15.5 -3.5t6.5 -4z" />
    <glyph glyph-name="registered" unicode="&#xae;" horiz-adv-x="654" 
d="M561 426q-3 -26 -21.5 -51t-46 -46t-61.5 -37.5t-67 -25.5q19 -40 33 -62.5t37 -22.5q13 0 14 5t3 8q3 2 5.5 0.5t2.5 -9.5q0 -6 -6 -11.5t-15 -10t-18 -7t-15 -2.5q-17 0 -30 8.5t-22.5 22.5t-17 33t-12.5 40q-4 0 -5 -1t-4 -1q-23 -36 -36 -68.5t-12 -49.5
q0 -11 2.5 -10t4.5 0q3 -3 1 -6t-11 -3q-5 0 -11.5 4.5t-12.5 11.5t-10 16.5t-4 19.5q0 15 6 38.5t25 54.5q-18 10 -18 23q0 7 4 7q3 0 6 -3t19 -6h3q21 28 43.5 57.5t42.5 54t36 41.5t22 21q11 1 17.5 -2t10 -7.5t4 -8.5t-0.5 -4q-6 -6 -17 -18.5t-24.5 -29.5t-28.5 -38.5
t-31 -45.5q1 -2 2 -3t1 -3q35 14 69.5 36.5t60 47t38 47.5t4.5 37q-12 13 -39 13q-34 0 -69.5 -11t-66 -27.5t-53.5 -35.5t-32 -35q-7 -11 -6 -15.5t6 -5t12 2t12 4.5q8 5 8.5 3t0.5 -7q0 -12 -11.5 -22.5t-26.5 -13.5q-13 -3 -19.5 3t-9.5 15.5t-3.5 19.5t-0.5 16
q5 32 30 60t61 48t78 29.5t81 5.5q23 -3 40.5 -14t28.5 -25t16 -28t4 -21zM673 410q0 -53 -17.5 -106t-47.5 -101t-70.5 -88t-85 -67t-91.5 -38.5t-91 -1.5q-28 5 -60.5 26t-60.5 51.5t-47 69.5t-20 80q-3 48 11 95.5t40 90.5t62.5 80t78.5 64t88 42.5t91 15.5
q50 0 91.5 -17.5t70.5 -46.5t44 -68t14 -81zM279 66q49 0 98 26t91.5 67.5t75.5 92t51 100.5q15 43 13 85t-21 73.5t-54 49t-86 11.5q-51 -7 -105.5 -36.5t-98.5 -75.5t-71 -106t-23 -129q1 -19 8 -45t22 -50.5t39 -42.5t61 -20z" />
    <glyph glyph-name="ring" unicode="&#x2da;" horiz-adv-x="193" 
d="M164 603q2 -6 1 -16.5t-5 -21t-9.5 -19.5t-12.5 -13q-15 -9 -34.5 -10t-37 6t-30.5 20t-17 31q-2 9 -0.5 21.5t5.5 24.5t10 21.5t13 12.5q14 7 33 7.5t36 -7t30.5 -22t17.5 -35.5zM44 601q2 -11 15.5 -17.5t28.5 -9t27.5 0.5t13.5 11q1 9 -5.5 18t-17.5 14t-24 6t-25 -6
q-18 -7 -13 -17z" />
    <glyph glyph-name="s" unicode="s" horiz-adv-x="324" 
d="M184 118q-11 16 -23 33t-24 34.5t-21.5 37t-13.5 42.5q-8 40 5 71t37.5 50.5t57 27.5t63.5 4q23 -2 35 -15t16.5 -29.5t2.5 -34.5t-7 -31q-3 -5 -18 5t-33.5 21.5t-37 17t-27.5 -6.5q-10 -13 18 -64q9 -16 22.5 -33.5t26.5 -36t23 -37t11 -35.5q1 -29 -11 -57t-33.5 -50
t-51 -36t-63.5 -14q-41 0 -69 17.5t-42 44.5t-14 60t16 65q10 20 18 19t10 -21q1 -18 12 -38.5t28 -37t36.5 -27t36.5 -7.5q17 2 22 21t-8 40z" />
    <glyph glyph-name="s.01" unicode="&#xe01f;" horiz-adv-x="986" 
d="M908 256q18 -11 30.5 -25.5t19.5 -31t7 -33t-8 -30.5q-11 -18 -19 -16.5t-10 9.5q3 4 3.5 10t-10.5 20q-8 9 -40.5 15t-83 8t-114.5 1.5t-135.5 -4.5t-146.5 -11t-146 -16v-4q0 -29 -14.5 -59t-39 -55t-56.5 -41t-66 -15q-27 3 -50 17.5t-37.5 36.5t-17 48.5t10.5 55.5
q2 3 3.5 6.5t4.5 7.5v1q3 4 8 6l1 1q8 5 35.5 14t69.5 21q-11 24 -18.5 50t-9.5 52q-1 27 13 52t38 44t55 30.5t63 11.5q24 0 38.5 -11.5t20.5 -28.5t5.5 -35.5t-5.5 -30.5q-3 -4 -18 4t-33.5 17t-37.5 13t-29 -8q-5 -7 -7 -18t11 -36q8 -16 18.5 -34.5t20.5 -38.5
q55 13 117.5 26t126.5 22.5t126.5 15t119.5 4.5t104.5 -10t81.5 -28zM137 51q11 4 14.5 14t2 22t-6 24.5t-9.5 22.5q-32 -6 -61.5 -12t-55.5 -14q9 -14 23.5 -26.5t31 -21t32.5 -11.5t29 2z" />
    <glyph glyph-name="s.02" unicode="&#xe020;" horiz-adv-x="785" 
d="M754 198q-30 -35 -81.5 -57t-114.5 -34t-132.5 -15t-135.5 0q-15 -45 -52 -77.5t-89 -34.5q-41 0 -69.5 14t-45.5 36.5t-23.5 51.5t-4.5 58q2 18 15 32t30 11q24 -3 49.5 -5.5t52.5 -4.5q-17 26 -33 56t-20 60q-2 27 11 52t36 45t53.5 33t62.5 15q24 1 39 -10.5t21.5 -28
t6.5 -34.5t-4 -30q-3 -5 -18 2.5t-34 15.5t-38 11t-28 -9q-5 -7 -6.5 -17.5t12.5 -35.5q7 -13 17.5 -28t22 -31t21.5 -32.5t16 -31.5q81 5 158.5 17.5t140.5 29.5t104.5 37.5t50.5 41.5q5 8 3 11.5t-4 7.5q1 8 10.5 9.5t22.5 -17.5q13 -22 6.5 -55t-29.5 -59zM183 43
q14 6 14.5 22t-4.5 33q-84 9 -133 25q10 -18 26 -35t33 -29t34 -17t30 1z" />
    <glyph glyph-name="sacute" unicode="&#x15b;" horiz-adv-x="324" 
d="M184 118q-11 16 -23 33t-24 34.5t-21.5 37t-13.5 42.5q-8 40 5 71t37.5 50.5t57 27.5t63.5 4q23 -2 35 -15t16.5 -29.5t2.5 -34.5t-7 -31q-3 -5 -18 5t-33.5 21.5t-37 17t-27.5 -6.5q-10 -13 18 -64q9 -16 22.5 -33.5t26.5 -36t23 -37t11 -35.5q1 -29 -11 -57t-33.5 -50
t-51 -36t-63.5 -14q-41 0 -69 17.5t-42 44.5t-14 60t16 65q10 20 18 19t10 -21q1 -18 12 -38.5t28 -37t36.5 -27t36.5 -7.5q17 2 22 21t-8 40zM351 602q4 13 16 15t25 -3t23 -16.5t10 -25.5q0 -16 -18.5 -34.5t-43 -34.5t-47.5 -27.5t-32 -14.5q-14 -3 -22.5 0.5t-12.5 9.5
t-4.5 12t2.5 8q16 14 33 30t32 31.5t25.5 28.5t13.5 21z" />
    <glyph glyph-name="scaron" unicode="&#x161;" horiz-adv-x="324" 
d="M383 537q0 -3 -13 -16.5t-32 -28t-40.5 -25.5t-38.5 -8q-10 -2 -22.5 9t-24 26.5t-19 30.5t-7.5 21q0 2 6 3.5t14.5 2t17.5 0t14 -2.5l37 -32q14 12 24 17.5t16 7.5t9 2.5t4 0.5q5 1 14.5 1t18.5 -1.5t15.5 -3.5t6.5 -4zM184 118q-11 16 -23 33t-24 34.5t-21.5 37
t-13.5 42.5q-8 40 5 71t37.5 50.5t57 27.5t63.5 4q23 -2 35 -15t16.5 -29.5t2.5 -34.5t-7 -31q-3 -5 -18 5t-33.5 21.5t-37 17t-27.5 -6.5q-10 -13 18 -64q9 -16 22.5 -33.5t26.5 -36t23 -37t11 -35.5q1 -29 -11 -57t-33.5 -50t-51 -36t-63.5 -14q-41 0 -69 17.5t-42 44.5
t-14 60t16 65q10 20 18 19t10 -21q1 -18 12 -38.5t28 -37t36.5 -27t36.5 -7.5q17 2 22 21t-8 40z" />
    <glyph glyph-name="scedilla" unicode="&#x15f;" horiz-adv-x="324" 
d="M184 118q-11 16 -23 33t-24 34.5t-21.5 37t-13.5 42.5q-8 40 5 71t37.5 50.5t57 27.5t63.5 4q23 -2 35 -15t16.5 -29.5t2.5 -34.5t-7 -31q-3 -5 -18 5t-33.5 21.5t-37 17t-27.5 -6.5q-10 -13 18 -64q9 -16 22.5 -33.5t26.5 -36t23 -37t11 -35.5q1 -29 -11 -57t-33.5 -50
t-51 -36t-63.5 -14h-10l-10 -15q17 1 33.5 -3.5t27.5 -11.5q14 -9 21 -21t10 -24t2 -23t-2 -19q-3 -12 -14 -22.5t-27.5 -17.5t-36 -10.5t-38.5 -2.5q-24 1 -42.5 14.5t-24.5 35.5q-2 8 -1.5 18t4.5 15q5 9 5.5 4t0.5 -10q0 -11 8.5 -16.5t20 -8t23.5 -2.5t20 1
q7 1 19.5 3.5t23.5 7t19.5 9.5t8.5 11q0 12 -13 15.5t-29 3t-31 -2.5t-19 -1q-7 4 -17 14.5t-6 23.5q2 6 8.5 18t17.5 25q-27 9 -45 28.5t-26 44t-5.5 52t15.5 54.5q10 20 18 19t10 -21q1 -18 12 -38.5t28 -37t36.5 -27t36.5 -7.5q17 2 22 21t-8 40z" />
    <glyph glyph-name="section" unicode="&#xa7;" horiz-adv-x="553" 
d="M470 196q0 -32 -15 -56t-38 -41.5t-50.5 -28t-52.5 -14.5q11 -12 22 -31.5t13 -33.5q1 -25 -12.5 -52t-35.5 -51.5t-47 -42.5t-46 -25q-35 -11 -68 -4.5t-60 25t-44.5 47t-21.5 60.5q-2 37 -0.5 56.5t6.5 25t12.5 -2.5t17.5 -25q7 -11 31 -31t53 -37t56 -24.5t41 6.5
q13 13 1 34.5t-36 50t-52 63.5t-47 74q-12 24 -13.5 57t4.5 67.5t18.5 66.5t30.5 53q15 18 32.5 31t35.5 21.5t34.5 13.5t29.5 9q5 41 19 78.5t32 64.5q26 38 58 61.5t66.5 35t70 13t68.5 -3.5q26 -4 48 -19.5t37.5 -36t23 -42t3.5 -36.5q-6 -25 -23 -50t-40 -46.5
t-50.5 -38.5t-54 -26t-50.5 -9.5t-40 11.5q-17 20 9 24q15 2 35 14t40.5 28.5t39.5 35t32 35t18 28t-3 14.5q-19 5 -45.5 5t-55.5 -5.5t-58 -16.5t-52 -29t-38 -43t-16 -57q1 -21 11 -38.5t24.5 -34t31 -34t30.5 -38.5t22.5 -46.5t7.5 -58.5zM267 104q37 11 60 33.5t28 42.5
q4 17 -1.5 36t-16 39t-24 41.5t-25.5 44.5q-23 -9 -45 -19.5t-40 -24.5t-30 -31t-14 -38q1 -17 11.5 -33t26.5 -31t34.5 -30t35.5 -30z" />
    <glyph glyph-name="semicolon" unicode=";" horiz-adv-x="316" 
d="M112 131q18 -2 29 -6t17 -9.5t8 -12t3 -13.5q2 -23 -13.5 -48t-36.5 -45t-42 -32.5t-31 -11.5q-15 2 -20.5 8t-5 14t4.5 16t9 13q8 9 18 24t17.5 30.5t11.5 30t1 22.5t5 15t25 5zM205 471q21 4 37.5 1t28.5 -9.5t19 -15t9 -14.5q3 -17 -9.5 -43.5t-48.5 -44.5
q-19 -8 -34 -6q-14 1 -26.5 9t-16.5 33q-3 15 -0.5 30t8.5 27.5t14.5 21t18.5 11.5z" />
    <glyph glyph-name="seven" unicode="7" horiz-adv-x="390" 
d="M428 701q12 0 24 -11.5t21 -27t12 -30t-3 -20.5q-2 -2 -18.5 -24.5t-42 -58.5t-57.5 -82.5t-65 -97.5t-65 -102.5t-56.5 -98t-39.5 -84t-15 -60.5q0 -16 2.5 -21.5t6.5 -6.5t7 0.5t5 -0.5q7 -7 2.5 -18.5t-27.5 -11.5q-12 0 -25.5 9.5t-25 25.5t-19 36t-7.5 40
q0 25 15 63.5t39.5 85.5t57 99.5t68 105t71.5 102.5t68 92q-32 -4 -73.5 -6.5t-80.5 -1.5t-70 5.5t-40 15.5q-15 19 -22 40t-7.5 37t4 24t10.5 1q9 -10 37 -15.5t65 -7.5t78 -1.5t76.5 1.5t60 2.5t29.5 1.5z" />
    <glyph glyph-name="six" unicode="6" horiz-adv-x="457" 
d="M383 726q33 1 60 -14.5t44 -34.5t23 -35.5t-3 -16.5q-8 0 -13 1.5t-9.5 3.5t-9.5 3.5t-12 1.5q-33 -1 -68 -24.5t-67 -58t-59 -74t-45 -71.5q15 6 29.5 9.5t31.5 5.5q20 1 42.5 -11t42 -32.5t33.5 -47t16 -54.5q5 -57 -15 -117t-54 -109.5t-75.5 -81.5t-78.5 -33
q-29 -1 -58.5 10.5t-54 33t-41 51t-17.5 65.5q-3 74 14 149.5t47 145.5t69 130.5t79.5 105.5t79.5 71.5t69 27.5zM270 364q-30 -2 -57.5 -28.5t-49 -66t-35 -84.5t-15.5 -83.5t8 -63.5t37 -24q21 1 47.5 27.5t50 65.5t41.5 85t23 84.5t-5.5 63.5t-44.5 24z" />
    <glyph glyph-name="slash" unicode="/" horiz-adv-x="469" 
d="M636 744q6 0 22 -5.5t31 -13.5t25 -16t4 -12q-14 -12 -47 -41.5t-80 -75.5t-105.5 -108t-123 -138t-132 -165.5t-132.5 -191.5q-9 -14 -10 -19.5t-9 -6.5q-16 -2 -20.5 14.5t-3 39t7.5 46t12 36.5q38 65 92 138.5t114 146.5t120 140.5t110 119t83.5 82t41.5 30.5z" />
    <glyph glyph-name="space" unicode=" " horiz-adv-x="298" 
 />
    <glyph glyph-name="sterling" unicode="&#xa3;" horiz-adv-x="713" 
d="M191 333q35 78 81 148.5t95.5 122.5t98 82t87.5 27q27 -4 49.5 -17.5t39.5 -31.5t27.5 -39t13.5 -40q4 -28 -9.5 -57.5t-38 -57t-56.5 -50.5t-64.5 -36t-62 -14.5t-49.5 14.5q18 0 45.5 18.5t56.5 46t55 60t40 60t12.5 46t-27.5 18.5q-31 0 -66.5 -24t-71 -64.5
t-69 -94.5t-60.5 -114q46 1 80.5 1.5t37.5 0.5q14 0 14 -14q0 -9 -7 -20t-17 -21.5t-22 -17.5t-21 -7h-96q-27 -87 -35 -172q54 -4 106 -7t93.5 0t69 14t32.5 36q3 17 14 19.5t17 -14.5q7 -29 5 -56t-15.5 -49t-41 -36.5t-72.5 -19.5q-33 -4 -76 -1.5t-88.5 8t-91 12
t-84.5 10.5t-68.5 4.5t-42.5 -5.5q-9 -5 -12 -11t-8 -9q-4 -4 -10 3t-7 21t6 32t29 36q18 11 48.5 15t68.5 4q4 40 12.5 81.5t24.5 84.5h-66q-18 0 -18 9q0 7 5 18t12.5 21.5t17.5 18.5t21 8h58z" />
    <glyph glyph-name="t" unicode="t" horiz-adv-x="215" 
d="M100 15q1 -3 6 -4.5t10.5 -2.5t10.5 -2t5 -4q1 -6 -4 -13.5t-12 -14.5t-14.5 -12t-13.5 -6q-11 -2 -23.5 5t-23.5 21t-18 35.5t-7 48.5q0 29 12.5 72.5t32 95t45.5 107.5t53 110q-16 3 -26 7q-13 5 -18.5 12.5t-6.5 15t0 13.5t2 9q3 12 29.5 19t64.5 10q29 54 55.5 96
t45.5 65q13 6 30 -1t30 -19.5t18.5 -27t-2.5 -22.5q-5 -5 -19 -28.5t-33 -58.5q37 0 66.5 -1t42.5 -1q5 0 9 -4t-2 -20q-2 -6 -8 -15.5t-18 -19t-31.5 -19t-47.5 -15.5q-9 -2 -25.5 -3t-36.5 -1q-22 -44 -45.5 -91.5t-44.5 -93.5t-39.5 -88t-30.5 -75t-17.5 -54t-0.5 -25z
" />
    <glyph glyph-name="t.01" unicode="&#xe021;" horiz-adv-x="189" 
d="M677 565q-30 -28 -75.5 -46.5t-99.5 -29t-112.5 -14.5t-114.5 -4q-23 -44 -47 -93t-47.5 -97.5t-43.5 -94t-34.5 -82t-22.5 -61.5t-5 -33q1 -3 5.5 -4.5t9 -2.5t8.5 -1.5t3 -3.5q-5 -14 -14 -21t-26 -12q-25 2 -38.5 31.5t-7.5 84.5q4 34 17 80t32.5 98.5t44 108
t50.5 108.5q-48 3 -82 8t-46 9q-10 4 -15 14t-5.5 20.5t3 18.5t10.5 8q45 -1 88.5 0t88.5 4q28 52 53 93.5t44 64.5q13 6 30 -1t30 -19.5t18.5 -27t-2.5 -22.5q-5 -5 -17.5 -25.5t-29.5 -52.5q67 7 126.5 18t105.5 23.5t76 26t38 27.5q8 15 7 21t-6 10q0 4 2 7t6 3.5
t9.5 -2.5t12.5 -11q13 -13 16.5 -29t-1.5 -32.5t-16 -33.5t-26 -31z" />
    <glyph glyph-name="t.02" unicode="&#xe022;" horiz-adv-x="215" 
d="M-12 542q-7 7 -12.5 16t-7.5 16.5t0 12t10 3.5q49 -9 96 -11.5t104 2.5l28 2t28 3q29 51 54.5 91t42.5 62q13 6 30 -1t30 -19.5t18.5 -27t-2.5 -22.5q-5 -5 -14 -20.5t-23 -39.5q66 12 133 24.5t134 20.5q62 7 112 -1.5t83 -25t47.5 -36t5.5 -34.5q-60 -6 -131.5 -16.5
t-147.5 -21.5t-153.5 -20.5t-149.5 -13.5q-24 -47 -50 -99t-50 -103t-45 -97.5t-35.5 -83t-21 -60t-1.5 -27.5q1 -3 6 -4.5t10.5 -2.5t10.5 -2t5 -4q1 -6 -4 -13.5t-12 -14.5t-14.5 -12t-13.5 -6q-11 -2 -23.5 5t-23.5 21t-18 35.5t-7 48.5q0 29 14 76t37 103t52 117.5
t59 120.5q-63 4 -112 17t-78 42z" />
    <glyph glyph-name="t.03" unicode="&#xe023;" horiz-adv-x="187" 
d="M921 592q-42 -32 -116.5 -54.5t-163.5 -36.5t-184.5 -20.5t-179.5 -6.5q-24 -46 -50 -97t-50 -101.5t-45 -97t-35.5 -83t-21 -60t-1.5 -27.5q6 -4 17 -6.5t13 -7.5q3 -12 -11 -23.5t-28 -12.5q-25 -2 -42 26t-12 83q3 39 15.5 87.5t32 102.5t45.5 111.5t56 114.5
q-25 1 -65.5 6t-79.5 11t-69.5 12t-36.5 9q-8 3 -12.5 9t-5.5 12t1 10.5t8 5.5h36t51.5 0.5t59.5 1t60.5 1.5t54 2t40.5 2q32 56 56.5 93t43.5 60q13 6 30 -1t30 -19.5t18.5 -27t-2.5 -22.5q-5 -5 -15.5 -23t-30.5 -52q81 9 160.5 21t151.5 26q30 6 64 15t67.5 19.5t64 22
t51.5 22.5t30.5 21t2.5 18q0 4 2 7t6 3.5t9.5 -2.5t12.5 -11q13 -13 17.5 -31t0 -38t-17.5 -39.5t-33 -34.5z" />
    <glyph glyph-name="t.04" unicode="&#xe024;" horiz-adv-x="202" 
d="M520 614q28 4 69 7t87.5 3.5t93.5 -2.5t87.5 -10.5t70 -21t39.5 -33.5q3 -7 4.5 -13.5t-9.5 -6.5q-52 -3 -129 -11.5t-161.5 -19t-167 -20.5t-145.5 -15q-13 -1 -34 -2.5t-48 -3.5q-22 -44 -46.5 -93.5t-47 -98t-42.5 -93.5t-33.5 -80t-19.5 -58t-1 -27q1 -3 6 -4.5
t10.5 -2.5t10.5 -2t5 -4q1 -6 -4 -13.5t-12 -14.5t-14.5 -12t-13.5 -6q-22 -3 -40.5 26.5t-17.5 84.5q1 30 12.5 74.5t31 97.5t44 110.5t51.5 112.5q-17 1 -33 1.5t-31 2.5q-43 4 -78 15.5t-57 27t-28.5 35t7.5 39.5q7 10 18.5 12t12.5 0q2 -5 -0.5 -9t-1.5 -10
q1 -11 15 -16t43.5 -5.5t76 4t113.5 13.5q23 42 43 74t36 52q13 6 30 -1t30 -19.5t18.5 -27t-2.5 -22.5q-6 -6 -25 -38l177 24v0z" />
    <glyph glyph-name="tcaron" unicode="&#x165;" horiz-adv-x="485" 
d="M100 15q1 -3 6 -4.5t10.5 -2.5t10.5 -2t5 -4q1 -6 -4 -13.5t-12 -14.5t-14.5 -12t-13.5 -6q-11 -2 -23.5 5t-23.5 21t-18 35.5t-7 48.5q0 29 12.5 72.5t32 95t45.5 107.5t53 110q-16 3 -26 7q-13 5 -18.5 12.5t-6.5 15t0 13.5t2 9q3 12 29.5 19t64.5 10q29 54 55.5 96
t45.5 65q13 6 30 -1t30 -19.5t18.5 -27t-2.5 -22.5q-5 -5 -19 -28.5t-33 -58.5q37 0 66.5 -1t42.5 -1q5 0 9 -4t-2 -20q-2 -6 -8 -15.5t-18 -19t-31.5 -19t-47.5 -15.5q-9 -2 -25.5 -3t-36.5 -1q-22 -44 -45.5 -91.5t-44.5 -93.5t-39.5 -88t-30.5 -75t-17.5 -54t-0.5 -25z
M508 741q27 0 35.5 -8t10.5 -19q4 -21 -2 -41.5t-18.5 -37.5t-28 -29t-30.5 -16q-11 -3 -17.5 0t-9.5 8.5t-3.5 11t1.5 7.5q17 19 26 36.5t13 32.5t4 26.5t-2 16.5q2 5 5.5 8.5t15.5 3.5z" />
    <glyph glyph-name="three" unicode="3" horiz-adv-x="500" 
d="M552 593q9 -41 -4.5 -73.5t-39.5 -58.5t-60.5 -47t-67.5 -39q15 -6 30.5 -20t29.5 -32t24.5 -38.5t14.5 -39.5q6 -32 -3 -68.5t-30 -71.5t-51.5 -66.5t-68.5 -52.5t-81 -30t-88 1q-25 5 -50.5 24t-44 46.5t-28 61t-2.5 66.5q5 25 21 39t34 20.5t35 7t23 -1.5
q18 -5 23 -10.5t4 -10.5t-6 -8.5t-6 -3.5q-21 -9 -36 -27t-22 -38t-6 -38t12 -26q21 -16 51 -15t62.5 14.5t64 36.5t55.5 51.5t37.5 59.5t10.5 61q-3 25 -18 38t-36.5 18.5t-45 5t-42.5 -2.5q-26 1 -39.5 14t-17.5 29t1 30t17 19q13 1 23 -0.5t19.5 -2.5t18.5 -1t21 5
q51 19 88 47t59 58.5t27.5 60t-5.5 53.5q-10 21 -30 26t-44 -2t-48 -23t-42 -37.5t-26.5 -46.5t-0.5 -49q3 -7 6 -10t6.5 -4t6 -1.5t4.5 -2.5q5 -3 1 -10.5t-20 -12.5q-12 -3 -27 2.5t-28 16.5t-22.5 26.5t-12.5 33.5q-11 43 1 80t39.5 63.5t69 40t91.5 9.5
q27 -4 54.5 -17.5t51.5 -33.5t41 -44t22 -48z" />
    <glyph glyph-name="tilde" unicode="&#x2dc;" horiz-adv-x="274" 
d="M89 680q15 -2 34.5 -7.5t52.5 -15.5q29 -5 42.5 0.5t24.5 5.5q6 0 3 -12t-13 -25.5t-26 -25t-35 -10.5q-18 1 -33 4.5t-28 8t-23.5 8.5t-20.5 6q-21 3 -31 -2t-17 -5q-11 0 -8 12.5t14.5 26.5t29 24.5t34.5 6.5z" />
    <glyph glyph-name="trademark" unicode="&#x2122;" horiz-adv-x="482" 
d="M161 387q1 8 8.5 24t18 35.5t24 42t28.5 44.5l-32 3h-2q-17 -17 -37 -43.5t-37 -54t-28.5 -51.5t-11.5 -35q0 -6 2 -6t3 -1t0 -3.5t-7 -2.5q-6 1 -15 8t-7 29q1 11 10.5 32t23.5 45.5t31.5 48t34.5 39.5q-19 2 -38.5 2t-36.5 -2t-29 -5.5t-15 -9.5q-2 -2 0 -3.5t5 -2
t5 -2t1 -3.5q-2 -2 -10 -3t-14 7q-3 6 -2.5 19.5t13.5 23.5q20 14 54 14t70 -5t67.5 -11.5t46.5 -4.5q4 0 6 2.5t4 2.5q4 1 5 -8t-15 -19q-1 -1 -9 -1v-3q-8 -11 -13 -18t-10.5 -14.5t-12 -17t-16.5 -24.5q12 13 26.5 27.5t29 28.5t28 26t23.5 21q3 4 10 1.5t13 -7.5t9 -11
t0 -9q-17 -17 -35 -44.5t-28 -51.5q38 40 65.5 66t44.5 39q4 3 11 1t13 -7t8.5 -10.5t-0.5 -9.5q-16 -15 -31.5 -37t-28 -45.5t-20.5 -45t-9 -33.5q0 -6 2 -5t3 -2q3 -1 1.5 -3.5t-7.5 -2.5q-7 1 -13.5 11.5t-6.5 24.5q0 9 5 24t13.5 32.5t20 36t25.5 35.5
q-18 -20 -39 -39.5t-37.5 -37t-27 -31t-7.5 -19.5q3 -2 1 -3.5t-5 -0.5q-11 2 -18.5 8t-7.5 17q0 8 5 22t13 31t19.5 35t24.5 35q-18 -20 -42.5 -46t-45.5 -51.5t-34.5 -45t-10.5 -25.5q3 -2 1 -4t-5 -1q-8 3 -14.5 13.5t-4.5 24.5z" />
    <glyph glyph-name="two" unicode="2" horiz-adv-x="483" 
d="M15 1q-8 8 -12 19.5t-5 23t0.5 21t5.5 14.5q14 0 54 22t92 60t108.5 89t104 108t78.5 117.5t31 117.5q0 19 -4.5 31t-11.5 18.5t-15.5 8.5t-15.5 2q-20 0 -46.5 -11.5t-50 -35t-40 -58.5t-16.5 -83q0 -9 3 -12.5t7 -4.5t7 -1.5t3 -4.5q0 -10 -18 -12t-40 7t-41 30.5
t-20 57.5q-2 43 17.5 81.5t52 67t73.5 45t80 16.5q36 0 67.5 -17t55 -44.5t37.5 -62t14 -70.5q0 -29 -13 -64t-36.5 -73.5t-55.5 -78.5t-69 -78t-78 -72t-83 -61q20 3 50 0t61 -9t57.5 -15.5t38.5 -19.5q29 -29 39 -56t8.5 -47.5t-10 -32t-15.5 -8.5q-4 0 -2.5 6.5t-2 17
t-17.5 23t-48 25.5q-20 8 -57.5 12.5t-81 5t-86.5 -1.5t-74 -6l-48 -22q-20 0 -29 12h-3v3z" />
    <glyph glyph-name="u" unicode="u" horiz-adv-x="413" 
d="M316 55q1 -3 6 -4.5t10.5 -2t10.5 -1t5 -3.5q1 -6 -3.5 -14t-11 -15.5t-14 -12.5t-13.5 -6q-11 -1 -23 8t-22.5 25.5t-16.5 40t-5 50.5v7q-29 -41 -52 -67.5t-40 -41.5t-29 -21t-19 -6q-12 0 -27 10.5t-28.5 27t-23.5 38t-12 44.5q-1 13 6 37t19.5 53.5t29 62t35 63.5
t37 58t34.5 45q7 3 20.5 -4.5t25.5 -18.5t19 -24.5t2 -22.5q-4 -7 -16.5 -28.5t-28.5 -49.5t-33 -60t-30 -60t-19.5 -48.5t-1.5 -25.5q6 -7 26.5 11.5t49.5 53t64 82t70 98.5q9 16 19 31t21 29q0 2 2 4h1q2 3 4.5 6.5t5.5 6.5q14 6 27.5 -2.5t22.5 -22.5t13 -30t-2 -26
q-5 -9 -15.5 -31t-24 -51t-27.5 -60.5t-25.5 -59t-18 -47.5t-4.5 -25z" />
    </font>
</defs>
</svg>
